<?xml version="1.0" encoding="UTF-8" standalone="no"?>
<!DOCTYPE svg PUBLIC "-//W3C//DTD SVG 1.1//EN"
 "http://www.w3.org/Graphics/SVG/1.1/DTD/svg11.dtd">
<!-- Generated by graphviz version 2.43.0 (0)
 -->
<!-- Title: inc/BaseAdc.h Pages: 1 -->
<svg width="465pt" height="170pt"
 viewBox="0.00 0.00 464.50 170.00" xmlns="http://www.w3.org/2000/svg" xmlns:xlink="http://www.w3.org/1999/xlink">
<g id="graph0" class="graph" transform="scale(1 1) rotate(0) translate(4 166)">
<title>inc/BaseAdc.h</title>
<!-- Node1 -->
<g id="Node000001" class="node">
<title>Node1</title>
<g id="a_Node000001"><a xlink:title="Abstract base class for ADC interface used by NTC thermistor driver.">
<polygon fill="#999999" stroke="#666666" points="208.5,-162 123.5,-162 123.5,-143 208.5,-143 208.5,-162"/>
<text text-anchor="middle" x="166" y="-150" font-family="Helvetica,sans-Serif" font-size="10.00">inc/BaseAdc.h</text>
</a>
</g>
</g>
<!-- Node2 -->
<g id="Node000002" class="node">
<title>Node2</title>
<g id="a_Node000002"><a xlink:href="MockEsp32Adc_8h.html" target="_top" xlink:title="Mock ADC implementation for ESP32&#45;C6 testing.">
<polygon fill="white" stroke="#666666" points="160.5,-107 35.5,-107 35.5,-77 160.5,-77 160.5,-107"/>
<text text-anchor="start" x="43.5" y="-95" font-family="Helvetica,sans-Serif" font-size="10.00">examples/esp32/main</text>
<text text-anchor="middle" x="98" y="-84" font-family="Helvetica,sans-Serif" font-size="10.00">/MockEsp32Adc.h</text>
</a>
</g>
</g>
<!-- Node1&#45;&gt;Node2 -->
<g id="edge1_Node000001_Node000002" class="edge">
<title>Node1&#45;&gt;Node2</title>
<g id="a_edge1_Node000001_Node000002"><a xlink:title=" ">
<path fill="none" stroke="#63b8ff" d="M148.26,-136.23C137.79,-127.23 124.63,-115.91 114.41,-107.11"/>
<polygon fill="#63b8ff" stroke="#63b8ff" points="146.1,-139 155.97,-142.87 150.67,-133.69 146.1,-139"/>
</a>
</g>
</g>
<!-- Node4 -->
<g id="Node000004" class="node">
<title>Node4</title>
<g id="a_Node000004"><a xlink:href="NtcThermistor_8h.html" target="_top" xlink:title="Hardware&#45;agnostic NTC thermistor driver for temperature measurement.">
<polygon fill="white" stroke="#666666" points="298,-101.5 186,-101.5 186,-82.5 298,-82.5 298,-101.5"/>
<text text-anchor="middle" x="242" y="-89.5" font-family="Helvetica,sans-Serif" font-size="10.00">inc/NtcThermistor.h</text>
</a>
</g>
</g>
<!-- Node1&#45;&gt;Node4 -->
<g id="edge3_Node000001_Node000004" class="edge">
<title>Node1&#45;&gt;Node4</title>
<g id="a_edge3_Node000001_Node000004"><a xlink:title=" ">
<path fill="none" stroke="#63b8ff" d="M185.44,-136.54C199.79,-125.49 218.82,-110.84 230.74,-101.67"/>
<polygon fill="#63b8ff" stroke="#63b8ff" points="183,-133.99 177.21,-142.87 187.27,-139.54 183,-133.99"/>
</a>
</g>
</g>
<!-- Node3 -->
<g id="Node000003" class="node">
<title>Node3</title>
<g id="a_Node000003"><a xlink:href="NtcThermistorComprehensiveTest_8cpp.html" target="_top" xlink:title="Comprehensive test suite for NTC Thermistor driver on ESP32&#45;C6.">
<polygon fill="white" stroke="#666666" points="166,-41 0,-41 0,0 166,0 166,-41"/>
<text text-anchor="start" x="8" y="-29" font-family="Helvetica,sans-Serif" font-size="10.00">examples/esp32/main</text>
<text text-anchor="start" x="8" y="-18" font-family="Helvetica,sans-Serif" font-size="10.00">/NtcThermistorComprehensive</text>
<text text-anchor="middle" x="83" y="-7" font-family="Helvetica,sans-Serif" font-size="10.00">Test.cpp</text>
</a>
</g>
</g>
<!-- Node2&#45;&gt;Node3 -->
<g id="edge2_Node000002_Node000003" class="edge">
<title>Node2&#45;&gt;Node3</title>
<g id="a_edge2_Node000002_Node000003"><a xlink:title=" ">
<path fill="none" stroke="#63b8ff" d="M92.8,-66.91C90.98,-58.47 88.96,-49.1 87.22,-41.07"/>
<polygon fill="#63b8ff" stroke="#63b8ff" points="89.43,-67.9 94.96,-76.94 96.28,-66.42 89.43,-67.9"/>
</a>
</g>
</g>
<!-- Node4&#45;&gt;Node3 -->
<g id="edge4_Node000004_Node000003" class="edge">
<title>Node4&#45;&gt;Node3</title>
<g id="a_edge4_Node000004_Node000003"><a xlink:title=" ">
<path fill="none" stroke="#63b8ff" d="M213.29,-78.45C189.44,-68.03 155.11,-53.02 127.67,-41.03"/>
<polygon fill="#63b8ff" stroke="#63b8ff" points="211.94,-81.68 222.5,-82.48 214.74,-75.27 211.94,-81.68"/>
</a>
</g>
</g>
<!-- Node5 -->
<g id="Node000005" class="node">
<title>Node5</title>
<g id="a_Node000005"><a xlink:href="NtcLookupTable_8cpp.html" target="_top" xlink:title="Lookup table implementation for NTC thermistor temperature conversion.">
<polygon fill="white" stroke="#666666" points="315.5,-30 184.5,-30 184.5,-11 315.5,-11 315.5,-30"/>
<text text-anchor="middle" x="250" y="-18" font-family="Helvetica,sans-Serif" font-size="10.00">src/NtcLookupTable.cpp</text>
</a>
</g>
</g>
<!-- Node4&#45;&gt;Node5 -->
<g id="edge5_Node000004_Node000005" class="edge">
<title>Node4&#45;&gt;Node5</title>
<g id="a_edge5_Node000004_Node000005"><a xlink:title=" ">
<path fill="none" stroke="#63b8ff" d="M244.16,-72.21C245.74,-58.5 247.81,-40.55 249.01,-30.09"/>
<polygon fill="#63b8ff" stroke="#63b8ff" points="240.65,-72.14 242.98,-82.48 247.6,-72.94 240.65,-72.14"/>
</a>
</g>
</g>
<!-- Node6 -->
<g id="Node000006" class="node">
<title>Node6</title>
<g id="a_Node000006"><a xlink:href="NtcThermistor_8cpp.html" target="_top" xlink:title="Hardware&#45;agnostic NTC thermistor driver implementation.">
<polygon fill="white" stroke="#666666" points="456.5,-30 333.5,-30 333.5,-11 456.5,-11 456.5,-30"/>
<text text-anchor="middle" x="395" y="-18" font-family="Helvetica,sans-Serif" font-size="10.00">src/NtcThermistor.cpp</text>
</a>
</g>
</g>
<!-- Node4&#45;&gt;Node6 -->
<g id="edge6_Node000004_Node000006" class="edge">
<title>Node4&#45;&gt;Node6</title>
<g id="a_edge6_Node000004_Node000006"><a xlink:title=" ">
<path fill="none" stroke="#63b8ff" d="M270.09,-78.24C300.9,-64.24 349.5,-42.17 376.09,-30.09"/>
<polygon fill="#63b8ff" stroke="#63b8ff" points="268.42,-75.16 260.76,-82.48 271.31,-81.53 268.42,-75.16"/>
</a>
</g>
</g>
</g>
</svg>
