<?xml version="1.0" encoding="UTF-8" standalone="no"?>
<!DOCTYPE svg PUBLIC "-//W3C//DTD SVG 1.1//EN"
 "http://www.w3.org/Graphics/SVG/1.1/DTD/svg11.dtd">
<!-- Generated by graphviz version 2.43.0 (0)
 -->
<!-- Title: examples/esp32/main/MockEsp32Adc.h Pages: 1 -->
<svg width="178pt" height="148pt"
 viewBox="0.00 0.00 177.50 148.00" xmlns="http://www.w3.org/2000/svg" xmlns:xlink="http://www.w3.org/1999/xlink">
<g id="graph0" class="graph" transform="scale(1 1) rotate(0) translate(4 144)">
<title>examples/esp32/main/MockEsp32Adc.h</title>
<!-- Node1 -->
<g id="Node000001" class="node">
<title>Node1</title>
<g id="a_Node000001"><a xlink:title="Mock ADC implementation for ESP32&#45;C6 testing.">
<polygon fill="#999999" stroke="#666666" points="161.5,-140 36.5,-140 36.5,-110 161.5,-110 161.5,-140"/>
<text text-anchor="start" x="44.5" y="-128" font-family="Helvetica,sans-Serif" font-size="10.00">examples/esp32/main</text>
<text text-anchor="middle" x="99" y="-117" font-family="Helvetica,sans-Serif" font-size="10.00">/MockEsp32Adc.h</text>
</a>
</g>
</g>
<!-- Node2 -->
<g id="Node000002" class="node">
<title>Node2</title>
<g id="a_Node000002"><a xlink:href="NtcAdcInterface_8h.html" target="_top" xlink:title="CRTP&#45;based template interface for ADC used by NTC thermistor driver.">
<polygon fill="white" stroke="#666666" points="104,-74 0,-74 0,-55 104,-55 104,-74"/>
<text text-anchor="middle" x="52" y="-62" font-family="Helvetica,sans-Serif" font-size="10.00">NtcAdcInterface.h</text>
</a>
</g>
</g>
<!-- Node1&#45;&gt;Node2 -->
<g id="edge1_Node000001_Node000002" class="edge">
<title>Node1&#45;&gt;Node2</title>
<g id="a_edge1_Node000001_Node000002"><a xlink:title=" ">
<path fill="none" stroke="#63b8ff" d="M87.62,-109.84C80.94,-101.52 72.45,-90.96 65.44,-82.23"/>
<polygon fill="#63b8ff" stroke="#63b8ff" points="68.03,-79.87 59.04,-74.27 62.58,-84.25 68.03,-79.87"/>
</a>
</g>
</g>
<!-- Node4 -->
<g id="Node000004" class="node">
<title>Node4</title>
<g id="a_Node000004"><a xlink:title=" ">
<polygon fill="#e0e0e0" stroke="#999999" points="169.5,-74 122.5,-74 122.5,-55 169.5,-55 169.5,-74"/>
<text text-anchor="middle" x="146" y="-62" font-family="Helvetica,sans-Serif" font-size="10.00">cmath</text>
</a>
</g>
</g>
<!-- Node1&#45;&gt;Node4 -->
<g id="edge3_Node000001_Node000004" class="edge">
<title>Node1&#45;&gt;Node4</title>
<g id="a_edge3_Node000001_Node000004"><a xlink:title=" ">
<path fill="none" stroke="#63b8ff" d="M110.38,-109.84C117.06,-101.52 125.55,-90.96 132.56,-82.23"/>
<polygon fill="#63b8ff" stroke="#63b8ff" points="135.42,-84.25 138.96,-74.27 129.97,-79.87 135.42,-84.25"/>
</a>
</g>
</g>
<!-- Node3 -->
<g id="Node000003" class="node">
<title>Node3</title>
<g id="a_Node000003"><a xlink:title=" ">
<polygon fill="#e0e0e0" stroke="#999999" points="77,-19 27,-19 27,0 77,0 77,-19"/>
<text text-anchor="middle" x="52" y="-7" font-family="Helvetica,sans-Serif" font-size="10.00">cstdint</text>
</a>
</g>
</g>
<!-- Node2&#45;&gt;Node3 -->
<g id="edge2_Node000002_Node000003" class="edge">
<title>Node2&#45;&gt;Node3</title>
<g id="a_edge2_Node000002_Node000003"><a xlink:title=" ">
<path fill="none" stroke="#63b8ff" d="M52,-54.75C52,-47.8 52,-37.85 52,-29.13"/>
<polygon fill="#63b8ff" stroke="#63b8ff" points="55.5,-29.09 52,-19.09 48.5,-29.09 55.5,-29.09"/>
</a>
</g>
</g>
</g>
</svg>
