<?xml version="1.0" encoding="UTF-8" standalone="no"?>
<!DOCTYPE svg PUBLIC "-//W3C//DTD SVG 1.1//EN"
 "http://www.w3.org/Graphics/SVG/1.1/DTD/svg11.dtd">
<!-- Generated by graphviz version 2.43.0 (0)
 -->
<!-- Title: src/ntc_lookup_table.cpp Pages: 1 -->
<svg width="440pt" height="137pt"
 viewBox="0.00 0.00 439.50 137.00" xmlns="http://www.w3.org/2000/svg" xmlns:xlink="http://www.w3.org/1999/xlink">
<g id="graph0" class="graph" transform="scale(1 1) rotate(0) translate(4 133)">
<title>src/ntc_lookup_table.cpp</title>
<!-- Node1 -->
<g id="Node000001" class="node">
<title>Node1</title>
<g id="a_Node000001"><a xlink:title="Lookup table implementation for NTC thermistor temperature conversion.">
<polygon fill="#999999" stroke="#666666" points="342.5,-129 205.5,-129 205.5,-110 342.5,-110 342.5,-129"/>
<text text-anchor="middle" x="274" y="-117" font-family="Helvetica,sans-Serif" font-size="10.00">src/ntc_lookup_table.cpp</text>
</a>
</g>
</g>
<!-- Node2 -->
<g id="Node000002" class="node">
<title>Node2</title>
<g id="a_Node000002"><a xlink:href="ntc__lookup__table_8hpp.html" target="_top" xlink:title="Lookup table implementation for NTC thermistor temperature conversion.">
<polygon fill="white" stroke="#666666" points="120,-74 0,-74 0,-55 120,-55 120,-74"/>
<text text-anchor="middle" x="60" y="-62" font-family="Helvetica,sans-Serif" font-size="10.00">ntc_lookup_table.hpp</text>
</a>
</g>
</g>
<!-- Node1&#45;&gt;Node2 -->
<g id="edge1_Node000001_Node000002" class="edge">
<title>Node1&#45;&gt;Node2</title>
<g id="a_edge1_Node000001_Node000002"><a xlink:title=" ">
<path fill="none" stroke="#63b8ff" d="M239.62,-109.98C202.91,-100.89 144.62,-86.46 104.45,-76.51"/>
<polygon fill="#63b8ff" stroke="#63b8ff" points="105.2,-73.09 94.65,-74.08 103.52,-79.88 105.2,-73.09"/>
</a>
</g>
</g>
<!-- Node5 -->
<g id="Node000005" class="node">
<title>Node5</title>
<g id="a_Node000005"><a xlink:href="ntc__types_8hpp.html" target="_top" xlink:title="Type definitions for NTC thermistor driver.">
<polygon fill="white" stroke="#666666" points="223.5,-74 138.5,-74 138.5,-55 223.5,-55 223.5,-74"/>
<text text-anchor="middle" x="181" y="-62" font-family="Helvetica,sans-Serif" font-size="10.00">ntc_types.hpp</text>
</a>
</g>
</g>
<!-- Node1&#45;&gt;Node5 -->
<g id="edge4_Node000001_Node000005" class="edge">
<title>Node1&#45;&gt;Node5</title>
<g id="a_edge4_Node000001_Node000005"><a xlink:title=" ">
<path fill="none" stroke="#63b8ff" d="M259.06,-109.98C244.5,-101.69 222.13,-88.94 205.07,-79.22"/>
<polygon fill="#63b8ff" stroke="#63b8ff" points="206.64,-76.08 196.21,-74.17 203.17,-82.16 206.64,-76.08"/>
</a>
</g>
</g>
<!-- Node6 -->
<g id="Node000006" class="node">
<title>Node6</title>
<g id="a_Node000006"><a xlink:title=" ">
<polygon fill="#e0e0e0" stroke="#999999" points="306,-74 242,-74 242,-55 306,-55 306,-74"/>
<text text-anchor="middle" x="274" y="-62" font-family="Helvetica,sans-Serif" font-size="10.00">algorithm</text>
</a>
</g>
</g>
<!-- Node1&#45;&gt;Node6 -->
<g id="edge6_Node000001_Node000006" class="edge">
<title>Node1&#45;&gt;Node6</title>
<g id="a_edge6_Node000001_Node000006"><a xlink:title=" ">
<path fill="none" stroke="#63b8ff" d="M274,-109.75C274,-102.8 274,-92.85 274,-84.13"/>
<polygon fill="#63b8ff" stroke="#63b8ff" points="277.5,-84.09 274,-74.09 270.5,-84.09 277.5,-84.09"/>
</a>
</g>
</g>
<!-- Node7 -->
<g id="Node000007" class="node">
<title>Node7</title>
<g id="a_Node000007"><a xlink:title=" ">
<polygon fill="#e0e0e0" stroke="#999999" points="366,-74 324,-74 324,-55 366,-55 366,-74"/>
<text text-anchor="middle" x="345" y="-62" font-family="Helvetica,sans-Serif" font-size="10.00">array</text>
</a>
</g>
</g>
<!-- Node1&#45;&gt;Node7 -->
<g id="edge7_Node000001_Node000007" class="edge">
<title>Node1&#45;&gt;Node7</title>
<g id="a_edge7_Node000001_Node000007"><a xlink:title=" ">
<path fill="none" stroke="#63b8ff" d="M285.41,-109.98C296.11,-102 312.34,-89.88 325.16,-80.31"/>
<polygon fill="#63b8ff" stroke="#63b8ff" points="327.47,-82.96 333.39,-74.17 323.28,-77.35 327.47,-82.96"/>
</a>
</g>
</g>
<!-- Node8 -->
<g id="Node000008" class="node">
<title>Node8</title>
<g id="a_Node000008"><a xlink:title=" ">
<polygon fill="#e0e0e0" stroke="#999999" points="431.5,-74 384.5,-74 384.5,-55 431.5,-55 431.5,-74"/>
<text text-anchor="middle" x="408" y="-62" font-family="Helvetica,sans-Serif" font-size="10.00">cmath</text>
</a>
</g>
</g>
<!-- Node1&#45;&gt;Node8 -->
<g id="edge8_Node000001_Node000008" class="edge">
<title>Node1&#45;&gt;Node8</title>
<g id="a_edge8_Node000001_Node000008"><a xlink:title=" ">
<path fill="none" stroke="#63b8ff" d="M295.53,-109.98C317.47,-101.3 351.74,-87.75 376.69,-77.88"/>
<polygon fill="#63b8ff" stroke="#63b8ff" points="378.07,-81.1 386.08,-74.17 375.49,-74.59 378.07,-81.1"/>
</a>
</g>
</g>
<!-- Node3 -->
<g id="Node000003" class="node">
<title>Node3</title>
<g id="a_Node000003"><a xlink:title=" ">
<polygon fill="#e0e0e0" stroke="#999999" points="86.5,-19 33.5,-19 33.5,0 86.5,0 86.5,-19"/>
<text text-anchor="middle" x="60" y="-7" font-family="Helvetica,sans-Serif" font-size="10.00">cstddef</text>
</a>
</g>
</g>
<!-- Node2&#45;&gt;Node3 -->
<g id="edge2_Node000002_Node000003" class="edge">
<title>Node2&#45;&gt;Node3</title>
<g id="a_edge2_Node000002_Node000003"><a xlink:title=" ">
<path fill="none" stroke="#63b8ff" d="M60,-54.75C60,-47.8 60,-37.85 60,-29.13"/>
<polygon fill="#63b8ff" stroke="#63b8ff" points="63.5,-29.09 60,-19.09 56.5,-29.09 63.5,-29.09"/>
</a>
</g>
</g>
<!-- Node4 -->
<g id="Node000004" class="node">
<title>Node4</title>
<g id="a_Node000004"><a xlink:title=" ">
<polygon fill="#e0e0e0" stroke="#999999" points="180,-19 130,-19 130,0 180,0 180,-19"/>
<text text-anchor="middle" x="155" y="-7" font-family="Helvetica,sans-Serif" font-size="10.00">cstdint</text>
</a>
</g>
</g>
<!-- Node2&#45;&gt;Node4 -->
<g id="edge3_Node000002_Node000004" class="edge">
<title>Node2&#45;&gt;Node4</title>
<g id="a_edge3_Node000002_Node000004"><a xlink:title=" ">
<path fill="none" stroke="#63b8ff" d="M75.26,-54.98C90.13,-46.69 112.98,-33.94 130.42,-24.22"/>
<polygon fill="#63b8ff" stroke="#63b8ff" points="132.43,-27.1 139.46,-19.17 129.02,-20.99 132.43,-27.1"/>
</a>
</g>
</g>
<!-- Node5&#45;&gt;Node4 -->
<g id="edge5_Node000005_Node000004" class="edge">
<title>Node5&#45;&gt;Node4</title>
<g id="a_edge5_Node000005_Node000004"><a xlink:title=" ">
<path fill="none" stroke="#63b8ff" d="M176.71,-54.75C173.19,-47.57 168.09,-37.18 163.72,-28.27"/>
<polygon fill="#63b8ff" stroke="#63b8ff" points="166.76,-26.53 159.21,-19.09 160.48,-29.61 166.76,-26.53"/>
</a>
</g>
</g>
</g>
</svg>
