<?xml version="1.0" encoding="UTF-8" standalone="no"?>
<!DOCTYPE svg PUBLIC "-//W3C//DTD SVG 1.1//EN"
 "http://www.w3.org/Graphics/SVG/1.1/DTD/svg11.dtd">
<!-- Generated by graphviz version 2.43.0 (0)
 -->
<!-- Title: inc/ntc_adc_interface.hpp Pages: 1 -->
<svg width="322pt" height="170pt"
 viewBox="0.00 0.00 322.00 170.00" xmlns="http://www.w3.org/2000/svg" xmlns:xlink="http://www.w3.org/1999/xlink">
<g id="graph0" class="graph" transform="scale(1 1) rotate(0) translate(4 166)">
<title>inc/ntc_adc_interface.hpp</title>
<!-- Node1 -->
<g id="Node000001" class="node">
<title>Node1</title>
<g id="a_Node000001"><a xlink:title="CRTP&#45;based template interface for ADC used by NTC thermistor driver.">
<polygon fill="#999999" stroke="#666666" points="239,-162 98,-162 98,-143 239,-143 239,-162"/>
<text text-anchor="middle" x="168.5" y="-150" font-family="Helvetica,sans-Serif" font-size="10.00">inc/ntc_adc_interface.hpp</text>
</a>
</g>
</g>
<!-- Node2 -->
<g id="Node000002" class="node">
<title>Node2</title>
<g id="a_Node000002"><a xlink:href="mock__esp32__adc_8hpp.html" target="_top" xlink:title="Mock ADC implementation for ESP32&#45;C6 testing.">
<polygon fill="white" stroke="#666666" points="154,-107 29,-107 29,-77 154,-77 154,-107"/>
<text text-anchor="start" x="37" y="-95" font-family="Helvetica,sans-Serif" font-size="10.00">examples/esp32/main</text>
<text text-anchor="middle" x="91.5" y="-84" font-family="Helvetica,sans-Serif" font-size="10.00">/mock_esp32_adc.hpp</text>
</a>
</g>
</g>
<!-- Node1&#45;&gt;Node2 -->
<g id="edge1_Node000001_Node000002" class="edge">
<title>Node1&#45;&gt;Node2</title>
<g id="a_edge1_Node000001_Node000002"><a xlink:title=" ">
<path fill="none" stroke="#63b8ff" d="M149.11,-136.77C137.15,-127.68 121.89,-116.09 110.08,-107.11"/>
<polygon fill="#63b8ff" stroke="#63b8ff" points="147.06,-139.61 157.14,-142.87 151.29,-134.03 147.06,-139.61"/>
</a>
</g>
</g>
<!-- Node4 -->
<g id="Node000004" class="node">
<title>Node4</title>
<g id="a_Node000004"><a xlink:href="ntc__thermistor_8hpp.html" target="_top" xlink:title="Hardware&#45;agnostic NTC thermistor driver for temperature measurement.">
<polygon fill="white" stroke="#666666" points="308,-101.5 183,-101.5 183,-82.5 308,-82.5 308,-101.5"/>
<text text-anchor="middle" x="245.5" y="-89.5" font-family="Helvetica,sans-Serif" font-size="10.00">inc/ntc_thermistor.hpp</text>
</a>
</g>
</g>
<!-- Node1&#45;&gt;Node4 -->
<g id="edge3_Node000001_Node000004" class="edge">
<title>Node1&#45;&gt;Node4</title>
<g id="a_edge3_Node000001_Node000004"><a xlink:title=" ">
<path fill="none" stroke="#63b8ff" d="M188.19,-136.54C202.73,-125.49 222.02,-110.84 234.09,-101.67"/>
<polygon fill="#63b8ff" stroke="#63b8ff" points="185.71,-134.03 179.86,-142.87 189.94,-139.61 185.71,-134.03"/>
</a>
</g>
</g>
<!-- Node3 -->
<g id="Node000003" class="node">
<title>Node3</title>
<g id="a_Node000003"><a xlink:href="ntc__thermistor__comprehensive__test_8cpp.html" target="_top" xlink:title="Comprehensive test suite for NTC Thermistor driver on ESP32&#45;C6.">
<polygon fill="white" stroke="#666666" points="171,-41 0,-41 0,0 171,0 171,-41"/>
<text text-anchor="start" x="8" y="-29" font-family="Helvetica,sans-Serif" font-size="10.00">examples/esp32/main</text>
<text text-anchor="start" x="8" y="-18" font-family="Helvetica,sans-Serif" font-size="10.00">/ntc_thermistor_comprehensive</text>
<text text-anchor="middle" x="85.5" y="-7" font-family="Helvetica,sans-Serif" font-size="10.00">_test.cpp</text>
</a>
</g>
</g>
<!-- Node2&#45;&gt;Node3 -->
<g id="edge2_Node000002_Node000003" class="edge">
<title>Node2&#45;&gt;Node3</title>
<g id="a_edge2_Node000002_Node000003"><a xlink:title=" ">
<path fill="none" stroke="#63b8ff" d="M89.42,-66.91C88.69,-58.47 87.88,-49.1 87.19,-41.07"/>
<polygon fill="#63b8ff" stroke="#63b8ff" points="85.94,-67.27 90.29,-76.94 92.91,-66.67 85.94,-67.27"/>
</a>
</g>
</g>
<!-- Node4&#45;&gt;Node3 -->
<g id="edge4_Node000004_Node000003" class="edge">
<title>Node4&#45;&gt;Node3</title>
<g id="a_edge4_Node000004_Node000003"><a xlink:title=" ">
<path fill="none" stroke="#63b8ff" d="M216.61,-78.45C192.61,-68.03 158.06,-53.02 130.45,-41.03"/>
<polygon fill="#63b8ff" stroke="#63b8ff" points="215.31,-81.7 225.88,-82.48 218.1,-75.28 215.31,-81.7"/>
</a>
</g>
</g>
<!-- Node5 -->
<g id="Node000005" class="node">
<title>Node5</title>
<g id="a_Node000005"><a xlink:href="ntc__thermistor_8cpp.html" target="_top" xlink:title="Hardware&#45;agnostic NTC thermistor driver implementation.">
<polygon fill="white" stroke="#666666" points="314,-30 189,-30 189,-11 314,-11 314,-30"/>
<text text-anchor="middle" x="251.5" y="-18" font-family="Helvetica,sans-Serif" font-size="10.00">src/ntc_thermistor.cpp</text>
</a>
</g>
</g>
<!-- Node4&#45;&gt;Node5 -->
<g id="edge5_Node000004_Node000005" class="edge">
<title>Node4&#45;&gt;Node5</title>
<g id="a_edge5_Node000004_Node000005"><a xlink:title=" ">
<path fill="none" stroke="#63b8ff" d="M241.05,-72.21C240.98,-58.5 243.01,-40.55 246.13,-30.09"/>
<polygon fill="#63b8ff" stroke="#63b8ff" points="237.57,-72.69 241.62,-82.48 244.56,-72.3 237.57,-72.69"/>
</a>
</g>
</g>
<!-- Node5&#45;&gt;Node4 -->
<g id="edge6_Node000005_Node000004" class="edge">
<title>Node5&#45;&gt;Node4</title>
<g id="a_edge6_Node000005_Node000004"><a xlink:title=" ">
<path fill="none" stroke="#63b8ff" d="M255.95,-40.38C256.01,-54.11 253.97,-72.06 250.85,-82.48"/>
<polygon fill="#63b8ff" stroke="#63b8ff" points="259.43,-39.89 255.39,-30.09 252.44,-40.27 259.43,-39.89"/>
</a>
</g>
</g>
</g>
</svg>
