<?xml version="1.0" encoding="UTF-8" standalone="no"?>
<!DOCTYPE svg PUBLIC "-//W3C//DTD SVG 1.1//EN"
 "http://www.w3.org/Graphics/SVG/1.1/DTD/svg11.dtd">
<!-- Generated by graphviz version 2.43.0 (0)
 -->
<!-- Title: src/ntc_conversion.cpp Pages: 1 -->
<svg width="245pt" height="137pt"
 viewBox="0.00 0.00 244.50 137.00" xmlns="http://www.w3.org/2000/svg" xmlns:xlink="http://www.w3.org/1999/xlink">
<g id="graph0" class="graph" transform="scale(1 1) rotate(0) translate(4 133)">
<title>src/ntc_conversion.cpp</title>
<!-- Node1 -->
<g id="Node000001" class="node">
<title>Node1</title>
<g id="a_Node000001"><a xlink:title="Mathematical conversion functions for NTC thermistor temperature calculation.">
<polygon fill="#999999" stroke="#666666" points="162.5,-129 34.5,-129 34.5,-110 162.5,-110 162.5,-129"/>
<text text-anchor="middle" x="98.5" y="-117" font-family="Helvetica,sans-Serif" font-size="10.00">src/ntc_conversion.cpp</text>
</a>
</g>
</g>
<!-- Node2 -->
<g id="Node000002" class="node">
<title>Node2</title>
<g id="a_Node000002"><a xlink:href="ntc__conversion_8hpp.html" target="_top" xlink:title="Mathematical conversion functions for NTC thermistor temperature calculation.">
<polygon fill="white" stroke="#666666" points="154,-74 43,-74 43,-55 154,-55 154,-74"/>
<text text-anchor="middle" x="98.5" y="-62" font-family="Helvetica,sans-Serif" font-size="10.00">ntc_conversion.hpp</text>
</a>
</g>
</g>
<!-- Node1&#45;&gt;Node2 -->
<g id="edge1_Node000001_Node000002" class="edge">
<title>Node1&#45;&gt;Node2</title>
<g id="a_edge1_Node000001_Node000002"><a xlink:title=" ">
<path fill="none" stroke="#63b8ff" d="M98.5,-109.75C98.5,-102.8 98.5,-92.85 98.5,-84.13"/>
<polygon fill="#63b8ff" stroke="#63b8ff" points="102,-84.09 98.5,-74.09 95,-84.09 102,-84.09"/>
</a>
</g>
</g>
<!-- Node3 -->
<g id="Node000003" class="node">
<title>Node3</title>
<g id="a_Node000003"><a xlink:title=" ">
<polygon fill="#e0e0e0" stroke="#999999" points="47,-19 0,-19 0,0 47,0 47,-19"/>
<text text-anchor="middle" x="23.5" y="-7" font-family="Helvetica,sans-Serif" font-size="10.00">cmath</text>
</a>
</g>
</g>
<!-- Node1&#45;&gt;Node3 -->
<g id="edge5_Node000001_Node000003" class="edge">
<title>Node1&#45;&gt;Node3</title>
<g id="a_edge5_Node000001_Node000003"><a xlink:title=" ">
<path fill="none" stroke="#63b8ff" d="M78.79,-109.99C64.18,-102.63 45.05,-90.55 34.5,-74 26.04,-60.72 23.55,-42.84 23.03,-29.44"/>
<polygon fill="#63b8ff" stroke="#63b8ff" points="26.53,-29.03 22.98,-19.05 19.53,-29.06 26.53,-29.03"/>
</a>
</g>
</g>
<!-- Node5 -->
<g id="Node000005" class="node">
<title>Node5</title>
<g id="a_Node000005"><a xlink:title=" ">
<polygon fill="#e0e0e0" stroke="#999999" points="236.5,-74 172.5,-74 172.5,-55 236.5,-55 236.5,-74"/>
<text text-anchor="middle" x="204.5" y="-62" font-family="Helvetica,sans-Serif" font-size="10.00">algorithm</text>
</a>
</g>
</g>
<!-- Node1&#45;&gt;Node5 -->
<g id="edge4_Node000001_Node000005" class="edge">
<title>Node1&#45;&gt;Node5</title>
<g id="a_edge4_Node000001_Node000005"><a xlink:title=" ">
<path fill="none" stroke="#63b8ff" d="M115.53,-109.98C132.43,-101.54 158.56,-88.47 178.14,-78.68"/>
<polygon fill="#63b8ff" stroke="#63b8ff" points="179.78,-81.77 187.16,-74.17 176.65,-75.51 179.78,-81.77"/>
</a>
</g>
</g>
<!-- Node2&#45;&gt;Node3 -->
<g id="edge2_Node000002_Node000003" class="edge">
<title>Node2&#45;&gt;Node3</title>
<g id="a_edge2_Node000002_Node000003"><a xlink:title=" ">
<path fill="none" stroke="#63b8ff" d="M86.45,-54.98C75.04,-46.92 57.67,-34.65 44.07,-25.03"/>
<polygon fill="#63b8ff" stroke="#63b8ff" points="45.96,-22.08 35.77,-19.17 41.92,-27.8 45.96,-22.08"/>
</a>
</g>
</g>
<!-- Node4 -->
<g id="Node000004" class="node">
<title>Node4</title>
<g id="a_Node000004"><a xlink:title=" ">
<polygon fill="#e0e0e0" stroke="#999999" points="123.5,-19 73.5,-19 73.5,0 123.5,0 123.5,-19"/>
<text text-anchor="middle" x="98.5" y="-7" font-family="Helvetica,sans-Serif" font-size="10.00">cstdint</text>
</a>
</g>
</g>
<!-- Node2&#45;&gt;Node4 -->
<g id="edge3_Node000002_Node000004" class="edge">
<title>Node2&#45;&gt;Node4</title>
<g id="a_edge3_Node000002_Node000004"><a xlink:title=" ">
<path fill="none" stroke="#63b8ff" d="M98.5,-54.75C98.5,-47.8 98.5,-37.85 98.5,-29.13"/>
<polygon fill="#63b8ff" stroke="#63b8ff" points="102,-29.09 98.5,-19.09 95,-29.09 102,-29.09"/>
</a>
</g>
</g>
</g>
</svg>
