<?xml version="1.0" encoding="UTF-8" standalone="no"?>
<!DOCTYPE svg PUBLIC "-//W3C//DTD SVG 1.1//EN"
 "http://www.w3.org/Graphics/SVG/1.1/DTD/svg11.dtd">
<!-- Generated by graphviz version 2.43.0 (0)
 -->
<!-- Title: inc/NtcThermistor.h Pages: 1 -->
<svg width="529pt" height="192pt"
 viewBox="0.00 0.00 528.58 192.00" xmlns="http://www.w3.org/2000/svg" xmlns:xlink="http://www.w3.org/1999/xlink">
<g id="graph0" class="graph" transform="scale(1 1) rotate(0) translate(4 188)">
<title>inc/NtcThermistor.h</title>
<!-- Node1 -->
<g id="Node000001" class="node">
<title>Node1</title>
<g id="a_Node000001"><a xlink:title="Hardware&#45;agnostic NTC thermistor driver for temperature measurement.">
<polygon fill="#999999" stroke="#666666" points="289.58,-184 177.58,-184 177.58,-165 289.58,-165 289.58,-184"/>
<text text-anchor="middle" x="233.58" y="-172" font-family="Helvetica,sans-Serif" font-size="10.00">inc/NtcThermistor.h</text>
</a>
</g>
</g>
<!-- Node2 -->
<g id="Node000002" class="node">
<title>Node2</title>
<g id="a_Node000002"><a xlink:title=" ">
<polygon fill="#e0e0e0" stroke="#999999" points="111.58,-19 61.58,-19 61.58,0 111.58,0 111.58,-19"/>
<text text-anchor="middle" x="86.58" y="-7" font-family="Helvetica,sans-Serif" font-size="10.00">cstdint</text>
</a>
</g>
</g>
<!-- Node1&#45;&gt;Node2 -->
<g id="edge1_Node000001_Node000002" class="edge">
<title>Node1&#45;&gt;Node2</title>
<g id="a_edge1_Node000001_Node000002"><a xlink:title=" ">
<path fill="none" stroke="#63b8ff" d="M177.48,-170.34C117.93,-165.67 29.56,-154.54 8.58,-129 -20.15,-94.04 32.53,-48.22 64.57,-25.14"/>
<polygon fill="#63b8ff" stroke="#63b8ff" points="66.78,-27.86 72.97,-19.26 62.77,-22.13 66.78,-27.86"/>
</a>
</g>
</g>
<!-- Node3 -->
<g id="Node000003" class="node">
<title>Node3</title>
<g id="a_Node000003"><a xlink:title=" ">
<polygon fill="#e0e0e0" stroke="#999999" points="435.58,-129 377.58,-129 377.58,-110 435.58,-110 435.58,-129"/>
<text text-anchor="middle" x="406.58" y="-117" font-family="Helvetica,sans-Serif" font-size="10.00">memory</text>
</a>
</g>
</g>
<!-- Node1&#45;&gt;Node3 -->
<g id="edge2_Node000001_Node000003" class="edge">
<title>Node1&#45;&gt;Node3</title>
<g id="a_edge2_Node000001_Node000003"><a xlink:title=" ">
<path fill="none" stroke="#63b8ff" d="M261.37,-164.98C290.54,-156.05 336.58,-141.94 368.98,-132.02"/>
<polygon fill="#63b8ff" stroke="#63b8ff" points="370.03,-135.36 378.56,-129.08 367.98,-128.66 370.03,-135.36"/>
</a>
</g>
</g>
<!-- Node4 -->
<g id="Node000004" class="node">
<title>Node4</title>
<g id="a_Node000004"><a xlink:href="NtcAdcInterface_8h.html" target="_top" xlink:title="CRTP&#45;based template interface for ADC used by NTC thermistor driver.">
<polygon fill="white" stroke="#666666" points="121.58,-129 17.58,-129 17.58,-110 121.58,-110 121.58,-129"/>
<text text-anchor="middle" x="69.58" y="-117" font-family="Helvetica,sans-Serif" font-size="10.00">NtcAdcInterface.h</text>
</a>
</g>
</g>
<!-- Node1&#45;&gt;Node4 -->
<g id="edge3_Node000001_Node000004" class="edge">
<title>Node1&#45;&gt;Node4</title>
<g id="a_edge3_Node000001_Node000004"><a xlink:title=" ">
<path fill="none" stroke="#63b8ff" d="M207.23,-164.98C179.81,-156.13 136.68,-142.19 106.01,-132.28"/>
<polygon fill="#63b8ff" stroke="#63b8ff" points="106.72,-128.83 96.13,-129.08 104.57,-135.49 106.72,-128.83"/>
</a>
</g>
</g>
<!-- Node5 -->
<g id="Node000005" class="node">
<title>Node5</title>
<g id="a_Node000005"><a xlink:href="NtcTypes_8h.html" target="_top" xlink:title="Type definitions for NTC thermistor driver.">
<polygon fill="white" stroke="#666666" points="209.58,-129 139.58,-129 139.58,-110 209.58,-110 209.58,-129"/>
<text text-anchor="middle" x="174.58" y="-117" font-family="Helvetica,sans-Serif" font-size="10.00">NtcTypes.h</text>
</a>
</g>
</g>
<!-- Node1&#45;&gt;Node5 -->
<g id="edge5_Node000001_Node000005" class="edge">
<title>Node1&#45;&gt;Node5</title>
<g id="a_edge5_Node000001_Node000005"><a xlink:title=" ">
<path fill="none" stroke="#63b8ff" d="M224.1,-164.98C215.37,-157.15 202.23,-145.34 191.68,-135.86"/>
<polygon fill="#63b8ff" stroke="#63b8ff" points="194.01,-133.25 184.23,-129.17 189.33,-138.46 194.01,-133.25"/>
</a>
</g>
</g>
<!-- Node6 -->
<g id="Node000006" class="node">
<title>Node6</title>
<g id="a_Node000006"><a xlink:href="NtcThermistor_8cpp.html" target="_top" xlink:title="Hardware&#45;agnostic NTC thermistor driver implementation.">
<polygon fill="white" stroke="#666666" points="359.58,-129 227.58,-129 227.58,-110 359.58,-110 359.58,-129"/>
<text text-anchor="middle" x="293.58" y="-117" font-family="Helvetica,sans-Serif" font-size="10.00">../src/NtcThermistor.cpp</text>
</a>
</g>
</g>
<!-- Node1&#45;&gt;Node6 -->
<g id="edge7_Node000001_Node000006" class="edge">
<title>Node1&#45;&gt;Node6</title>
<g id="a_edge7_Node000001_Node000006"><a xlink:title=" ">
<path fill="none" stroke="#63b8ff" d="M238.32,-164.75C245.61,-156.8 258.74,-144.91 270.5,-135.45"/>
<polygon fill="#63b8ff" stroke="#63b8ff" points="272.96,-137.98 278.72,-129.09 268.67,-132.44 272.96,-137.98"/>
</a>
</g>
</g>
<!-- Node4&#45;&gt;Node2 -->
<g id="edge4_Node000004_Node000002" class="edge">
<title>Node4&#45;&gt;Node2</title>
<g id="a_edge4_Node000004_Node000002"><a xlink:title=" ">
<path fill="none" stroke="#63b8ff" d="M69.28,-109.79C69.03,-97.49 69.14,-74.34 72.58,-55 74.14,-46.23 76.94,-36.78 79.63,-28.85"/>
<polygon fill="#63b8ff" stroke="#63b8ff" points="83.01,-29.79 83.1,-19.2 76.43,-27.42 83.01,-29.79"/>
</a>
</g>
</g>
<!-- Node5&#45;&gt;Node2 -->
<g id="edge6_Node000005_Node000002" class="edge">
<title>Node5&#45;&gt;Node2</title>
<g id="a_edge6_Node000005_Node000002"><a xlink:title=" ">
<path fill="none" stroke="#63b8ff" d="M153.91,-109.98C138.48,-102.61 117.99,-90.52 105.58,-74 95.75,-60.92 90.97,-42.78 88.67,-29.24"/>
<polygon fill="#63b8ff" stroke="#63b8ff" points="92.12,-28.57 87.27,-19.15 85.18,-29.54 92.12,-28.57"/>
</a>
</g>
</g>
<!-- Node6&#45;&gt;Node1 -->
<g id="edge14_Node000006_Node000001" class="edge">
<title>Node6&#45;&gt;Node1</title>
<g id="a_edge14_Node000006_Node000001"><a xlink:title=" ">
<path fill="none" stroke="#63b8ff" d="M288.91,-129.17C281.62,-137.13 268.4,-149.11 256.58,-158.6"/>
<polygon fill="#63b8ff" stroke="#63b8ff" points="254.1,-156.1 248.33,-164.98 258.38,-161.63 254.1,-156.1"/>
</a>
</g>
</g>
<!-- Node7 -->
<g id="Node000007" class="node">
<title>Node7</title>
<g id="a_Node000007"><a xlink:href="NtcConversion_8h.html" target="_top" xlink:title="Mathematical conversion functions for NTC thermistor temperature calculation.">
<polygon fill="white" stroke="#666666" points="400.08,-74 303.08,-74 303.08,-55 400.08,-55 400.08,-74"/>
<text text-anchor="middle" x="351.58" y="-62" font-family="Helvetica,sans-Serif" font-size="10.00">NtcConversion.h</text>
</a>
</g>
</g>
<!-- Node6&#45;&gt;Node7 -->
<g id="edge8_Node000006_Node000007" class="edge">
<title>Node6&#45;&gt;Node7</title>
<g id="a_edge8_Node000006_Node000007"><a xlink:title=" ">
<path fill="none" stroke="#63b8ff" d="M302.89,-109.98C311.38,-102.23 324.13,-90.58 334.46,-81.14"/>
<polygon fill="#63b8ff" stroke="#63b8ff" points="337.07,-83.5 342.09,-74.17 332.34,-78.33 337.07,-83.5"/>
</a>
</g>
</g>
<!-- Node8 -->
<g id="Node000008" class="node">
<title>Node8</title>
<g id="a_Node000008"><a xlink:title=" ">
<polygon fill="#e0e0e0" stroke="#999999" points="413.08,-19 366.08,-19 366.08,0 413.08,0 413.08,-19"/>
<text text-anchor="middle" x="389.58" y="-7" font-family="Helvetica,sans-Serif" font-size="10.00">cmath</text>
</a>
</g>
</g>
<!-- Node6&#45;&gt;Node8 -->
<g id="edge16_Node000006_Node000008" class="edge">
<title>Node6&#45;&gt;Node8</title>
<g id="a_edge16_Node000006_Node000008"><a xlink:title=" ">
<path fill="none" stroke="#63b8ff" d="M353.04,-109.98C374.51,-103.71 396.62,-92.84 409.58,-74 419.26,-59.92 411.08,-40.91 402.45,-27.38"/>
<polygon fill="#63b8ff" stroke="#63b8ff" points="405.2,-25.21 396.61,-19 399.46,-29.21 405.2,-25.21"/>
</a>
</g>
</g>
<!-- Node9 -->
<g id="Node000009" class="node">
<title>Node9</title>
<g id="a_Node000009"><a xlink:href="NtcLookupTable_8h.html" target="_top" xlink:title="Lookup table implementation for NTC thermistor temperature conversion.">
<polygon fill="white" stroke="#666666" points="284.58,-74 182.58,-74 182.58,-55 284.58,-55 284.58,-74"/>
<text text-anchor="middle" x="233.58" y="-62" font-family="Helvetica,sans-Serif" font-size="10.00">NtcLookupTable.h</text>
</a>
</g>
</g>
<!-- Node6&#45;&gt;Node9 -->
<g id="edge11_Node000006_Node000009" class="edge">
<title>Node6&#45;&gt;Node9</title>
<g id="a_edge11_Node000006_Node000009"><a xlink:title=" ">
<path fill="none" stroke="#63b8ff" d="M283.94,-109.98C275.07,-102.15 261.7,-90.34 250.97,-80.86"/>
<polygon fill="#63b8ff" stroke="#63b8ff" points="253.2,-78.17 243.39,-74.17 248.57,-83.41 253.2,-78.17"/>
</a>
</g>
</g>
<!-- Node11 -->
<g id="Node000011" class="node">
<title>Node11</title>
<g id="a_Node000011"><a xlink:title=" ">
<polygon fill="#e0e0e0" stroke="#999999" points="520.58,-74 456.58,-74 456.58,-55 520.58,-55 520.58,-74"/>
<text text-anchor="middle" x="488.58" y="-62" font-family="Helvetica,sans-Serif" font-size="10.00">algorithm</text>
</a>
</g>
</g>
<!-- Node6&#45;&gt;Node11 -->
<g id="edge15_Node000006_Node000011" class="edge">
<title>Node6&#45;&gt;Node11</title>
<g id="a_edge15_Node000006_Node000011"><a xlink:title=" ">
<path fill="none" stroke="#63b8ff" d="M324.91,-109.98C358.07,-100.97 410.57,-86.7 447.14,-76.76"/>
<polygon fill="#63b8ff" stroke="#63b8ff" points="448.27,-80.08 457,-74.08 446.43,-73.33 448.27,-80.08"/>
</a>
</g>
</g>
<!-- Node12 -->
<g id="Node000012" class="node">
<title>Node12</title>
<g id="a_Node000012"><a xlink:title=" ">
<polygon fill="#e0e0e0" stroke="#999999" points="164.58,-74 114.58,-74 114.58,-55 164.58,-55 164.58,-74"/>
<text text-anchor="middle" x="139.58" y="-62" font-family="Helvetica,sans-Serif" font-size="10.00">cstring</text>
</a>
</g>
</g>
<!-- Node6&#45;&gt;Node12 -->
<g id="edge17_Node000006_Node000012" class="edge">
<title>Node6&#45;&gt;Node12</title>
<g id="a_edge17_Node000006_Node000012"><a xlink:title=" ">
<path fill="none" stroke="#63b8ff" d="M268.83,-109.98C243.2,-101.16 202.94,-87.31 174.17,-77.41"/>
<polygon fill="#63b8ff" stroke="#63b8ff" points="175.11,-74.03 164.51,-74.08 172.83,-80.65 175.11,-74.03"/>
</a>
</g>
</g>
<!-- Node7&#45;&gt;Node2 -->
<g id="edge10_Node000007_Node000002" class="edge">
<title>Node7&#45;&gt;Node2</title>
<g id="a_edge10_Node000007_Node000002"><a xlink:title=" ">
<path fill="none" stroke="#63b8ff" d="M309,-54.98C257.07,-44.6 170.24,-27.23 121.86,-17.56"/>
<polygon fill="#63b8ff" stroke="#63b8ff" points="122.35,-14.09 111.86,-15.56 120.98,-20.95 122.35,-14.09"/>
</a>
</g>
</g>
<!-- Node7&#45;&gt;Node8 -->
<g id="edge9_Node000007_Node000008" class="edge">
<title>Node7&#45;&gt;Node8</title>
<g id="a_edge9_Node000007_Node000008"><a xlink:title=" ">
<path fill="none" stroke="#63b8ff" d="M357.85,-54.75C363.16,-47.34 370.93,-36.5 377.45,-27.41"/>
<polygon fill="#63b8ff" stroke="#63b8ff" points="380.43,-29.26 383.42,-19.09 374.75,-25.18 380.43,-29.26"/>
</a>
</g>
</g>
<!-- Node9&#45;&gt;Node2 -->
<g id="edge13_Node000009_Node000002" class="edge">
<title>Node9&#45;&gt;Node2</title>
<g id="a_edge13_Node000009_Node000002"><a xlink:title=" ">
<path fill="none" stroke="#63b8ff" d="M209.96,-54.98C185.67,-46.23 147.63,-32.51 120.2,-22.62"/>
<polygon fill="#63b8ff" stroke="#63b8ff" points="121.22,-19.27 110.62,-19.17 118.84,-25.85 121.22,-19.27"/>
</a>
</g>
</g>
<!-- Node10 -->
<g id="Node000010" class="node">
<title>Node10</title>
<g id="a_Node000010"><a xlink:title=" ">
<polygon fill="#e0e0e0" stroke="#999999" points="260.08,-19 207.08,-19 207.08,0 260.08,0 260.08,-19"/>
<text text-anchor="middle" x="233.58" y="-7" font-family="Helvetica,sans-Serif" font-size="10.00">cstddef</text>
</a>
</g>
</g>
<!-- Node9&#45;&gt;Node10 -->
<g id="edge12_Node000009_Node000010" class="edge">
<title>Node9&#45;&gt;Node10</title>
<g id="a_edge12_Node000009_Node000010"><a xlink:title=" ">
<path fill="none" stroke="#63b8ff" d="M233.58,-54.75C233.58,-47.8 233.58,-37.85 233.58,-29.13"/>
<polygon fill="#63b8ff" stroke="#63b8ff" points="237.08,-29.09 233.58,-19.09 230.08,-29.09 237.08,-29.09"/>
</a>
</g>
</g>
</g>
</svg>
