<?xml version="1.0" encoding="UTF-8" standalone="no"?>
<!DOCTYPE svg PUBLIC "-//W3C//DTD SVG 1.1//EN"
 "http://www.w3.org/Graphics/SVG/1.1/DTD/svg11.dtd">
<!-- Generated by graphviz version 2.43.0 (0)
 -->
<!-- Title: src/NtcThermistor.cpp Pages: 1 -->
<svg width="537pt" height="192pt"
 viewBox="0.00 0.00 537.19 192.00" xmlns="http://www.w3.org/2000/svg" xmlns:xlink="http://www.w3.org/1999/xlink">
<g id="graph0" class="graph" transform="scale(1 1) rotate(0) translate(4 188)">
<title>src/NtcThermistor.cpp</title>
<!-- Node1 -->
<g id="Node000001" class="node">
<title>Node1</title>
<g id="a_Node000001"><a xlink:title="Hardware&#45;agnostic NTC thermistor driver implementation.">
<polygon fill="#999999" stroke="#666666" points="349.69,-184 226.69,-184 226.69,-165 349.69,-165 349.69,-184"/>
<text text-anchor="middle" x="288.19" y="-172" font-family="Helvetica,sans-Serif" font-size="10.00">src/NtcThermistor.cpp</text>
</a>
</g>
</g>
<!-- Node2 -->
<g id="Node000002" class="node">
<title>Node2</title>
<g id="a_Node000002"><a xlink:href="NtcThermistor_8h.html" target="_top" xlink:title="Hardware&#45;agnostic NTC thermistor driver for temperature measurement.">
<polygon fill="white" stroke="#666666" points="103.69,-129 8.69,-129 8.69,-110 103.69,-110 103.69,-129"/>
<text text-anchor="middle" x="56.19" y="-117" font-family="Helvetica,sans-Serif" font-size="10.00">NtcThermistor.h</text>
</a>
</g>
</g>
<!-- Node1&#45;&gt;Node2 -->
<g id="edge1_Node000001_Node000002" class="edge">
<title>Node1&#45;&gt;Node2</title>
<g id="a_edge1_Node000001_Node000002"><a xlink:title=" ">
<path fill="none" stroke="#63b8ff" d="M250.92,-164.98C210.87,-155.84 147.12,-141.27 103.55,-131.32"/>
<polygon fill="#63b8ff" stroke="#63b8ff" points="104.29,-127.9 93.76,-129.08 102.73,-134.72 104.29,-127.9"/>
</a>
</g>
</g>
<!-- Node6 -->
<g id="Node000006" class="node">
<title>Node6</title>
<g id="a_Node000006"><a xlink:href="NtcConversion_8h.html" target="_top" xlink:title="Mathematical conversion functions for NTC thermistor temperature calculation.">
<polygon fill="white" stroke="#666666" points="220.69,-129 123.69,-129 123.69,-110 220.69,-110 220.69,-129"/>
<text text-anchor="middle" x="172.19" y="-117" font-family="Helvetica,sans-Serif" font-size="10.00">NtcConversion.h</text>
</a>
</g>
</g>
<!-- Node1&#45;&gt;Node6 -->
<g id="edge6_Node000001_Node000006" class="edge">
<title>Node1&#45;&gt;Node6</title>
<g id="a_edge6_Node000001_Node000006"><a xlink:title=" ">
<path fill="none" stroke="#63b8ff" d="M269.55,-164.98C250.89,-156.46 221.94,-143.23 200.45,-133.41"/>
<polygon fill="#63b8ff" stroke="#63b8ff" points="201.72,-130.14 191.17,-129.17 198.81,-136.51 201.72,-130.14"/>
</a>
</g>
</g>
<!-- Node7 -->
<g id="Node000007" class="node">
<title>Node7</title>
<g id="a_Node000007"><a xlink:title=" ">
<polygon fill="#e0e0e0" stroke="#999999" points="260.69,-74 213.69,-74 213.69,-55 260.69,-55 260.69,-74"/>
<text text-anchor="middle" x="237.19" y="-62" font-family="Helvetica,sans-Serif" font-size="10.00">cmath</text>
</a>
</g>
</g>
<!-- Node1&#45;&gt;Node7 -->
<g id="edge13_Node000001_Node000007" class="edge">
<title>Node1&#45;&gt;Node7</title>
<g id="a_edge13_Node000001_Node000007"><a xlink:title=" ">
<path fill="none" stroke="#63b8ff" d="M284.02,-164.66C275.64,-146.93 256.66,-106.73 245.6,-83.32"/>
<polygon fill="#63b8ff" stroke="#63b8ff" points="248.71,-81.71 241.28,-74.16 242.38,-84.7 248.71,-81.71"/>
</a>
</g>
</g>
<!-- Node8 -->
<g id="Node000008" class="node">
<title>Node8</title>
<g id="a_Node000008"><a xlink:href="NtcLookupTable_8h.html" target="_top" xlink:title="Lookup table implementation for NTC thermistor temperature conversion.">
<polygon fill="white" stroke="#666666" points="379.19,-129 277.19,-129 277.19,-110 379.19,-110 379.19,-129"/>
<text text-anchor="middle" x="328.19" y="-117" font-family="Helvetica,sans-Serif" font-size="10.00">NtcLookupTable.h</text>
</a>
</g>
</g>
<!-- Node1&#45;&gt;Node8 -->
<g id="edge9_Node000001_Node000008" class="edge">
<title>Node1&#45;&gt;Node8</title>
<g id="a_edge9_Node000001_Node000008"><a xlink:title=" ">
<path fill="none" stroke="#63b8ff" d="M294.8,-164.75C300.45,-157.26 308.73,-146.28 315.64,-137.13"/>
<polygon fill="#63b8ff" stroke="#63b8ff" points="318.48,-139.18 321.71,-129.09 312.89,-134.96 318.48,-139.18"/>
</a>
</g>
</g>
<!-- Node10 -->
<g id="Node000010" class="node">
<title>Node10</title>
<g id="a_Node000010"><a xlink:title=" ">
<polygon fill="#e0e0e0" stroke="#999999" points="461.19,-129 397.19,-129 397.19,-110 461.19,-110 461.19,-129"/>
<text text-anchor="middle" x="429.19" y="-117" font-family="Helvetica,sans-Serif" font-size="10.00">algorithm</text>
</a>
</g>
</g>
<!-- Node1&#45;&gt;Node10 -->
<g id="edge12_Node000001_Node000010" class="edge">
<title>Node1&#45;&gt;Node10</title>
<g id="a_edge12_Node000001_Node000010"><a xlink:title=" ">
<path fill="none" stroke="#63b8ff" d="M310.84,-164.98C334.04,-156.27 370.31,-142.63 396.59,-132.75"/>
<polygon fill="#63b8ff" stroke="#63b8ff" points="397.99,-135.97 406.12,-129.17 395.53,-129.41 397.99,-135.97"/>
</a>
</g>
</g>
<!-- Node11 -->
<g id="Node000011" class="node">
<title>Node11</title>
<g id="a_Node000011"><a xlink:title=" ">
<polygon fill="#e0e0e0" stroke="#999999" points="529.19,-129 479.19,-129 479.19,-110 529.19,-110 529.19,-129"/>
<text text-anchor="middle" x="504.19" y="-117" font-family="Helvetica,sans-Serif" font-size="10.00">cstring</text>
</a>
</g>
</g>
<!-- Node1&#45;&gt;Node11 -->
<g id="edge14_Node000001_Node000011" class="edge">
<title>Node1&#45;&gt;Node11</title>
<g id="a_edge14_Node000001_Node000011"><a xlink:title=" ">
<path fill="none" stroke="#63b8ff" d="M323.43,-164.94C358.1,-156.51 412.8,-143.17 469.15,-129.25"/>
<polygon fill="#63b8ff" stroke="#63b8ff" points="470.07,-132.62 478.94,-126.83 468.39,-125.83 470.07,-132.62"/>
</a>
</g>
</g>
<!-- Node3 -->
<g id="Node000003" class="node">
<title>Node3</title>
<g id="a_Node000003"><a xlink:title=" ">
<polygon fill="#e0e0e0" stroke="#999999" points="179.19,-19 129.19,-19 129.19,0 179.19,0 179.19,-19"/>
<text text-anchor="middle" x="154.19" y="-7" font-family="Helvetica,sans-Serif" font-size="10.00">cstdint</text>
</a>
</g>
</g>
<!-- Node2&#45;&gt;Node3 -->
<g id="edge2_Node000002_Node000003" class="edge">
<title>Node2&#45;&gt;Node3</title>
<g id="a_edge2_Node000002_Node000003"><a xlink:title=" ">
<path fill="none" stroke="#63b8ff" d="M40.08,-109.87C19.74,-97.83 -10.9,-75.21 4.19,-55 30.4,-19.89 83.14,-11.35 118.56,-9.85"/>
<polygon fill="#63b8ff" stroke="#63b8ff" points="119.05,-13.34 128.95,-9.58 118.87,-6.34 119.05,-13.34"/>
</a>
</g>
</g>
<!-- Node4 -->
<g id="Node000004" class="node">
<title>Node4</title>
<g id="a_Node000004"><a xlink:title=" ">
<polygon fill="#e0e0e0" stroke="#999999" points="71.19,-74 13.19,-74 13.19,-55 71.19,-55 71.19,-74"/>
<text text-anchor="middle" x="42.19" y="-62" font-family="Helvetica,sans-Serif" font-size="10.00">memory</text>
</a>
</g>
</g>
<!-- Node2&#45;&gt;Node4 -->
<g id="edge3_Node000002_Node000004" class="edge">
<title>Node2&#45;&gt;Node4</title>
<g id="a_edge3_Node000002_Node000004"><a xlink:title=" ">
<path fill="none" stroke="#63b8ff" d="M53.88,-109.75C52.02,-102.72 49.35,-92.62 47.04,-83.84"/>
<polygon fill="#63b8ff" stroke="#63b8ff" points="50.4,-82.86 44.46,-74.09 43.63,-84.65 50.4,-82.86"/>
</a>
</g>
</g>
<!-- Node5 -->
<g id="Node000005" class="node">
<title>Node5</title>
<g id="a_Node000005"><a xlink:href="BaseAdc_8h.html" target="_top" xlink:title="Abstract base class for ADC interface used by NTC thermistor driver.">
<polygon fill="white" stroke="#666666" points="157.19,-74 89.19,-74 89.19,-55 157.19,-55 157.19,-74"/>
<text text-anchor="middle" x="123.19" y="-62" font-family="Helvetica,sans-Serif" font-size="10.00">BaseAdc.h</text>
</a>
</g>
</g>
<!-- Node2&#45;&gt;Node5 -->
<g id="edge4_Node000002_Node000005" class="edge">
<title>Node2&#45;&gt;Node5</title>
<g id="a_edge4_Node000002_Node000005"><a xlink:title=" ">
<path fill="none" stroke="#63b8ff" d="M66.95,-109.98C76.96,-102.07 92.08,-90.11 104.12,-80.58"/>
<polygon fill="#63b8ff" stroke="#63b8ff" points="106.56,-83.12 112.23,-74.17 102.22,-77.63 106.56,-83.12"/>
</a>
</g>
</g>
<!-- Node5&#45;&gt;Node3 -->
<g id="edge5_Node000005_Node000003" class="edge">
<title>Node5&#45;&gt;Node3</title>
<g id="a_edge5_Node000005_Node000003"><a xlink:title=" ">
<path fill="none" stroke="#63b8ff" d="M128.31,-54.75C132.55,-47.49 138.72,-36.95 143.97,-27.98"/>
<polygon fill="#63b8ff" stroke="#63b8ff" points="147.14,-29.49 149.17,-19.09 141.1,-25.95 147.14,-29.49"/>
</a>
</g>
</g>
<!-- Node6&#45;&gt;Node3 -->
<g id="edge8_Node000006_Node000003" class="edge">
<title>Node6&#45;&gt;Node3</title>
<g id="a_edge8_Node000006_Node000003"><a xlink:title=" ">
<path fill="none" stroke="#63b8ff" d="M171.83,-109.81C171.23,-97.52 169.7,-74.4 166.19,-55 164.62,-46.34 162.19,-36.9 159.92,-28.96"/>
<polygon fill="#63b8ff" stroke="#63b8ff" points="163.24,-27.85 157.03,-19.27 156.53,-29.85 163.24,-27.85"/>
</a>
</g>
</g>
<!-- Node6&#45;&gt;Node7 -->
<g id="edge7_Node000006_Node000007" class="edge">
<title>Node6&#45;&gt;Node7</title>
<g id="a_edge7_Node000006_Node000007"><a xlink:title=" ">
<path fill="none" stroke="#63b8ff" d="M182.63,-109.98C192.34,-102.07 207.01,-90.11 218.69,-80.58"/>
<polygon fill="#63b8ff" stroke="#63b8ff" points="221.02,-83.2 226.56,-74.17 216.59,-77.78 221.02,-83.2"/>
</a>
</g>
</g>
<!-- Node8&#45;&gt;Node3 -->
<g id="edge11_Node000008_Node000003" class="edge">
<title>Node8&#45;&gt;Node3</title>
<g id="a_edge11_Node000008_Node000003"><a xlink:title=" ">
<path fill="none" stroke="#63b8ff" d="M322.25,-109.94C312.56,-96.54 292.11,-70.54 269.19,-55 244.69,-38.39 213.11,-26.75 189.25,-19.54"/>
<polygon fill="#63b8ff" stroke="#63b8ff" points="190.11,-16.15 179.54,-16.73 188.17,-22.87 190.11,-16.15"/>
</a>
</g>
</g>
<!-- Node9 -->
<g id="Node000009" class="node">
<title>Node9</title>
<g id="a_Node000009"><a xlink:title=" ">
<polygon fill="#e0e0e0" stroke="#999999" points="370.69,-74 317.69,-74 317.69,-55 370.69,-55 370.69,-74"/>
<text text-anchor="middle" x="344.19" y="-62" font-family="Helvetica,sans-Serif" font-size="10.00">cstddef</text>
</a>
</g>
</g>
<!-- Node8&#45;&gt;Node9 -->
<g id="edge10_Node000008_Node000009" class="edge">
<title>Node8&#45;&gt;Node9</title>
<g id="a_edge10_Node000008_Node000009"><a xlink:title=" ">
<path fill="none" stroke="#63b8ff" d="M330.83,-109.75C332.95,-102.72 336,-92.62 338.65,-83.84"/>
<polygon fill="#63b8ff" stroke="#63b8ff" points="342.06,-84.67 341.6,-74.09 335.36,-82.65 342.06,-84.67"/>
</a>
</g>
</g>
</g>
</svg>
