<?xml version="1.0" encoding="UTF-8" standalone="no"?>
<!DOCTYPE svg PUBLIC "-//W3C//DTD SVG 1.1//EN"
 "http://www.w3.org/Graphics/SVG/1.1/DTD/svg11.dtd">
<!-- Generated by graphviz version 2.43.0 (0)
 -->
<!-- Title: inc/NtcThermistor.h Pages: 1 -->
<svg width="179pt" height="137pt"
 viewBox="0.00 0.00 179.00 137.00" xmlns="http://www.w3.org/2000/svg" xmlns:xlink="http://www.w3.org/1999/xlink">
<g id="graph0" class="graph" transform="scale(1 1) rotate(0) translate(4 133)">
<title>inc/NtcThermistor.h</title>
<!-- Node1 -->
<g id="Node000001" class="node">
<title>Node1</title>
<g id="a_Node000001"><a xlink:title="Hardware&#45;agnostic NTC thermistor driver for temperature measurement.">
<polygon fill="#999999" stroke="#666666" points="112,-129 0,-129 0,-110 112,-110 112,-129"/>
<text text-anchor="middle" x="56" y="-117" font-family="Helvetica,sans-Serif" font-size="10.00">inc/NtcThermistor.h</text>
</a>
</g>
</g>
<!-- Node2 -->
<g id="Node000002" class="node">
<title>Node2</title>
<g id="a_Node000002"><a xlink:title=" ">
<polygon fill="#e0e0e0" stroke="#999999" points="93,-19 43,-19 43,0 93,0 93,-19"/>
<text text-anchor="middle" x="68" y="-7" font-family="Helvetica,sans-Serif" font-size="10.00">cstdint</text>
</a>
</g>
</g>
<!-- Node1&#45;&gt;Node2 -->
<g id="edge1_Node000001_Node000002" class="edge">
<title>Node1&#45;&gt;Node2</title>
<g id="a_edge1_Node000001_Node000002"><a xlink:title=" ">
<path fill="none" stroke="#63b8ff" d="M44.47,-109.82C30.18,-97.91 8.74,-75.63 18,-55 23.5,-42.74 34.23,-32.48 44.35,-24.91"/>
<polygon fill="#63b8ff" stroke="#63b8ff" points="46.35,-27.78 52.57,-19.2 42.36,-22.03 46.35,-27.78"/>
</a>
</g>
</g>
<!-- Node3 -->
<g id="Node000003" class="node">
<title>Node3</title>
<g id="a_Node000003"><a xlink:title=" ">
<polygon fill="#e0e0e0" stroke="#999999" points="85,-74 27,-74 27,-55 85,-55 85,-74"/>
<text text-anchor="middle" x="56" y="-62" font-family="Helvetica,sans-Serif" font-size="10.00">memory</text>
</a>
</g>
</g>
<!-- Node1&#45;&gt;Node3 -->
<g id="edge2_Node000001_Node000003" class="edge">
<title>Node1&#45;&gt;Node3</title>
<g id="a_edge2_Node000001_Node000003"><a xlink:title=" ">
<path fill="none" stroke="#63b8ff" d="M56,-109.75C56,-102.8 56,-92.85 56,-84.13"/>
<polygon fill="#63b8ff" stroke="#63b8ff" points="59.5,-84.09 56,-74.09 52.5,-84.09 59.5,-84.09"/>
</a>
</g>
</g>
<!-- Node4 -->
<g id="Node000004" class="node">
<title>Node4</title>
<g id="a_Node000004"><a xlink:href="BaseAdc_8h.html" target="_top" xlink:title="Abstract base class for ADC interface used by NTC thermistor driver.">
<polygon fill="white" stroke="#666666" points="171,-74 103,-74 103,-55 171,-55 171,-74"/>
<text text-anchor="middle" x="137" y="-62" font-family="Helvetica,sans-Serif" font-size="10.00">BaseAdc.h</text>
</a>
</g>
</g>
<!-- Node1&#45;&gt;Node4 -->
<g id="edge3_Node000001_Node000004" class="edge">
<title>Node1&#45;&gt;Node4</title>
<g id="a_edge3_Node000001_Node000004"><a xlink:title=" ">
<path fill="none" stroke="#63b8ff" d="M69.01,-109.98C81.46,-101.84 100.46,-89.41 115.21,-79.76"/>
<polygon fill="#63b8ff" stroke="#63b8ff" points="117.3,-82.57 123.75,-74.17 113.46,-76.72 117.3,-82.57"/>
</a>
</g>
</g>
<!-- Node4&#45;&gt;Node2 -->
<g id="edge4_Node000004_Node000002" class="edge">
<title>Node4&#45;&gt;Node2</title>
<g id="a_edge4_Node000004_Node000002"><a xlink:title=" ">
<path fill="none" stroke="#63b8ff" d="M125.91,-54.98C115.51,-47 99.74,-34.88 87.28,-25.31"/>
<polygon fill="#63b8ff" stroke="#63b8ff" points="89.35,-22.49 79.29,-19.17 85.09,-28.04 89.35,-22.49"/>
</a>
</g>
</g>
</g>
</svg>
