<?xml version="1.0" encoding="UTF-8" standalone="no"?>
<!DOCTYPE svg PUBLIC "-//W3C//DTD SVG 1.1//EN"
 "http://www.w3.org/Graphics/SVG/1.1/DTD/svg11.dtd">
<!-- Generated by graphviz version 2.43.0 (0)
 -->
<!-- Title: src/NtcThermistor.cpp Pages: 1 -->
<svg width="553pt" height="192pt"
 viewBox="0.00 0.00 552.50 192.00" xmlns="http://www.w3.org/2000/svg" xmlns:xlink="http://www.w3.org/1999/xlink">
<g id="graph0" class="graph" transform="scale(1 1) rotate(0) translate(4 188)">
<title>src/NtcThermistor.cpp</title>
<!-- Node1 -->
<g id="Node000001" class="node">
<title>Node1</title>
<g id="a_Node000001"><a xlink:title="Hardware&#45;agnostic NTC thermistor driver implementation.">
<polygon fill="#999999" stroke="#666666" points="372,-184 249,-184 249,-165 372,-165 372,-184"/>
<text text-anchor="middle" x="310.5" y="-172" font-family="Helvetica,sans-Serif" font-size="10.00">src/NtcThermistor.cpp</text>
</a>
</g>
</g>
<!-- Node2 -->
<g id="Node000002" class="node">
<title>Node2</title>
<g id="a_Node000002"><a xlink:href="NtcConversion_8h.html" target="_top" xlink:title="Mathematical conversion functions for NTC thermistor temperature calculation.">
<polygon fill="white" stroke="#666666" points="124,-129 27,-129 27,-110 124,-110 124,-129"/>
<text text-anchor="middle" x="75.5" y="-117" font-family="Helvetica,sans-Serif" font-size="10.00">NtcConversion.h</text>
</a>
</g>
</g>
<!-- Node1&#45;&gt;Node2 -->
<g id="edge1_Node000001_Node000002" class="edge">
<title>Node1&#45;&gt;Node2</title>
<g id="a_edge1_Node000001_Node000002"><a xlink:title=" ">
<path fill="none" stroke="#63b8ff" d="M272.74,-164.98C232.18,-155.84 167.61,-141.27 123.47,-131.32"/>
<polygon fill="#63b8ff" stroke="#63b8ff" points="124.08,-127.87 113.55,-129.08 122.54,-134.7 124.08,-127.87"/>
</a>
</g>
</g>
<!-- Node3 -->
<g id="Node000003" class="node">
<title>Node3</title>
<g id="a_Node000003"><a xlink:title=" ">
<polygon fill="#e0e0e0" stroke="#999999" points="47,-74 0,-74 0,-55 47,-55 47,-74"/>
<text text-anchor="middle" x="23.5" y="-62" font-family="Helvetica,sans-Serif" font-size="10.00">cmath</text>
</a>
</g>
</g>
<!-- Node1&#45;&gt;Node3 -->
<g id="edge16_Node000001_Node000003" class="edge">
<title>Node1&#45;&gt;Node3</title>
<g id="a_edge16_Node000001_Node000003"><a xlink:title=" ">
<path fill="none" stroke="#63b8ff" d="M248.89,-173.18C171.91,-171.33 46.72,-162.99 17.5,-129 6.92,-116.69 10.42,-97.65 15.35,-83.63"/>
<polygon fill="#63b8ff" stroke="#63b8ff" points="18.71,-84.66 19.19,-74.08 12.22,-82.05 18.71,-84.66"/>
</a>
</g>
</g>
<!-- Node5 -->
<g id="Node000005" class="node">
<title>Node5</title>
<g id="a_Node000005"><a xlink:href="NtcLookupTable_8h.html" target="_top" xlink:title="Lookup table implementation for NTC thermistor temperature conversion.">
<polygon fill="white" stroke="#666666" points="244.5,-129 142.5,-129 142.5,-110 244.5,-110 244.5,-129"/>
<text text-anchor="middle" x="193.5" y="-117" font-family="Helvetica,sans-Serif" font-size="10.00">NtcLookupTable.h</text>
</a>
</g>
</g>
<!-- Node1&#45;&gt;Node5 -->
<g id="edge4_Node000001_Node000005" class="edge">
<title>Node1&#45;&gt;Node5</title>
<g id="a_edge4_Node000001_Node000005"><a xlink:title=" ">
<path fill="none" stroke="#63b8ff" d="M291.7,-164.98C272.88,-156.46 243.68,-143.23 222,-133.41"/>
<polygon fill="#63b8ff" stroke="#63b8ff" points="223.19,-130.11 212.64,-129.17 220.3,-136.48 223.19,-130.11"/>
</a>
</g>
</g>
<!-- Node7 -->
<g id="Node000007" class="node">
<title>Node7</title>
<g id="a_Node000007"><a xlink:href="NtcThermistor_8h.html" target="_top" xlink:title="Hardware&#45;agnostic NTC thermistor driver for temperature measurement.">
<polygon fill="white" stroke="#666666" points="358,-129 263,-129 263,-110 358,-110 358,-129"/>
<text text-anchor="middle" x="310.5" y="-117" font-family="Helvetica,sans-Serif" font-size="10.00">NtcThermistor.h</text>
</a>
</g>
</g>
<!-- Node1&#45;&gt;Node7 -->
<g id="edge7_Node000001_Node000007" class="edge">
<title>Node1&#45;&gt;Node7</title>
<g id="a_edge7_Node000001_Node000007"><a xlink:title=" ">
<path fill="none" stroke="#63b8ff" d="M305.33,-164.75C303.84,-157.8 303.4,-147.85 304.02,-139.13"/>
<polygon fill="#63b8ff" stroke="#63b8ff" points="307.51,-139.47 305.37,-129.09 300.57,-138.53 307.51,-139.47"/>
</a>
</g>
</g>
<!-- Node11 -->
<g id="Node000011" class="node">
<title>Node11</title>
<g id="a_Node000011"><a xlink:title=" ">
<polygon fill="#e0e0e0" stroke="#999999" points="440.5,-129 376.5,-129 376.5,-110 440.5,-110 440.5,-129"/>
<text text-anchor="middle" x="408.5" y="-117" font-family="Helvetica,sans-Serif" font-size="10.00">algorithm</text>
</a>
</g>
</g>
<!-- Node1&#45;&gt;Node11 -->
<g id="edge15_Node000001_Node000011" class="edge">
<title>Node1&#45;&gt;Node11</title>
<g id="a_edge15_Node000001_Node000011"><a xlink:title=" ">
<path fill="none" stroke="#63b8ff" d="M326.25,-164.98C341.73,-156.61 365.59,-143.7 383.64,-133.95"/>
<polygon fill="#63b8ff" stroke="#63b8ff" points="385.34,-137.01 392.47,-129.17 382.01,-130.85 385.34,-137.01"/>
</a>
</g>
</g>
<!-- Node12 -->
<g id="Node000012" class="node">
<title>Node12</title>
<g id="a_Node000012"><a xlink:title=" ">
<polygon fill="#e0e0e0" stroke="#999999" points="508.5,-129 458.5,-129 458.5,-110 508.5,-110 508.5,-129"/>
<text text-anchor="middle" x="483.5" y="-117" font-family="Helvetica,sans-Serif" font-size="10.00">cstring</text>
</a>
</g>
</g>
<!-- Node1&#45;&gt;Node12 -->
<g id="edge17_Node000001_Node000012" class="edge">
<title>Node1&#45;&gt;Node12</title>
<g id="a_edge17_Node000001_Node000012"><a xlink:title=" ">
<path fill="none" stroke="#63b8ff" d="M338.3,-164.98C368.2,-155.82 415.84,-141.23 448.33,-131.27"/>
<polygon fill="#63b8ff" stroke="#63b8ff" points="449.77,-134.49 458.31,-128.22 447.72,-127.8 449.77,-134.49"/>
</a>
</g>
</g>
<!-- Node2&#45;&gt;Node3 -->
<g id="edge2_Node000002_Node000003" class="edge">
<title>Node2&#45;&gt;Node3</title>
<g id="a_edge2_Node000002_Node000003"><a xlink:title=" ">
<path fill="none" stroke="#63b8ff" d="M66.91,-109.75C59.34,-102.03 48.12,-90.6 38.99,-81.28"/>
<polygon fill="#63b8ff" stroke="#63b8ff" points="41.43,-78.78 31.93,-74.09 36.43,-83.68 41.43,-78.78"/>
</a>
</g>
</g>
<!-- Node4 -->
<g id="Node000004" class="node">
<title>Node4</title>
<g id="a_Node000004"><a xlink:title=" ">
<polygon fill="#e0e0e0" stroke="#999999" points="273.5,-19 223.5,-19 223.5,0 273.5,0 273.5,-19"/>
<text text-anchor="middle" x="248.5" y="-7" font-family="Helvetica,sans-Serif" font-size="10.00">cstdint</text>
</a>
</g>
</g>
<!-- Node2&#45;&gt;Node4 -->
<g id="edge3_Node000002_Node000004" class="edge">
<title>Node2&#45;&gt;Node4</title>
<g id="a_edge3_Node000002_Node000004"><a xlink:title=" ">
<path fill="none" stroke="#63b8ff" d="M84.1,-109.81C97.43,-96.7 124.26,-71.61 150.5,-55 171.03,-42 195.99,-30.73 215.58,-22.78"/>
<polygon fill="#63b8ff" stroke="#63b8ff" points="217,-25.98 225,-19.04 214.42,-19.48 217,-25.98"/>
</a>
</g>
</g>
<!-- Node5&#45;&gt;Node4 -->
<g id="edge6_Node000005_Node000004" class="edge">
<title>Node5&#45;&gt;Node4</title>
<g id="a_edge6_Node000005_Node000004"><a xlink:title=" ">
<path fill="none" stroke="#63b8ff" d="M182.18,-109.74C167.63,-97.36 145.56,-74.14 157.5,-55 169.69,-35.47 193.2,-24.28 213.27,-18.01"/>
<polygon fill="#63b8ff" stroke="#63b8ff" points="214.41,-21.32 223.08,-15.23 212.5,-14.59 214.41,-21.32"/>
</a>
</g>
</g>
<!-- Node6 -->
<g id="Node000006" class="node">
<title>Node6</title>
<g id="a_Node000006"><a xlink:title=" ">
<polygon fill="#e0e0e0" stroke="#999999" points="220,-74 167,-74 167,-55 220,-55 220,-74"/>
<text text-anchor="middle" x="193.5" y="-62" font-family="Helvetica,sans-Serif" font-size="10.00">cstddef</text>
</a>
</g>
</g>
<!-- Node5&#45;&gt;Node6 -->
<g id="edge5_Node000005_Node000006" class="edge">
<title>Node5&#45;&gt;Node6</title>
<g id="a_edge5_Node000005_Node000006"><a xlink:title=" ">
<path fill="none" stroke="#63b8ff" d="M193.5,-109.75C193.5,-102.8 193.5,-92.85 193.5,-84.13"/>
<polygon fill="#63b8ff" stroke="#63b8ff" points="197,-84.09 193.5,-74.09 190,-84.09 197,-84.09"/>
</a>
</g>
</g>
<!-- Node7&#45;&gt;Node1 -->
<g id="edge14_Node000007_Node000001" class="edge">
<title>Node7&#45;&gt;Node1</title>
<g id="a_edge14_Node000007_Node000001"><a xlink:title=" ">
<path fill="none" stroke="#63b8ff" d="M315.63,-129.09C317.14,-135.99 317.59,-145.93 316.99,-154.66"/>
<polygon fill="#63b8ff" stroke="#63b8ff" points="313.5,-154.38 315.67,-164.75 320.44,-155.29 313.5,-154.38"/>
</a>
</g>
</g>
<!-- Node7&#45;&gt;Node4 -->
<g id="edge8_Node000007_Node000004" class="edge">
<title>Node7&#45;&gt;Node4</title>
<g id="a_edge8_Node000007_Node000004"><a xlink:title=" ">
<path fill="none" stroke="#63b8ff" d="M299.44,-109.74C289.72,-101.48 275.86,-88.28 267.5,-74 259.41,-60.17 254.5,-42.61 251.7,-29.45"/>
<polygon fill="#63b8ff" stroke="#63b8ff" points="255.07,-28.41 249.76,-19.24 248.19,-29.72 255.07,-28.41"/>
</a>
</g>
</g>
<!-- Node8 -->
<g id="Node000008" class="node">
<title>Node8</title>
<g id="a_Node000008"><a xlink:title=" ">
<polygon fill="#e0e0e0" stroke="#999999" points="334.5,-74 276.5,-74 276.5,-55 334.5,-55 334.5,-74"/>
<text text-anchor="middle" x="305.5" y="-62" font-family="Helvetica,sans-Serif" font-size="10.00">memory</text>
</a>
</g>
</g>
<!-- Node7&#45;&gt;Node8 -->
<g id="edge9_Node000007_Node000008" class="edge">
<title>Node7&#45;&gt;Node8</title>
<g id="a_edge9_Node000007_Node000008"><a xlink:title=" ">
<path fill="none" stroke="#63b8ff" d="M309.67,-109.75C309.02,-102.8 308.08,-92.85 307.26,-84.13"/>
<polygon fill="#63b8ff" stroke="#63b8ff" points="310.73,-83.72 306.31,-74.09 303.77,-84.37 310.73,-83.72"/>
</a>
</g>
</g>
<!-- Node9 -->
<g id="Node000009" class="node">
<title>Node9</title>
<g id="a_Node000009"><a xlink:href="NtcAdcInterface_8h.html" target="_top" xlink:title="CRTP&#45;based template interface for ADC used by NTC thermistor driver.">
<polygon fill="white" stroke="#666666" points="456.5,-74 352.5,-74 352.5,-55 456.5,-55 456.5,-74"/>
<text text-anchor="middle" x="404.5" y="-62" font-family="Helvetica,sans-Serif" font-size="10.00">NtcAdcInterface.h</text>
</a>
</g>
</g>
<!-- Node7&#45;&gt;Node9 -->
<g id="edge10_Node000007_Node000009" class="edge">
<title>Node7&#45;&gt;Node9</title>
<g id="a_edge10_Node000007_Node000009"><a xlink:title=" ">
<path fill="none" stroke="#63b8ff" d="M325.6,-109.98C340.32,-101.69 362.92,-88.94 380.17,-79.22"/>
<polygon fill="#63b8ff" stroke="#63b8ff" points="382.13,-82.13 389.12,-74.17 378.69,-76.03 382.13,-82.13"/>
</a>
</g>
</g>
<!-- Node10 -->
<g id="Node000010" class="node">
<title>Node10</title>
<g id="a_Node000010"><a xlink:href="NtcTypes_8h.html" target="_top" xlink:title="Type definitions for NTC thermistor driver.">
<polygon fill="white" stroke="#666666" points="544.5,-74 474.5,-74 474.5,-55 544.5,-55 544.5,-74"/>
<text text-anchor="middle" x="509.5" y="-62" font-family="Helvetica,sans-Serif" font-size="10.00">NtcTypes.h</text>
</a>
</g>
</g>
<!-- Node7&#45;&gt;Node10 -->
<g id="edge12_Node000007_Node000010" class="edge">
<title>Node7&#45;&gt;Node10</title>
<g id="a_edge12_Node000007_Node000010"><a xlink:title=" ">
<path fill="none" stroke="#63b8ff" d="M342.47,-109.98C376.32,-100.97 429.9,-86.7 467.21,-76.76"/>
<polygon fill="#63b8ff" stroke="#63b8ff" points="468.51,-80.04 477.28,-74.08 466.71,-73.27 468.51,-80.04"/>
</a>
</g>
</g>
<!-- Node9&#45;&gt;Node4 -->
<g id="edge11_Node000009_Node000004" class="edge">
<title>Node9&#45;&gt;Node4</title>
<g id="a_edge11_Node000009_Node000004"><a xlink:title=" ">
<path fill="none" stroke="#63b8ff" d="M379.44,-54.98C353.39,-46.14 312.45,-32.23 283.28,-22.32"/>
<polygon fill="#63b8ff" stroke="#63b8ff" points="284.1,-18.9 273.5,-18.99 281.84,-25.53 284.1,-18.9"/>
</a>
</g>
</g>
<!-- Node10&#45;&gt;Node4 -->
<g id="edge13_Node000010_Node000004" class="edge">
<title>Node10&#45;&gt;Node4</title>
<g id="a_edge13_Node000010_Node000004"><a xlink:title=" ">
<path fill="none" stroke="#63b8ff" d="M474.3,-56.35C424.42,-46.22 333.69,-27.8 283.77,-17.66"/>
<polygon fill="#63b8ff" stroke="#63b8ff" points="284.26,-14.19 273.76,-15.63 282.87,-21.05 284.26,-14.19"/>
</a>
</g>
</g>
</g>
</svg>
