<?xml version="1.0" encoding="UTF-8" standalone="no"?>
<!DOCTYPE svg PUBLIC "-//W3C//DTD SVG 1.1//EN"
 "http://www.w3.org/Graphics/SVG/1.1/DTD/svg11.dtd">
<!-- Generated by graphviz version 2.43.0 (0)
 -->
<!-- Title: examples/esp32/main/MockEsp32Adc.h Pages: 1 -->
<svg width="143pt" height="148pt"
 viewBox="0.00 0.00 142.50 148.00" xmlns="http://www.w3.org/2000/svg" xmlns:xlink="http://www.w3.org/1999/xlink">
<g id="graph0" class="graph" transform="scale(1 1) rotate(0) translate(4 144)">
<title>examples/esp32/main/MockEsp32Adc.h</title>
<!-- Node1 -->
<g id="Node000001" class="node">
<title>Node1</title>
<g id="a_Node000001"><a xlink:title="Mock ADC implementation for ESP32&#45;C6 testing.">
<polygon fill="#999999" stroke="#666666" points="134.5,-140 9.5,-140 9.5,-110 134.5,-110 134.5,-140"/>
<text text-anchor="start" x="17.5" y="-128" font-family="Helvetica,sans-Serif" font-size="10.00">examples/esp32/main</text>
<text text-anchor="middle" x="72" y="-117" font-family="Helvetica,sans-Serif" font-size="10.00">/MockEsp32Adc.h</text>
</a>
</g>
</g>
<!-- Node2 -->
<g id="Node000002" class="node">
<title>Node2</title>
<g id="a_Node000002"><a xlink:href="BaseAdc_8h.html" target="_top" xlink:title="Abstract base class for ADC interface used by NTC thermistor driver.">
<polygon fill="white" stroke="#666666" points="68,-74 0,-74 0,-55 68,-55 68,-74"/>
<text text-anchor="middle" x="34" y="-62" font-family="Helvetica,sans-Serif" font-size="10.00">BaseAdc.h</text>
</a>
</g>
</g>
<!-- Node1&#45;&gt;Node2 -->
<g id="edge1_Node000001_Node000002" class="edge">
<title>Node1&#45;&gt;Node2</title>
<g id="a_edge1_Node000001_Node000002"><a xlink:title=" ">
<path fill="none" stroke="#63b8ff" d="M62.8,-109.84C57.51,-101.69 50.82,-91.4 45.22,-82.78"/>
<polygon fill="#63b8ff" stroke="#63b8ff" points="48.08,-80.75 39.69,-74.27 42.21,-84.56 48.08,-80.75"/>
</a>
</g>
</g>
<!-- Node4 -->
<g id="Node000004" class="node">
<title>Node4</title>
<g id="a_Node000004"><a xlink:title=" ">
<polygon fill="#e0e0e0" stroke="#999999" points="133.5,-74 86.5,-74 86.5,-55 133.5,-55 133.5,-74"/>
<text text-anchor="middle" x="110" y="-62" font-family="Helvetica,sans-Serif" font-size="10.00">cmath</text>
</a>
</g>
</g>
<!-- Node1&#45;&gt;Node4 -->
<g id="edge3_Node000001_Node000004" class="edge">
<title>Node1&#45;&gt;Node4</title>
<g id="a_edge3_Node000001_Node000004"><a xlink:title=" ">
<path fill="none" stroke="#63b8ff" d="M81.2,-109.84C86.49,-101.69 93.18,-91.4 98.78,-82.78"/>
<polygon fill="#63b8ff" stroke="#63b8ff" points="101.79,-84.56 104.31,-74.27 95.92,-80.75 101.79,-84.56"/>
</a>
</g>
</g>
<!-- Node3 -->
<g id="Node000003" class="node">
<title>Node3</title>
<g id="a_Node000003"><a xlink:title=" ">
<polygon fill="#e0e0e0" stroke="#999999" points="59,-19 9,-19 9,0 59,0 59,-19"/>
<text text-anchor="middle" x="34" y="-7" font-family="Helvetica,sans-Serif" font-size="10.00">cstdint</text>
</a>
</g>
</g>
<!-- Node2&#45;&gt;Node3 -->
<g id="edge2_Node000002_Node000003" class="edge">
<title>Node2&#45;&gt;Node3</title>
<g id="a_edge2_Node000002_Node000003"><a xlink:title=" ">
<path fill="none" stroke="#63b8ff" d="M34,-54.75C34,-47.8 34,-37.85 34,-29.13"/>
<polygon fill="#63b8ff" stroke="#63b8ff" points="37.5,-29.09 34,-19.09 30.5,-29.09 37.5,-29.09"/>
</a>
</g>
</g>
</g>
</svg>
