<?xml version="1.0" encoding="UTF-8" standalone="no"?>
<!DOCTYPE svg PUBLIC "-//W3C//DTD SVG 1.1//EN"
 "http://www.w3.org/Graphics/SVG/1.1/DTD/svg11.dtd">
<!-- Generated by graphviz version 2.43.0 (0)
 -->
<!-- Title: inc/ntc_conversion.hpp Pages: 1 -->
<svg width="303pt" height="214pt"
 viewBox="0.00 0.00 302.50 214.00" xmlns="http://www.w3.org/2000/svg" xmlns:xlink="http://www.w3.org/1999/xlink">
<g id="graph0" class="graph" transform="scale(1 1) rotate(0) translate(4 210)">
<title>inc/ntc_conversion.hpp</title>
<!-- Node1 -->
<g id="Node000001" class="node">
<title>Node1</title>
<g id="a_Node000001"><a xlink:title="Mathematical conversion functions for NTC thermistor temperature calculation.">
<polygon fill="#999999" stroke="#666666" points="200,-206 72,-206 72,-187 200,-187 200,-206"/>
<text text-anchor="middle" x="136" y="-194" font-family="Helvetica,sans-Serif" font-size="10.00">inc/ntc_conversion.hpp</text>
</a>
</g>
</g>
<!-- Node2 -->
<g id="Node000002" class="node">
<title>Node2</title>
<g id="a_Node000002"><a xlink:href="ntc__conversion_8cpp.html" target="_top" xlink:title="Mathematical conversion functions for NTC thermistor temperature calculation.">
<polygon fill="white" stroke="#666666" points="128,-151 0,-151 0,-132 128,-132 128,-151"/>
<text text-anchor="middle" x="64" y="-139" font-family="Helvetica,sans-Serif" font-size="10.00">src/ntc_conversion.cpp</text>
</a>
</g>
</g>
<!-- Node1&#45;&gt;Node2 -->
<g id="edge1_Node000001_Node000002" class="edge">
<title>Node1&#45;&gt;Node2</title>
<g id="a_edge1_Node000001_Node000002"><a xlink:title=" ">
<path fill="none" stroke="#63b8ff" d="M116.13,-180.88C103.18,-171.34 86.7,-159.21 75.78,-151.17"/>
<polygon fill="#63b8ff" stroke="#63b8ff" points="114.3,-183.88 124.43,-186.98 118.45,-178.24 114.3,-183.88"/>
</a>
</g>
</g>
<!-- Node3 -->
<g id="Node000003" class="node">
<title>Node3</title>
<g id="a_Node000003"><a xlink:href="ntc__thermistor_8cpp.html" target="_top" xlink:title="Hardware&#45;agnostic NTC thermistor driver implementation.">
<polygon fill="white" stroke="#666666" points="271.5,-151 146.5,-151 146.5,-132 271.5,-132 271.5,-151"/>
<text text-anchor="middle" x="209" y="-139" font-family="Helvetica,sans-Serif" font-size="10.00">src/ntc_thermistor.cpp</text>
</a>
</g>
</g>
<!-- Node1&#45;&gt;Node3 -->
<g id="edge2_Node000001_Node000003" class="edge">
<title>Node1&#45;&gt;Node3</title>
<g id="a_edge2_Node000001_Node000003"><a xlink:title=" ">
<path fill="none" stroke="#63b8ff" d="M156.14,-180.88C169.28,-171.34 185.98,-159.21 197.06,-151.17"/>
<polygon fill="#63b8ff" stroke="#63b8ff" points="153.76,-178.28 147.73,-186.98 157.88,-183.94 153.76,-178.28"/>
</a>
</g>
</g>
<!-- Node4 -->
<g id="Node000004" class="node">
<title>Node4</title>
<g id="a_Node000004"><a xlink:href="ntc__thermistor_8hpp.html" target="_top" xlink:title="Hardware&#45;agnostic NTC thermistor driver for temperature measurement.">
<polygon fill="white" stroke="#666666" points="271.5,-96 146.5,-96 146.5,-77 271.5,-77 271.5,-96"/>
<text text-anchor="middle" x="209" y="-84" font-family="Helvetica,sans-Serif" font-size="10.00">inc/ntc_thermistor.hpp</text>
</a>
</g>
</g>
<!-- Node3&#45;&gt;Node4 -->
<g id="edge3_Node000003_Node000004" class="edge">
<title>Node3&#45;&gt;Node4</title>
<g id="a_edge3_Node000003_Node000004"><a xlink:title=" ">
<path fill="none" stroke="#63b8ff" d="M202.51,-121.66C201.91,-112.93 202.36,-102.99 203.87,-96.09"/>
<polygon fill="#63b8ff" stroke="#63b8ff" points="199.06,-122.29 203.83,-131.75 206,-121.38 199.06,-122.29"/>
</a>
</g>
</g>
<!-- Node4&#45;&gt;Node3 -->
<g id="edge5_Node000004_Node000003" class="edge">
<title>Node4&#45;&gt;Node3</title>
<g id="a_edge5_Node000004_Node000003"><a xlink:title=" ">
<path fill="none" stroke="#63b8ff" d="M215.48,-106.13C216.1,-114.85 215.66,-124.8 214.17,-131.75"/>
<polygon fill="#63b8ff" stroke="#63b8ff" points="218.93,-105.53 214.13,-96.09 211.99,-106.47 218.93,-105.53"/>
</a>
</g>
</g>
<!-- Node5 -->
<g id="Node000005" class="node">
<title>Node5</title>
<g id="a_Node000005"><a xlink:href="ntc__thermistor__comprehensive__test_8cpp.html" target="_top" xlink:title="Comprehensive test suite for NTC Thermistor driver on ESP32&#45;C6.">
<polygon fill="white" stroke="#666666" points="294.5,-41 123.5,-41 123.5,0 294.5,0 294.5,-41"/>
<text text-anchor="start" x="131.5" y="-29" font-family="Helvetica,sans-Serif" font-size="10.00">examples/esp32/main</text>
<text text-anchor="start" x="131.5" y="-18" font-family="Helvetica,sans-Serif" font-size="10.00">/ntc_thermistor_comprehensive</text>
<text text-anchor="middle" x="209" y="-7" font-family="Helvetica,sans-Serif" font-size="10.00">_test.cpp</text>
</a>
</g>
</g>
<!-- Node4&#45;&gt;Node5 -->
<g id="edge4_Node000004_Node000005" class="edge">
<title>Node4&#45;&gt;Node5</title>
<g id="a_edge4_Node000004_Node000005"><a xlink:title=" ">
<path fill="none" stroke="#63b8ff" d="M209,-66.63C209,-58.56 209,-49.15 209,-41.01"/>
<polygon fill="#63b8ff" stroke="#63b8ff" points="205.5,-66.87 209,-76.87 212.5,-66.87 205.5,-66.87"/>
</a>
</g>
</g>
</g>
</svg>
