<?xml version="1.0" encoding="UTF-8" standalone="no"?>
<!DOCTYPE svg PUBLIC "-//W3C//DTD SVG 1.1//EN"
 "http://www.w3.org/Graphics/SVG/1.1/DTD/svg11.dtd">
<!-- Generated by graphviz version 2.43.0 (0)
 -->
<!-- Title: inc/ntc_types.hpp Pages: 1 -->
<svg width="477pt" height="159pt"
 viewBox="0.00 0.00 477.00 159.00" xmlns="http://www.w3.org/2000/svg" xmlns:xlink="http://www.w3.org/1999/xlink">
<g id="graph0" class="graph" transform="scale(1 1) rotate(0) translate(4 155)">
<title>inc/ntc_types.hpp</title>
<!-- Node1 -->
<g id="Node000001" class="node">
<title>Node1</title>
<g id="a_Node000001"><a xlink:title="Type definitions for NTC thermistor driver.">
<polygon fill="#999999" stroke="#666666" points="376.5,-151 274.5,-151 274.5,-132 376.5,-132 376.5,-151"/>
<text text-anchor="middle" x="325.5" y="-139" font-family="Helvetica,sans-Serif" font-size="10.00">inc/ntc_types.hpp</text>
</a>
</g>
</g>
<!-- Node2 -->
<g id="Node000002" class="node">
<title>Node2</title>
<g id="a_Node000002"><a xlink:href="ntc__thermistor_8hpp.html" target="_top" xlink:title="Hardware&#45;agnostic NTC thermistor driver for temperature measurement.">
<polygon fill="white" stroke="#666666" points="314,-96 189,-96 189,-77 314,-77 314,-96"/>
<text text-anchor="middle" x="251.5" y="-84" font-family="Helvetica,sans-Serif" font-size="10.00">inc/ntc_thermistor.hpp</text>
</a>
</g>
</g>
<!-- Node1&#45;&gt;Node2 -->
<g id="edge1_Node000001_Node000002" class="edge">
<title>Node1&#45;&gt;Node2</title>
<g id="a_edge1_Node000001_Node000002"><a xlink:title=" ">
<path fill="none" stroke="#63b8ff" d="M305.47,-126.15C292.09,-116.57 274.94,-104.29 263.61,-96.17"/>
<polygon fill="#63b8ff" stroke="#63b8ff" points="303.44,-129.01 313.61,-131.98 307.52,-123.32 303.44,-129.01"/>
</a>
</g>
</g>
<!-- Node5 -->
<g id="Node000005" class="node">
<title>Node5</title>
<g id="a_Node000005"><a xlink:href="ntc__lookup__table_8cpp.html" target="_top" xlink:title="Lookup table implementation for NTC thermistor temperature conversion.">
<polygon fill="white" stroke="#666666" points="469,-96 332,-96 332,-77 469,-77 469,-96"/>
<text text-anchor="middle" x="400.5" y="-84" font-family="Helvetica,sans-Serif" font-size="10.00">src/ntc_lookup_table.cpp</text>
</a>
</g>
</g>
<!-- Node1&#45;&gt;Node5 -->
<g id="edge5_Node000001_Node000005" class="edge">
<title>Node1&#45;&gt;Node5</title>
<g id="a_edge5_Node000001_Node000005"><a xlink:title=" ">
<path fill="none" stroke="#63b8ff" d="M345.81,-126.15C359.36,-116.57 376.74,-104.29 388.23,-96.17"/>
<polygon fill="#63b8ff" stroke="#63b8ff" points="343.7,-123.36 337.55,-131.98 347.74,-129.07 343.7,-123.36"/>
</a>
</g>
</g>
<!-- Node3 -->
<g id="Node000003" class="node">
<title>Node3</title>
<g id="a_Node000003"><a xlink:href="ntc__thermistor__comprehensive__test_8cpp.html" target="_top" xlink:title="Comprehensive test suite for NTC Thermistor driver on ESP32&#45;C6.">
<polygon fill="white" stroke="#666666" points="171,-41 0,-41 0,0 171,0 171,-41"/>
<text text-anchor="start" x="8" y="-29" font-family="Helvetica,sans-Serif" font-size="10.00">examples/esp32/main</text>
<text text-anchor="start" x="8" y="-18" font-family="Helvetica,sans-Serif" font-size="10.00">/ntc_thermistor_comprehensive</text>
<text text-anchor="middle" x="85.5" y="-7" font-family="Helvetica,sans-Serif" font-size="10.00">_test.cpp</text>
</a>
</g>
</g>
<!-- Node2&#45;&gt;Node3 -->
<g id="edge2_Node000002_Node000003" class="edge">
<title>Node2&#45;&gt;Node3</title>
<g id="a_edge2_Node000002_Node000003"><a xlink:title=" ">
<path fill="none" stroke="#63b8ff" d="M219.58,-73.19C195.95,-64.08 163.28,-51.49 136.1,-41.01"/>
<polygon fill="#63b8ff" stroke="#63b8ff" points="218.52,-76.54 229.11,-76.87 221.04,-70.01 218.52,-76.54"/>
</a>
</g>
</g>
<!-- Node4 -->
<g id="Node000004" class="node">
<title>Node4</title>
<g id="a_Node000004"><a xlink:href="ntc__thermistor_8cpp.html" target="_top" xlink:title="Hardware&#45;agnostic NTC thermistor driver implementation.">
<polygon fill="white" stroke="#666666" points="314,-30 189,-30 189,-11 314,-11 314,-30"/>
<text text-anchor="middle" x="251.5" y="-18" font-family="Helvetica,sans-Serif" font-size="10.00">src/ntc_thermistor.cpp</text>
</a>
</g>
</g>
<!-- Node2&#45;&gt;Node4 -->
<g id="edge3_Node000002_Node000004" class="edge">
<title>Node2&#45;&gt;Node4</title>
<g id="a_edge3_Node000002_Node000004"><a xlink:title=" ">
<path fill="none" stroke="#63b8ff" d="M245.31,-66.95C244.25,-54.93 244.7,-39.82 246.65,-30.41"/>
<polygon fill="#63b8ff" stroke="#63b8ff" points="241.85,-67.46 246.71,-76.87 248.78,-66.48 241.85,-67.46"/>
</a>
</g>
</g>
<!-- Node4&#45;&gt;Node2 -->
<g id="edge4_Node000004_Node000002" class="edge">
<title>Node4&#45;&gt;Node2</title>
<g id="a_edge4_Node000004_Node000002"><a xlink:title=" ">
<path fill="none" stroke="#63b8ff" d="M257.72,-40.4C258.75,-52.48 258.28,-67.57 256.29,-76.87"/>
<polygon fill="#63b8ff" stroke="#63b8ff" points="261.18,-39.84 256.35,-30.41 254.24,-40.79 261.18,-39.84"/>
</a>
</g>
</g>
</g>
</svg>
