<?xml version="1.0" encoding="UTF-8" standalone="no"?>
<!DOCTYPE svg PUBLIC "-//W3C//DTD SVG 1.1//EN"
 "http://www.w3.org/Graphics/SVG/1.1/DTD/svg11.dtd">
<!-- Generated by graphviz version 2.43.0 (0)
 -->
<!-- Title: src/NtcConversion.cpp Pages: 1 -->
<svg width="235pt" height="137pt"
 viewBox="0.00 0.00 234.50 137.00" xmlns="http://www.w3.org/2000/svg" xmlns:xlink="http://www.w3.org/1999/xlink">
<g id="graph0" class="graph" transform="scale(1 1) rotate(0) translate(4 133)">
<title>src/NtcConversion.cpp</title>
<!-- Node1 -->
<g id="Node000001" class="node">
<title>Node1</title>
<g id="a_Node000001"><a xlink:title="Mathematical conversion functions for NTC thermistor temperature calculation.">
<polygon fill="#999999" stroke="#666666" points="158,-129 33,-129 33,-110 158,-110 158,-129"/>
<text text-anchor="middle" x="95.5" y="-117" font-family="Helvetica,sans-Serif" font-size="10.00">src/NtcConversion.cpp</text>
</a>
</g>
</g>
<!-- Node2 -->
<g id="Node000002" class="node">
<title>Node2</title>
<g id="a_Node000002"><a xlink:href="NtcConversion_8h.html" target="_top" xlink:title="Mathematical conversion functions for NTC thermistor temperature calculation.">
<polygon fill="white" stroke="#666666" points="144,-74 47,-74 47,-55 144,-55 144,-74"/>
<text text-anchor="middle" x="95.5" y="-62" font-family="Helvetica,sans-Serif" font-size="10.00">NtcConversion.h</text>
</a>
</g>
</g>
<!-- Node1&#45;&gt;Node2 -->
<g id="edge1_Node000001_Node000002" class="edge">
<title>Node1&#45;&gt;Node2</title>
<g id="a_edge1_Node000001_Node000002"><a xlink:title=" ">
<path fill="none" stroke="#63b8ff" d="M95.5,-109.75C95.5,-102.8 95.5,-92.85 95.5,-84.13"/>
<polygon fill="#63b8ff" stroke="#63b8ff" points="99,-84.09 95.5,-74.09 92,-84.09 99,-84.09"/>
</a>
</g>
</g>
<!-- Node3 -->
<g id="Node000003" class="node">
<title>Node3</title>
<g id="a_Node000003"><a xlink:title=" ">
<polygon fill="#e0e0e0" stroke="#999999" points="47,-19 0,-19 0,0 47,0 47,-19"/>
<text text-anchor="middle" x="23.5" y="-7" font-family="Helvetica,sans-Serif" font-size="10.00">cmath</text>
</a>
</g>
</g>
<!-- Node1&#45;&gt;Node3 -->
<g id="edge5_Node000001_Node000003" class="edge">
<title>Node1&#45;&gt;Node3</title>
<g id="a_edge5_Node000001_Node000003"><a xlink:title=" ">
<path fill="none" stroke="#63b8ff" d="M79.24,-109.93C66.25,-102.24 48.59,-89.75 38.5,-74 29.9,-60.59 26.23,-42.75 24.66,-29.4"/>
<polygon fill="#63b8ff" stroke="#63b8ff" points="28.14,-29.08 23.77,-19.43 21.17,-29.7 28.14,-29.08"/>
</a>
</g>
</g>
<!-- Node5 -->
<g id="Node000005" class="node">
<title>Node5</title>
<g id="a_Node000005"><a xlink:title=" ">
<polygon fill="#e0e0e0" stroke="#999999" points="226.5,-74 162.5,-74 162.5,-55 226.5,-55 226.5,-74"/>
<text text-anchor="middle" x="194.5" y="-62" font-family="Helvetica,sans-Serif" font-size="10.00">algorithm</text>
</a>
</g>
</g>
<!-- Node1&#45;&gt;Node5 -->
<g id="edge4_Node000001_Node000005" class="edge">
<title>Node1&#45;&gt;Node5</title>
<g id="a_edge4_Node000001_Node000005"><a xlink:title=" ">
<path fill="none" stroke="#63b8ff" d="M111.41,-109.98C127.05,-101.61 151.16,-88.7 169.38,-78.95"/>
<polygon fill="#63b8ff" stroke="#63b8ff" points="171.14,-81.98 178.3,-74.17 167.84,-75.8 171.14,-81.98"/>
</a>
</g>
</g>
<!-- Node2&#45;&gt;Node3 -->
<g id="edge2_Node000002_Node000003" class="edge">
<title>Node2&#45;&gt;Node3</title>
<g id="a_edge2_Node000002_Node000003"><a xlink:title=" ">
<path fill="none" stroke="#63b8ff" d="M83.93,-54.98C73.08,-47 56.62,-34.88 43.62,-25.31"/>
<polygon fill="#63b8ff" stroke="#63b8ff" points="45.41,-22.28 35.28,-19.17 41.26,-27.92 45.41,-22.28"/>
</a>
</g>
</g>
<!-- Node4 -->
<g id="Node000004" class="node">
<title>Node4</title>
<g id="a_Node000004"><a xlink:title=" ">
<polygon fill="#e0e0e0" stroke="#999999" points="120.5,-19 70.5,-19 70.5,0 120.5,0 120.5,-19"/>
<text text-anchor="middle" x="95.5" y="-7" font-family="Helvetica,sans-Serif" font-size="10.00">cstdint</text>
</a>
</g>
</g>
<!-- Node2&#45;&gt;Node4 -->
<g id="edge3_Node000002_Node000004" class="edge">
<title>Node2&#45;&gt;Node4</title>
<g id="a_edge3_Node000002_Node000004"><a xlink:title=" ">
<path fill="none" stroke="#63b8ff" d="M95.5,-54.75C95.5,-47.8 95.5,-37.85 95.5,-29.13"/>
<polygon fill="#63b8ff" stroke="#63b8ff" points="99,-29.09 95.5,-19.09 92,-29.09 99,-29.09"/>
</a>
</g>
</g>
</g>
</svg>
