<?xml version="1.0" encoding="UTF-8" standalone="no"?>
<!DOCTYPE svg PUBLIC "-//W3C//DTD SVG 1.1//EN"
 "http://www.w3.org/Graphics/SVG/1.1/DTD/svg11.dtd">
<!-- Generated by graphviz version 2.43.0 (0)
 -->
<!-- Title: inc/NtcThermistor.h Pages: 1 -->
<svg width="465pt" height="104pt"
 viewBox="0.00 0.00 464.50 104.00" xmlns="http://www.w3.org/2000/svg" xmlns:xlink="http://www.w3.org/1999/xlink">
<g id="graph0" class="graph" transform="scale(1 1) rotate(0) translate(4 100)">
<title>inc/NtcThermistor.h</title>
<!-- Node1 -->
<g id="Node000001" class="node">
<title>Node1</title>
<g id="a_Node000001"><a xlink:title="Hardware&#45;agnostic NTC thermistor driver for temperature measurement.">
<polygon fill="#999999" stroke="#666666" points="306,-96 194,-96 194,-77 306,-77 306,-96"/>
<text text-anchor="middle" x="250" y="-84" font-family="Helvetica,sans-Serif" font-size="10.00">inc/NtcThermistor.h</text>
</a>
</g>
</g>
<!-- Node2 -->
<g id="Node000002" class="node">
<title>Node2</title>
<g id="a_Node000002"><a xlink:href="NtcThermistorComprehensiveTest_8cpp.html" target="_top" xlink:title="Comprehensive test suite for NTC Thermistor driver on ESP32&#45;C6.">
<polygon fill="white" stroke="#666666" points="166,-41 0,-41 0,0 166,0 166,-41"/>
<text text-anchor="start" x="8" y="-29" font-family="Helvetica,sans-Serif" font-size="10.00">examples/esp32/main</text>
<text text-anchor="start" x="8" y="-18" font-family="Helvetica,sans-Serif" font-size="10.00">/NtcThermistorComprehensive</text>
<text text-anchor="middle" x="83" y="-7" font-family="Helvetica,sans-Serif" font-size="10.00">Test.cpp</text>
</a>
</g>
</g>
<!-- Node1&#45;&gt;Node2 -->
<g id="edge1_Node000001_Node000002" class="edge">
<title>Node1&#45;&gt;Node2</title>
<g id="a_edge1_Node000001_Node000002"><a xlink:title=" ">
<path fill="none" stroke="#63b8ff" d="M217.89,-73.19C194.11,-64.08 161.25,-51.49 133.91,-41.01"/>
<polygon fill="#63b8ff" stroke="#63b8ff" points="216.89,-76.56 227.48,-76.87 219.39,-70.02 216.89,-76.56"/>
</a>
</g>
</g>
<!-- Node3 -->
<g id="Node000003" class="node">
<title>Node3</title>
<g id="a_Node000003"><a xlink:href="NtcLookupTable_8cpp.html" target="_top" xlink:title="Lookup table implementation for NTC thermistor temperature conversion.">
<polygon fill="white" stroke="#666666" points="315.5,-30 184.5,-30 184.5,-11 315.5,-11 315.5,-30"/>
<text text-anchor="middle" x="250" y="-18" font-family="Helvetica,sans-Serif" font-size="10.00">src/NtcLookupTable.cpp</text>
</a>
</g>
</g>
<!-- Node1&#45;&gt;Node3 -->
<g id="edge2_Node000001_Node000003" class="edge">
<title>Node1&#45;&gt;Node3</title>
<g id="a_edge2_Node000001_Node000003"><a xlink:title=" ">
<path fill="none" stroke="#63b8ff" d="M250,-66.58C250,-54.63 250,-39.72 250,-30.41"/>
<polygon fill="#63b8ff" stroke="#63b8ff" points="246.5,-66.87 250,-76.87 253.5,-66.87 246.5,-66.87"/>
</a>
</g>
</g>
<!-- Node4 -->
<g id="Node000004" class="node">
<title>Node4</title>
<g id="a_Node000004"><a xlink:href="NtcThermistor_8cpp.html" target="_top" xlink:title="Hardware&#45;agnostic NTC thermistor driver implementation.">
<polygon fill="white" stroke="#666666" points="456.5,-30 333.5,-30 333.5,-11 456.5,-11 456.5,-30"/>
<text text-anchor="middle" x="395" y="-18" font-family="Helvetica,sans-Serif" font-size="10.00">src/NtcThermistor.cpp</text>
</a>
</g>
</g>
<!-- Node1&#45;&gt;Node4 -->
<g id="edge3_Node000001_Node000004" class="edge">
<title>Node1&#45;&gt;Node4</title>
<g id="a_edge3_Node000001_Node000004"><a xlink:title=" ">
<path fill="none" stroke="#63b8ff" d="M279.01,-72.69C307.59,-60.08 350.46,-41.16 375.29,-30.2"/>
<polygon fill="#63b8ff" stroke="#63b8ff" points="277.29,-69.63 269.56,-76.87 280.12,-76.03 277.29,-69.63"/>
</a>
</g>
</g>
</g>
</svg>
