<?xml version="1.0" encoding="UTF-8" standalone="no"?>
<!DOCTYPE svg PUBLIC "-//W3C//DTD SVG 1.1//EN"
 "http://www.w3.org/Graphics/SVG/1.1/DTD/svg11.dtd">
<!-- Generated by graphviz version 2.43.0 (0)
 -->
<!-- Title: examples/esp32/main/NtcThermistorComprehensiveTest.cpp Pages: 1 -->
<svg width="1000pt" height="214pt"
 viewBox="0.00 0.00 1000.00 214.00" xmlns="http://www.w3.org/2000/svg" xmlns:xlink="http://www.w3.org/1999/xlink">
<g id="graph0" class="graph" transform="scale(1 1) rotate(0) translate(4 210)">
<title>examples/esp32/main/NtcThermistorComprehensiveTest.cpp</title>
<!-- Node1 -->
<g id="Node000001" class="node">
<title>Node1</title>
<g id="a_Node000001"><a xlink:title="Comprehensive test suite for NTC Thermistor driver on ESP32&#45;C6.">
<polygon fill="#999999" stroke="#666666" points="383,-206 217,-206 217,-165 383,-165 383,-206"/>
<text text-anchor="start" x="225" y="-194" font-family="Helvetica,sans-Serif" font-size="10.00">examples/esp32/main</text>
<text text-anchor="start" x="225" y="-183" font-family="Helvetica,sans-Serif" font-size="10.00">/NtcThermistorComprehensive</text>
<text text-anchor="middle" x="300" y="-172" font-family="Helvetica,sans-Serif" font-size="10.00">Test.cpp</text>
</a>
</g>
</g>
<!-- Node2 -->
<g id="Node000002" class="node">
<title>Node2</title>
<g id="a_Node000002"><a xlink:href="NtcThermistor_8h.html" target="_top" xlink:title="Hardware&#45;agnostic NTC thermistor driver for temperature measurement.">
<polygon fill="white" stroke="#666666" points="154.5,-129 59.5,-129 59.5,-110 154.5,-110 154.5,-129"/>
<text text-anchor="middle" x="107" y="-117" font-family="Helvetica,sans-Serif" font-size="10.00">NtcThermistor.h</text>
</a>
</g>
</g>
<!-- Node1&#45;&gt;Node2 -->
<g id="edge1_Node000001_Node000002" class="edge">
<title>Node1&#45;&gt;Node2</title>
<g id="a_edge1_Node000001_Node000002"><a xlink:title=" ">
<path fill="none" stroke="#63b8ff" d="M241.04,-164.95C208.76,-154.24 169.83,-141.34 142.27,-132.19"/>
<polygon fill="#63b8ff" stroke="#63b8ff" points="143.25,-128.83 132.66,-129.01 141.05,-135.48 143.25,-128.83"/>
</a>
</g>
</g>
<!-- Node4 -->
<g id="Node000004" class="node">
<title>Node4</title>
<g id="a_Node000004"><a xlink:title=" ">
<polygon fill="#e0e0e0" stroke="#999999" points="58,-74 0,-74 0,-55 58,-55 58,-74"/>
<text text-anchor="middle" x="29" y="-62" font-family="Helvetica,sans-Serif" font-size="10.00">memory</text>
</a>
</g>
</g>
<!-- Node1&#45;&gt;Node4 -->
<g id="edge17_Node000001_Node000004" class="edge">
<title>Node1&#45;&gt;Node4</title>
<g id="a_edge17_Node000001_Node000004"><a xlink:title=" ">
<path fill="none" stroke="#63b8ff" d="M216.77,-174.94C153.88,-166.11 74.37,-151.02 50,-129 37.49,-117.7 32.42,-98.79 30.37,-84.54"/>
<polygon fill="#63b8ff" stroke="#63b8ff" points="33.82,-83.92 29.29,-74.34 26.86,-84.66 33.82,-83.92"/>
</a>
</g>
</g>
<!-- Node6 -->
<g id="Node000006" class="node">
<title>Node6</title>
<g id="a_Node000006"><a xlink:href="TestFramework_8h.html" target="_top" xlink:title="Shared testing framework for ESP32&#45;C6 comprehensive test suites.">
<polygon fill="white" stroke="#666666" points="595,-129 495,-129 495,-110 595,-110 595,-129"/>
<text text-anchor="middle" x="545" y="-117" font-family="Helvetica,sans-Serif" font-size="10.00">TestFramework.h</text>
</a>
</g>
</g>
<!-- Node1&#45;&gt;Node6 -->
<g id="edge6_Node000001_Node000006" class="edge">
<title>Node1&#45;&gt;Node6</title>
<g id="a_edge6_Node000001_Node000006"><a xlink:title=" ">
<path fill="none" stroke="#63b8ff" d="M374.84,-164.95C416.72,-154.01 467.41,-140.77 502.51,-131.6"/>
<polygon fill="#63b8ff" stroke="#63b8ff" points="503.64,-134.92 512.43,-129.01 501.87,-128.15 503.64,-134.92"/>
</a>
</g>
</g>
<!-- Node7 -->
<g id="Node000007" class="node">
<title>Node7</title>
<g id="a_Node000007"><a xlink:title=" ">
<polygon fill="#e0e0e0" stroke="#999999" points="328.5,-74 265.5,-74 265.5,-55 328.5,-55 328.5,-74"/>
<text text-anchor="middle" x="297" y="-62" font-family="Helvetica,sans-Serif" font-size="10.00">esp_log.h</text>
</a>
</g>
</g>
<!-- Node1&#45;&gt;Node7 -->
<g id="edge20_Node000001_Node000007" class="edge">
<title>Node1&#45;&gt;Node7</title>
<g id="a_edge20_Node000001_Node000007"><a xlink:title=" ">
<path fill="none" stroke="#63b8ff" d="M299.5,-164.85C298.94,-142.48 298.03,-106.19 297.47,-84.21"/>
<polygon fill="#63b8ff" stroke="#63b8ff" points="300.97,-84.08 297.22,-74.18 293.97,-84.26 300.97,-84.08"/>
</a>
</g>
</g>
<!-- Node10 -->
<g id="Node000010" class="node">
<title>Node10</title>
<g id="a_Node000010"><a xlink:title=" ">
<polygon fill="#e0e0e0" stroke="#999999" points="885.5,-74 772.5,-74 772.5,-55 885.5,-55 885.5,-74"/>
<text text-anchor="middle" x="829" y="-62" font-family="Helvetica,sans-Serif" font-size="10.00">freertos/FreeRTOS.h</text>
</a>
</g>
</g>
<!-- Node1&#45;&gt;Node10 -->
<g id="edge18_Node000001_Node000010" class="edge">
<title>Node1&#45;&gt;Node10</title>
<g id="a_edge18_Node000001_Node000010"><a xlink:title=" ">
<path fill="none" stroke="#63b8ff" d="M383.01,-171.52C444.37,-161.4 529.79,-146.21 604,-129 670.95,-113.48 747.76,-90.71 792.1,-77.07"/>
<polygon fill="#63b8ff" stroke="#63b8ff" points="793.33,-80.36 801.85,-74.06 791.27,-73.67 793.33,-80.36"/>
</a>
</g>
</g>
<!-- Node13 -->
<g id="Node000013" class="node">
<title>Node13</title>
<g id="a_Node000013"><a xlink:title=" ">
<polygon fill="#e0e0e0" stroke="#999999" points="992,-74 904,-74 904,-55 992,-55 992,-74"/>
<text text-anchor="middle" x="948" y="-62" font-family="Helvetica,sans-Serif" font-size="10.00">freertos/task.h</text>
</a>
</g>
</g>
<!-- Node1&#45;&gt;Node13 -->
<g id="edge19_Node000001_Node000013" class="edge">
<title>Node1&#45;&gt;Node13</title>
<g id="a_edge19_Node000001_Node000013"><a xlink:title=" ">
<path fill="none" stroke="#63b8ff" d="M383.32,-172.94C455.62,-162.57 562.99,-146.35 656,-129 743.56,-112.67 845.01,-89.68 902.34,-76.31"/>
<polygon fill="#63b8ff" stroke="#63b8ff" points="903.24,-79.7 912.18,-74.01 901.64,-72.88 903.24,-79.7"/>
</a>
</g>
</g>
<!-- Node14 -->
<g id="Node000014" class="node">
<title>Node14</title>
<g id="a_Node000014"><a xlink:href="MockEsp32Adc_8h.html" target="_top" xlink:title="Mock ADC implementation for ESP32&#45;C6 testing.">
<polygon fill="white" stroke="#666666" points="271.5,-129 172.5,-129 172.5,-110 271.5,-110 271.5,-129"/>
<text text-anchor="middle" x="222" y="-117" font-family="Helvetica,sans-Serif" font-size="10.00">MockEsp32Adc.h</text>
</a>
</g>
</g>
<!-- Node1&#45;&gt;Node14 -->
<g id="edge14_Node000001_Node000014" class="edge">
<title>Node1&#45;&gt;Node14</title>
<g id="a_edge14_Node000001_Node000014"><a xlink:title=" ">
<path fill="none" stroke="#63b8ff" d="M276.17,-164.95C264.72,-155.55 251.2,-144.46 240.53,-135.7"/>
<polygon fill="#63b8ff" stroke="#63b8ff" points="242.63,-132.9 232.68,-129.26 238.19,-138.31 242.63,-132.9"/>
</a>
</g>
</g>
<!-- Node3 -->
<g id="Node000003" class="node">
<title>Node3</title>
<g id="a_Node000003"><a xlink:title=" ">
<polygon fill="#e0e0e0" stroke="#999999" points="142,-19 92,-19 92,0 142,0 142,-19"/>
<text text-anchor="middle" x="117" y="-7" font-family="Helvetica,sans-Serif" font-size="10.00">cstdint</text>
</a>
</g>
</g>
<!-- Node2&#45;&gt;Node3 -->
<g id="edge2_Node000002_Node000003" class="edge">
<title>Node2&#45;&gt;Node3</title>
<g id="a_edge2_Node000002_Node000003"><a xlink:title=" ">
<path fill="none" stroke="#63b8ff" d="M105.84,-109.83C104.4,-97.56 102.42,-74.46 105,-55 106.16,-46.27 108.53,-36.83 110.87,-28.9"/>
<polygon fill="#63b8ff" stroke="#63b8ff" points="114.25,-29.82 113.91,-19.23 107.57,-27.72 114.25,-29.82"/>
</a>
</g>
</g>
<!-- Node2&#45;&gt;Node4 -->
<g id="edge3_Node000002_Node000004" class="edge">
<title>Node2&#45;&gt;Node4</title>
<g id="a_edge3_Node000002_Node000004"><a xlink:title=" ">
<path fill="none" stroke="#63b8ff" d="M94.47,-109.98C82.6,-101.92 64.54,-89.65 50.39,-80.03"/>
<polygon fill="#63b8ff" stroke="#63b8ff" points="52,-76.9 41.76,-74.17 48.06,-82.69 52,-76.9"/>
</a>
</g>
</g>
<!-- Node5 -->
<g id="Node000005" class="node">
<title>Node5</title>
<g id="a_Node000005"><a xlink:href="BaseAdc_8h.html" target="_top" xlink:title="Abstract base class for ADC interface used by NTC thermistor driver.">
<polygon fill="white" stroke="#666666" points="182,-74 114,-74 114,-55 182,-55 182,-74"/>
<text text-anchor="middle" x="148" y="-62" font-family="Helvetica,sans-Serif" font-size="10.00">BaseAdc.h</text>
</a>
</g>
</g>
<!-- Node2&#45;&gt;Node5 -->
<g id="edge4_Node000002_Node000005" class="edge">
<title>Node2&#45;&gt;Node5</title>
<g id="a_edge4_Node000002_Node000005"><a xlink:title=" ">
<path fill="none" stroke="#63b8ff" d="M113.77,-109.75C119.56,-102.26 128.06,-91.28 135.14,-82.13"/>
<polygon fill="#63b8ff" stroke="#63b8ff" points="138.01,-84.14 141.36,-74.09 132.47,-79.86 138.01,-84.14"/>
</a>
</g>
</g>
<!-- Node5&#45;&gt;Node3 -->
<g id="edge5_Node000005_Node000003" class="edge">
<title>Node5&#45;&gt;Node3</title>
<g id="a_edge5_Node000005_Node000003"><a xlink:title=" ">
<path fill="none" stroke="#63b8ff" d="M142.88,-54.75C138.64,-47.49 132.47,-36.95 127.22,-27.98"/>
<polygon fill="#63b8ff" stroke="#63b8ff" points="130.09,-25.95 122.02,-19.09 124.05,-29.49 130.09,-25.95"/>
</a>
</g>
</g>
<!-- Node6&#45;&gt;Node7 -->
<g id="edge7_Node000006_Node000007" class="edge">
<title>Node6&#45;&gt;Node7</title>
<g id="a_edge7_Node000006_Node000007"><a xlink:title=" ">
<path fill="none" stroke="#63b8ff" d="M505.15,-109.98C459.58,-100.25 385.3,-84.37 338.89,-74.45"/>
<polygon fill="#63b8ff" stroke="#63b8ff" points="339.37,-70.98 328.86,-72.31 337.91,-77.82 339.37,-70.98"/>
</a>
</g>
</g>
<!-- Node8 -->
<g id="Node000008" class="node">
<title>Node8</title>
<g id="a_Node000008"><a xlink:title=" ">
<polygon fill="#e0e0e0" stroke="#999999" points="754,-74 680,-74 680,-55 754,-55 754,-74"/>
<text text-anchor="middle" x="717" y="-62" font-family="Helvetica,sans-Serif" font-size="10.00">esp_timer.h</text>
</a>
</g>
</g>
<!-- Node6&#45;&gt;Node8 -->
<g id="edge8_Node000006_Node000008" class="edge">
<title>Node6&#45;&gt;Node8</title>
<g id="a_edge8_Node000006_Node000008"><a xlink:title=" ">
<path fill="none" stroke="#63b8ff" d="M572.63,-109.98C601.51,-101.09 647.01,-87.07 679.2,-77.15"/>
<polygon fill="#63b8ff" stroke="#63b8ff" points="680.62,-80.37 689.15,-74.08 678.56,-73.68 680.62,-80.37"/>
</a>
</g>
</g>
<!-- Node9 -->
<g id="Node000009" class="node">
<title>Node9</title>
<g id="a_Node000009"><a xlink:title=" ">
<polygon fill="#e0e0e0" stroke="#999999" points="425,-74 347,-74 347,-55 425,-55 425,-74"/>
<text text-anchor="middle" x="386" y="-62" font-family="Helvetica,sans-Serif" font-size="10.00">driver/gpio.h</text>
</a>
</g>
</g>
<!-- Node6&#45;&gt;Node9 -->
<g id="edge9_Node000006_Node000009" class="edge">
<title>Node6&#45;&gt;Node9</title>
<g id="a_edge9_Node000006_Node000009"><a xlink:title=" ">
<path fill="none" stroke="#63b8ff" d="M519.45,-109.98C492.88,-101.13 451.06,-87.19 421.33,-77.28"/>
<polygon fill="#63b8ff" stroke="#63b8ff" points="422.34,-73.92 411.75,-74.08 420.13,-80.56 422.34,-73.92"/>
</a>
</g>
</g>
<!-- Node6&#45;&gt;Node10 -->
<g id="edge10_Node000006_Node000010" class="edge">
<title>Node6&#45;&gt;Node10</title>
<g id="a_edge10_Node000006_Node000010"><a xlink:title=" ">
<path fill="none" stroke="#63b8ff" d="M590.63,-109.98C640.27,-100.72 719.66,-85.9 773.03,-75.94"/>
<polygon fill="#63b8ff" stroke="#63b8ff" points="773.82,-79.36 783.01,-74.08 772.54,-72.48 773.82,-79.36"/>
</a>
</g>
</g>
<!-- Node11 -->
<g id="Node000011" class="node">
<title>Node11</title>
<g id="a_Node000011"><a xlink:title=" ">
<polygon fill="#e0e0e0" stroke="#999999" points="540.5,-74 443.5,-74 443.5,-55 540.5,-55 540.5,-74"/>
<text text-anchor="middle" x="492" y="-62" font-family="Helvetica,sans-Serif" font-size="10.00">freertos/queue.h</text>
</a>
</g>
</g>
<!-- Node6&#45;&gt;Node11 -->
<g id="edge11_Node000006_Node000011" class="edge">
<title>Node6&#45;&gt;Node11</title>
<g id="a_edge11_Node000006_Node000011"><a xlink:title=" ">
<path fill="none" stroke="#63b8ff" d="M536.25,-109.75C528.53,-102.03 517.1,-90.6 507.78,-81.28"/>
<polygon fill="#63b8ff" stroke="#63b8ff" points="510.14,-78.69 500.59,-74.09 505.19,-83.64 510.14,-78.69"/>
</a>
</g>
</g>
<!-- Node12 -->
<g id="Node000012" class="node">
<title>Node12</title>
<g id="a_Node000012"><a xlink:title=" ">
<polygon fill="#e0e0e0" stroke="#999999" points="661.5,-74 558.5,-74 558.5,-55 661.5,-55 661.5,-74"/>
<text text-anchor="middle" x="610" y="-62" font-family="Helvetica,sans-Serif" font-size="10.00">freertos/semphr.h</text>
</a>
</g>
</g>
<!-- Node6&#45;&gt;Node12 -->
<g id="edge12_Node000006_Node000012" class="edge">
<title>Node6&#45;&gt;Node12</title>
<g id="a_edge12_Node000006_Node000012"><a xlink:title=" ">
<path fill="none" stroke="#63b8ff" d="M555.44,-109.98C565.15,-102.07 579.82,-90.11 591.5,-80.58"/>
<polygon fill="#63b8ff" stroke="#63b8ff" points="593.83,-83.2 599.37,-74.17 589.4,-77.78 593.83,-83.2"/>
</a>
</g>
</g>
<!-- Node6&#45;&gt;Node13 -->
<g id="edge13_Node000006_Node000013" class="edge">
<title>Node6&#45;&gt;Node13</title>
<g id="a_edge13_Node000006_Node000013"><a xlink:title=" ">
<path fill="none" stroke="#63b8ff" d="M595.2,-112.64C661.24,-104.81 781.16,-90.2 893.61,-74.16"/>
<polygon fill="#63b8ff" stroke="#63b8ff" points="894.37,-77.59 903.77,-72.7 893.37,-70.66 894.37,-77.59"/>
</a>
</g>
</g>
<!-- Node14&#45;&gt;Node5 -->
<g id="edge15_Node000014_Node000005" class="edge">
<title>Node14&#45;&gt;Node5</title>
<g id="a_edge15_Node000014_Node000005"><a xlink:title=" ">
<path fill="none" stroke="#63b8ff" d="M210.11,-109.98C198.85,-101.92 181.71,-89.65 168.29,-80.03"/>
<polygon fill="#63b8ff" stroke="#63b8ff" points="170.27,-77.15 160.11,-74.17 166.2,-82.84 170.27,-77.15"/>
</a>
</g>
</g>
<!-- Node15 -->
<g id="Node000015" class="node">
<title>Node15</title>
<g id="a_Node000015"><a xlink:title=" ">
<polygon fill="#e0e0e0" stroke="#999999" points="247.5,-74 200.5,-74 200.5,-55 247.5,-55 247.5,-74"/>
<text text-anchor="middle" x="224" y="-62" font-family="Helvetica,sans-Serif" font-size="10.00">cmath</text>
</a>
</g>
</g>
<!-- Node14&#45;&gt;Node15 -->
<g id="edge16_Node000014_Node000015" class="edge">
<title>Node14&#45;&gt;Node15</title>
<g id="a_edge16_Node000014_Node000015"><a xlink:title=" ">
<path fill="none" stroke="#63b8ff" d="M222.33,-109.75C222.59,-102.8 222.97,-92.85 223.3,-84.13"/>
<polygon fill="#63b8ff" stroke="#63b8ff" points="226.8,-84.21 223.68,-74.09 219.8,-83.95 226.8,-84.21"/>
</a>
</g>
</g>
</g>
</svg>
