<?xml version="1.0" encoding="UTF-8" standalone="no"?>
<!DOCTYPE svg PUBLIC "-//W3C//DTD SVG 1.1//EN"
 "http://www.w3.org/Graphics/SVG/1.1/DTD/svg11.dtd">
<!-- Generated by graphviz version 2.43.0 (0)
 -->
<!-- Title: inc/NtcTypes.h Pages: 1 -->
<svg width="460pt" height="159pt"
 viewBox="0.00 0.00 459.50 159.00" xmlns="http://www.w3.org/2000/svg" xmlns:xlink="http://www.w3.org/1999/xlink">
<g id="graph0" class="graph" transform="scale(1 1) rotate(0) translate(4 155)">
<title>inc/NtcTypes.h</title>
<!-- Node1 -->
<g id="Node000001" class="node">
<title>Node1</title>
<g id="a_Node000001"><a xlink:title="Type definitions for NTC thermistor driver.">
<polygon fill="#999999" stroke="#666666" points="359.5,-151 272.5,-151 272.5,-132 359.5,-132 359.5,-151"/>
<text text-anchor="middle" x="316" y="-139" font-family="Helvetica,sans-Serif" font-size="10.00">inc/NtcTypes.h</text>
</a>
</g>
</g>
<!-- Node2 -->
<g id="Node000002" class="node">
<title>Node2</title>
<g id="a_Node000002"><a xlink:href="NtcThermistor_8h.html" target="_top" xlink:title="Hardware&#45;agnostic NTC thermistor driver for temperature measurement.">
<polygon fill="white" stroke="#666666" points="302,-96 190,-96 190,-77 302,-77 302,-96"/>
<text text-anchor="middle" x="246" y="-84" font-family="Helvetica,sans-Serif" font-size="10.00">inc/NtcThermistor.h</text>
</a>
</g>
</g>
<!-- Node1&#45;&gt;Node2 -->
<g id="edge1_Node000001_Node000002" class="edge">
<title>Node1&#45;&gt;Node2</title>
<g id="a_edge1_Node000001_Node000002"><a xlink:title=" ">
<path fill="none" stroke="#63b8ff" d="M296.69,-125.88C284.09,-116.34 268.07,-104.21 257.45,-96.17"/>
<polygon fill="#63b8ff" stroke="#63b8ff" points="294.67,-128.74 304.75,-131.98 298.89,-123.16 294.67,-128.74"/>
</a>
</g>
</g>
<!-- Node5 -->
<g id="Node000005" class="node">
<title>Node5</title>
<g id="a_Node000005"><a xlink:href="NtcLookupTable_8cpp.html" target="_top" xlink:title="Lookup table implementation for NTC thermistor temperature conversion.">
<polygon fill="white" stroke="#666666" points="451.5,-96 320.5,-96 320.5,-77 451.5,-77 451.5,-96"/>
<text text-anchor="middle" x="386" y="-84" font-family="Helvetica,sans-Serif" font-size="10.00">src/NtcLookupTable.cpp</text>
</a>
</g>
</g>
<!-- Node1&#45;&gt;Node5 -->
<g id="edge5_Node000001_Node000005" class="edge">
<title>Node1&#45;&gt;Node5</title>
<g id="a_edge5_Node000001_Node000005"><a xlink:title=" ">
<path fill="none" stroke="#63b8ff" d="M335.31,-125.88C347.91,-116.34 363.93,-104.21 374.55,-96.17"/>
<polygon fill="#63b8ff" stroke="#63b8ff" points="333.11,-123.16 327.25,-131.98 337.33,-128.74 333.11,-123.16"/>
</a>
</g>
</g>
<!-- Node3 -->
<g id="Node000003" class="node">
<title>Node3</title>
<g id="a_Node000003"><a xlink:href="NtcThermistorComprehensiveTest_8cpp.html" target="_top" xlink:title="Comprehensive test suite for NTC Thermistor driver on ESP32&#45;C6.">
<polygon fill="white" stroke="#666666" points="166,-41 0,-41 0,0 166,0 166,-41"/>
<text text-anchor="start" x="8" y="-29" font-family="Helvetica,sans-Serif" font-size="10.00">examples/esp32/main</text>
<text text-anchor="start" x="8" y="-18" font-family="Helvetica,sans-Serif" font-size="10.00">/NtcThermistorComprehensive</text>
<text text-anchor="middle" x="83" y="-7" font-family="Helvetica,sans-Serif" font-size="10.00">Test.cpp</text>
</a>
</g>
</g>
<!-- Node2&#45;&gt;Node3 -->
<g id="edge2_Node000002_Node000003" class="edge">
<title>Node2&#45;&gt;Node3</title>
<g id="a_edge2_Node000002_Node000003"><a xlink:title=" ">
<path fill="none" stroke="#63b8ff" d="M214.66,-73.19C191.45,-64.08 159.37,-51.49 132.69,-41.01"/>
<polygon fill="#63b8ff" stroke="#63b8ff" points="213.43,-76.47 224.02,-76.87 215.99,-69.96 213.43,-76.47"/>
</a>
</g>
</g>
<!-- Node4 -->
<g id="Node000004" class="node">
<title>Node4</title>
<g id="a_Node000004"><a xlink:href="NtcThermistor_8cpp.html" target="_top" xlink:title="Hardware&#45;agnostic NTC thermistor driver implementation.">
<polygon fill="white" stroke="#666666" points="307.5,-30 184.5,-30 184.5,-11 307.5,-11 307.5,-30"/>
<text text-anchor="middle" x="246" y="-18" font-family="Helvetica,sans-Serif" font-size="10.00">src/NtcThermistor.cpp</text>
</a>
</g>
</g>
<!-- Node2&#45;&gt;Node4 -->
<g id="edge3_Node000002_Node000004" class="edge">
<title>Node2&#45;&gt;Node4</title>
<g id="a_edge3_Node000002_Node000004"><a xlink:title=" ">
<path fill="none" stroke="#63b8ff" d="M239.81,-66.95C238.75,-54.93 239.2,-39.82 241.15,-30.41"/>
<polygon fill="#63b8ff" stroke="#63b8ff" points="236.35,-67.46 241.21,-76.87 243.28,-66.48 236.35,-67.46"/>
</a>
</g>
</g>
<!-- Node4&#45;&gt;Node2 -->
<g id="edge4_Node000004_Node000002" class="edge">
<title>Node4&#45;&gt;Node2</title>
<g id="a_edge4_Node000004_Node000002"><a xlink:title=" ">
<path fill="none" stroke="#63b8ff" d="M252.22,-40.4C253.25,-52.48 252.78,-67.57 250.79,-76.87"/>
<polygon fill="#63b8ff" stroke="#63b8ff" points="255.68,-39.84 250.85,-30.41 248.74,-40.79 255.68,-39.84"/>
</a>
</g>
</g>
</g>
</svg>
