<?xml version="1.0" encoding="UTF-8" standalone="no"?>
<!DOCTYPE svg PUBLIC "-//W3C//DTD SVG 1.1//EN"
 "http://www.w3.org/Graphics/SVG/1.1/DTD/svg11.dtd">
<!-- Generated by graphviz version 2.43.0 (0)
 -->
<!-- Title: src/ntc_thermistor.cpp Pages: 1 -->
<svg width="179pt" height="159pt"
 viewBox="0.00 0.00 179.00 159.00" xmlns="http://www.w3.org/2000/svg" xmlns:xlink="http://www.w3.org/1999/xlink">
<g id="graph0" class="graph" transform="scale(1 1) rotate(0) translate(4 155)">
<title>src/ntc_thermistor.cpp</title>
<!-- Node1 -->
<g id="Node000001" class="node">
<title>Node1</title>
<g id="a_Node000001"><a xlink:title="Hardware&#45;agnostic NTC thermistor driver implementation.">
<polygon fill="#999999" stroke="#666666" points="148,-151 23,-151 23,-132 148,-132 148,-151"/>
<text text-anchor="middle" x="85.5" y="-139" font-family="Helvetica,sans-Serif" font-size="10.00">src/ntc_thermistor.cpp</text>
</a>
</g>
</g>
<!-- Node2 -->
<g id="Node000002" class="node">
<title>Node2</title>
<g id="a_Node000002"><a xlink:href="ntc__thermistor_8hpp.html" target="_top" xlink:title="Hardware&#45;agnostic NTC thermistor driver for temperature measurement.">
<polygon fill="white" stroke="#666666" points="148,-96 23,-96 23,-77 148,-77 148,-96"/>
<text text-anchor="middle" x="85.5" y="-84" font-family="Helvetica,sans-Serif" font-size="10.00">inc/ntc_thermistor.hpp</text>
</a>
</g>
</g>
<!-- Node1&#45;&gt;Node2 -->
<g id="edge1_Node000001_Node000002" class="edge">
<title>Node1&#45;&gt;Node2</title>
<g id="a_edge1_Node000001_Node000002"><a xlink:title=" ">
<path fill="none" stroke="#63b8ff" d="M79.01,-121.66C78.41,-112.93 78.86,-102.99 80.37,-96.09"/>
<polygon fill="#63b8ff" stroke="#63b8ff" points="75.56,-122.29 80.33,-131.75 82.5,-121.38 75.56,-122.29"/>
</a>
</g>
</g>
<!-- Node2&#45;&gt;Node1 -->
<g id="edge3_Node000002_Node000001" class="edge">
<title>Node2&#45;&gt;Node1</title>
<g id="a_edge3_Node000002_Node000001"><a xlink:title=" ">
<path fill="none" stroke="#63b8ff" d="M91.98,-106.13C92.6,-114.85 92.16,-124.8 90.67,-131.75"/>
<polygon fill="#63b8ff" stroke="#63b8ff" points="95.43,-105.53 90.63,-96.09 88.49,-106.47 95.43,-105.53"/>
</a>
</g>
</g>
<!-- Node3 -->
<g id="Node000003" class="node">
<title>Node3</title>
<g id="a_Node000003"><a xlink:href="ntc__thermistor__comprehensive__test_8cpp.html" target="_top" xlink:title="Comprehensive test suite for NTC Thermistor driver on ESP32&#45;C6.">
<polygon fill="white" stroke="#666666" points="171,-41 0,-41 0,0 171,0 171,-41"/>
<text text-anchor="start" x="8" y="-29" font-family="Helvetica,sans-Serif" font-size="10.00">examples/esp32/main</text>
<text text-anchor="start" x="8" y="-18" font-family="Helvetica,sans-Serif" font-size="10.00">/ntc_thermistor_comprehensive</text>
<text text-anchor="middle" x="85.5" y="-7" font-family="Helvetica,sans-Serif" font-size="10.00">_test.cpp</text>
</a>
</g>
</g>
<!-- Node2&#45;&gt;Node3 -->
<g id="edge2_Node000002_Node000003" class="edge">
<title>Node2&#45;&gt;Node3</title>
<g id="a_edge2_Node000002_Node000003"><a xlink:title=" ">
<path fill="none" stroke="#63b8ff" d="M85.5,-66.63C85.5,-58.56 85.5,-49.15 85.5,-41.01"/>
<polygon fill="#63b8ff" stroke="#63b8ff" points="82,-66.87 85.5,-76.87 89,-66.87 82,-66.87"/>
</a>
</g>
</g>
</g>
</svg>
