<?xml version="1.0" encoding="UTF-8" standalone="no"?>
<!DOCTYPE svg PUBLIC "-//W3C//DTD SVG 1.1//EN"
 "http://www.w3.org/Graphics/SVG/1.1/DTD/svg11.dtd">
<!-- Generated by graphviz version 2.43.0 (0)
 -->
<!-- Title: src/ntc_thermistor.cpp Pages: 1 -->
<svg width="600pt" height="192pt"
 viewBox="0.00 0.00 600.00 192.00" xmlns="http://www.w3.org/2000/svg" xmlns:xlink="http://www.w3.org/1999/xlink">
<g id="graph0" class="graph" transform="scale(1 1) rotate(0) translate(4 188)">
<title>src/ntc_thermistor.cpp</title>
<!-- Node1 -->
<g id="Node000001" class="node">
<title>Node1</title>
<g id="a_Node000001"><a xlink:title="Hardware&#45;agnostic NTC thermistor driver implementation.">
<polygon fill="#999999" stroke="#666666" points="400,-184 275,-184 275,-165 400,-165 400,-184"/>
<text text-anchor="middle" x="337.5" y="-172" font-family="Helvetica,sans-Serif" font-size="10.00">src/ntc_thermistor.cpp</text>
</a>
</g>
</g>
<!-- Node2 -->
<g id="Node000002" class="node">
<title>Node2</title>
<g id="a_Node000002"><a xlink:href="ntc__conversion_8hpp.html" target="_top" xlink:title="Mathematical conversion functions for NTC thermistor temperature calculation.">
<polygon fill="white" stroke="#666666" points="127,-129 16,-129 16,-110 127,-110 127,-129"/>
<text text-anchor="middle" x="71.5" y="-117" font-family="Helvetica,sans-Serif" font-size="10.00">ntc_conversion.hpp</text>
</a>
</g>
</g>
<!-- Node1&#45;&gt;Node2 -->
<g id="edge1_Node000001_Node000002" class="edge">
<title>Node1&#45;&gt;Node2</title>
<g id="a_edge1_Node000001_Node000002"><a xlink:title=" ">
<path fill="none" stroke="#63b8ff" d="M294.76,-164.98C248.46,-155.76 174.52,-141.03 124.54,-131.07"/>
<polygon fill="#63b8ff" stroke="#63b8ff" points="125.06,-127.6 114.57,-129.08 123.7,-134.47 125.06,-127.6"/>
</a>
</g>
</g>
<!-- Node3 -->
<g id="Node000003" class="node">
<title>Node3</title>
<g id="a_Node000003"><a xlink:title=" ">
<polygon fill="#e0e0e0" stroke="#999999" points="47,-74 0,-74 0,-55 47,-55 47,-74"/>
<text text-anchor="middle" x="23.5" y="-62" font-family="Helvetica,sans-Serif" font-size="10.00">cmath</text>
</a>
</g>
</g>
<!-- Node1&#45;&gt;Node3 -->
<g id="edge16_Node000001_Node000003" class="edge">
<title>Node1&#45;&gt;Node3</title>
<g id="a_edge16_Node000001_Node000003"><a xlink:title=" ">
<path fill="none" stroke="#63b8ff" d="M274.95,-174.45C188.88,-174.26 40.66,-168.06 6.5,-129 -4.61,-116.3 2.79,-97.08 11.02,-83.12"/>
<polygon fill="#63b8ff" stroke="#63b8ff" points="14.14,-84.73 16.63,-74.43 8.26,-80.93 14.14,-84.73"/>
</a>
</g>
</g>
<!-- Node5 -->
<g id="Node000005" class="node">
<title>Node5</title>
<g id="a_Node000005"><a xlink:href="ntc__lookup__table_8hpp.html" target="_top" xlink:title="Lookup table implementation for NTC thermistor temperature conversion.">
<polygon fill="white" stroke="#666666" points="265.5,-129 145.5,-129 145.5,-110 265.5,-110 265.5,-129"/>
<text text-anchor="middle" x="205.5" y="-117" font-family="Helvetica,sans-Serif" font-size="10.00">ntc_lookup_table.hpp</text>
</a>
</g>
</g>
<!-- Node1&#45;&gt;Node5 -->
<g id="edge4_Node000001_Node000005" class="edge">
<title>Node1&#45;&gt;Node5</title>
<g id="a_edge4_Node000001_Node000005"><a xlink:title=" ">
<path fill="none" stroke="#63b8ff" d="M316.29,-164.98C294.77,-156.34 261.22,-142.87 236.67,-133.02"/>
<polygon fill="#63b8ff" stroke="#63b8ff" points="237.68,-129.65 227.09,-129.17 235.07,-136.14 237.68,-129.65"/>
</a>
</g>
</g>
<!-- Node7 -->
<g id="Node000007" class="node">
<title>Node7</title>
<g id="a_Node000007"><a xlink:href="ntc__thermistor_8hpp.html" target="_top" xlink:title="Hardware&#45;agnostic NTC thermistor driver for temperature measurement.">
<polygon fill="white" stroke="#666666" points="391.5,-129 283.5,-129 283.5,-110 391.5,-110 391.5,-129"/>
<text text-anchor="middle" x="337.5" y="-117" font-family="Helvetica,sans-Serif" font-size="10.00">ntc_thermistor.hpp</text>
</a>
</g>
</g>
<!-- Node1&#45;&gt;Node7 -->
<g id="edge7_Node000001_Node000007" class="edge">
<title>Node1&#45;&gt;Node7</title>
<g id="a_edge7_Node000001_Node000007"><a xlink:title=" ">
<path fill="none" stroke="#63b8ff" d="M332.33,-164.75C330.84,-157.8 330.4,-147.85 331.02,-139.13"/>
<polygon fill="#63b8ff" stroke="#63b8ff" points="334.51,-139.47 332.37,-129.09 327.57,-138.53 334.51,-139.47"/>
</a>
</g>
</g>
<!-- Node11 -->
<g id="Node000011" class="node">
<title>Node11</title>
<g id="a_Node000011"><a xlink:title=" ">
<polygon fill="#e0e0e0" stroke="#999999" points="473.5,-129 409.5,-129 409.5,-110 473.5,-110 473.5,-129"/>
<text text-anchor="middle" x="441.5" y="-117" font-family="Helvetica,sans-Serif" font-size="10.00">algorithm</text>
</a>
</g>
</g>
<!-- Node1&#45;&gt;Node11 -->
<g id="edge15_Node000001_Node000011" class="edge">
<title>Node1&#45;&gt;Node11</title>
<g id="a_edge15_Node000001_Node000011"><a xlink:title=" ">
<path fill="none" stroke="#63b8ff" d="M354.21,-164.98C370.71,-156.57 396.2,-143.59 415.38,-133.81"/>
<polygon fill="#63b8ff" stroke="#63b8ff" points="417.17,-136.83 424.49,-129.17 413.99,-130.59 417.17,-136.83"/>
</a>
</g>
</g>
<!-- Node12 -->
<g id="Node000012" class="node">
<title>Node12</title>
<g id="a_Node000012"><a xlink:title=" ">
<polygon fill="#e0e0e0" stroke="#999999" points="541.5,-129 491.5,-129 491.5,-110 541.5,-110 541.5,-129"/>
<text text-anchor="middle" x="516.5" y="-117" font-family="Helvetica,sans-Serif" font-size="10.00">cstring</text>
</a>
</g>
</g>
<!-- Node1&#45;&gt;Node12 -->
<g id="edge17_Node000001_Node000012" class="edge">
<title>Node1&#45;&gt;Node12</title>
<g id="a_edge17_Node000001_Node000012"><a xlink:title=" ">
<path fill="none" stroke="#63b8ff" d="M366.26,-164.98C397.61,-155.7 447.77,-140.85 481.41,-130.89"/>
<polygon fill="#63b8ff" stroke="#63b8ff" points="482.69,-134.16 491.28,-127.97 480.7,-127.45 482.69,-134.16"/>
</a>
</g>
</g>
<!-- Node2&#45;&gt;Node3 -->
<g id="edge2_Node000002_Node000003" class="edge">
<title>Node2&#45;&gt;Node3</title>
<g id="a_edge2_Node000002_Node000003"><a xlink:title=" ">
<path fill="none" stroke="#63b8ff" d="M63.57,-109.75C56.65,-102.11 46.43,-90.82 38.05,-81.56"/>
<polygon fill="#63b8ff" stroke="#63b8ff" points="40.59,-79.15 31.28,-74.09 35.4,-83.85 40.59,-79.15"/>
</a>
</g>
</g>
<!-- Node4 -->
<g id="Node000004" class="node">
<title>Node4</title>
<g id="a_Node000004"><a xlink:title=" ">
<polygon fill="#e0e0e0" stroke="#999999" points="285.5,-19 235.5,-19 235.5,0 285.5,0 285.5,-19"/>
<text text-anchor="middle" x="260.5" y="-7" font-family="Helvetica,sans-Serif" font-size="10.00">cstdint</text>
</a>
</g>
</g>
<!-- Node2&#45;&gt;Node4 -->
<g id="edge3_Node000002_Node000004" class="edge">
<title>Node2&#45;&gt;Node4</title>
<g id="a_edge3_Node000002_Node000004"><a xlink:title=" ">
<path fill="none" stroke="#63b8ff" d="M82.28,-110C98.89,-97.13 132.03,-72.35 162.5,-55 184.03,-42.74 209.55,-31.24 229.15,-23"/>
<polygon fill="#63b8ff" stroke="#63b8ff" points="230.63,-26.18 238.53,-19.12 227.95,-19.71 230.63,-26.18"/>
</a>
</g>
</g>
<!-- Node5&#45;&gt;Node4 -->
<g id="edge6_Node000005_Node000004" class="edge">
<title>Node5&#45;&gt;Node4</title>
<g id="a_edge6_Node000005_Node000004"><a xlink:title=" ">
<path fill="none" stroke="#63b8ff" d="M194.18,-109.74C179.63,-97.36 157.56,-74.14 169.5,-55 181.69,-35.47 205.2,-24.28 225.27,-18.01"/>
<polygon fill="#63b8ff" stroke="#63b8ff" points="226.41,-21.32 235.08,-15.23 224.5,-14.59 226.41,-21.32"/>
</a>
</g>
</g>
<!-- Node6 -->
<g id="Node000006" class="node">
<title>Node6</title>
<g id="a_Node000006"><a xlink:title=" ">
<polygon fill="#e0e0e0" stroke="#999999" points="232,-74 179,-74 179,-55 232,-55 232,-74"/>
<text text-anchor="middle" x="205.5" y="-62" font-family="Helvetica,sans-Serif" font-size="10.00">cstddef</text>
</a>
</g>
</g>
<!-- Node5&#45;&gt;Node6 -->
<g id="edge5_Node000005_Node000006" class="edge">
<title>Node5&#45;&gt;Node6</title>
<g id="a_edge5_Node000005_Node000006"><a xlink:title=" ">
<path fill="none" stroke="#63b8ff" d="M205.5,-109.75C205.5,-102.8 205.5,-92.85 205.5,-84.13"/>
<polygon fill="#63b8ff" stroke="#63b8ff" points="209,-84.09 205.5,-74.09 202,-84.09 209,-84.09"/>
</a>
</g>
</g>
<!-- Node7&#45;&gt;Node1 -->
<g id="edge14_Node000007_Node000001" class="edge">
<title>Node7&#45;&gt;Node1</title>
<g id="a_edge14_Node000007_Node000001"><a xlink:title=" ">
<path fill="none" stroke="#63b8ff" d="M342.63,-129.09C344.14,-135.99 344.59,-145.93 343.99,-154.66"/>
<polygon fill="#63b8ff" stroke="#63b8ff" points="340.5,-154.38 342.67,-164.75 347.44,-155.29 340.5,-154.38"/>
</a>
</g>
</g>
<!-- Node7&#45;&gt;Node4 -->
<g id="edge8_Node000007_Node000004" class="edge">
<title>Node7&#45;&gt;Node4</title>
<g id="a_edge8_Node000007_Node000004"><a xlink:title=" ">
<path fill="none" stroke="#63b8ff" d="M321.46,-109.99C308.36,-102.26 290.31,-89.67 279.5,-74 270.21,-60.53 265.38,-42.43 262.92,-29.01"/>
<polygon fill="#63b8ff" stroke="#63b8ff" points="266.36,-28.37 261.37,-19.03 259.45,-29.45 266.36,-28.37"/>
</a>
</g>
</g>
<!-- Node8 -->
<g id="Node000008" class="node">
<title>Node8</title>
<g id="a_Node000008"><a xlink:title=" ">
<polygon fill="#e0e0e0" stroke="#999999" points="346.5,-74 288.5,-74 288.5,-55 346.5,-55 346.5,-74"/>
<text text-anchor="middle" x="317.5" y="-62" font-family="Helvetica,sans-Serif" font-size="10.00">memory</text>
</a>
</g>
</g>
<!-- Node7&#45;&gt;Node8 -->
<g id="edge9_Node000007_Node000008" class="edge">
<title>Node7&#45;&gt;Node8</title>
<g id="a_edge9_Node000007_Node000008"><a xlink:title=" ">
<path fill="none" stroke="#63b8ff" d="M334.2,-109.75C331.52,-102.65 327.65,-92.4 324.31,-83.56"/>
<polygon fill="#63b8ff" stroke="#63b8ff" points="327.55,-82.21 320.74,-74.09 321,-84.68 327.55,-82.21"/>
</a>
</g>
</g>
<!-- Node9 -->
<g id="Node000009" class="node">
<title>Node9</title>
<g id="a_Node000009"><a xlink:href="ntc__adc__interface_8hpp.html" target="_top" xlink:title="CRTP&#45;based template interface for ADC used by NTC thermistor driver.">
<polygon fill="white" stroke="#666666" points="488.5,-74 364.5,-74 364.5,-55 488.5,-55 488.5,-74"/>
<text text-anchor="middle" x="426.5" y="-62" font-family="Helvetica,sans-Serif" font-size="10.00">ntc_adc_interface.hpp</text>
</a>
</g>
</g>
<!-- Node7&#45;&gt;Node9 -->
<g id="edge10_Node000007_Node000009" class="edge">
<title>Node7&#45;&gt;Node9</title>
<g id="a_edge10_Node000007_Node000009"><a xlink:title=" ">
<path fill="none" stroke="#63b8ff" d="M351.8,-109.98C365.6,-101.77 386.74,-89.18 403.01,-79.49"/>
<polygon fill="#63b8ff" stroke="#63b8ff" points="405.14,-82.29 411.94,-74.17 401.56,-76.28 405.14,-82.29"/>
</a>
</g>
</g>
<!-- Node10 -->
<g id="Node000010" class="node">
<title>Node10</title>
<g id="a_Node000010"><a xlink:href="ntc__types_8hpp.html" target="_top" xlink:title="Type definitions for NTC thermistor driver.">
<polygon fill="white" stroke="#666666" points="592,-74 507,-74 507,-55 592,-55 592,-74"/>
<text text-anchor="middle" x="549.5" y="-62" font-family="Helvetica,sans-Serif" font-size="10.00">ntc_types.hpp</text>
</a>
</g>
</g>
<!-- Node7&#45;&gt;Node10 -->
<g id="edge12_Node000007_Node000010" class="edge">
<title>Node7&#45;&gt;Node10</title>
<g id="a_edge12_Node000007_Node000010"><a xlink:title=" ">
<path fill="none" stroke="#63b8ff" d="M371.56,-109.98C407.92,-100.89 465.67,-86.46 505.47,-76.51"/>
<polygon fill="#63b8ff" stroke="#63b8ff" points="506.32,-79.9 515.17,-74.08 504.62,-73.11 506.32,-79.9"/>
</a>
</g>
</g>
<!-- Node9&#45;&gt;Node4 -->
<g id="edge11_Node000009_Node000004" class="edge">
<title>Node9&#45;&gt;Node4</title>
<g id="a_edge11_Node000009_Node000004"><a xlink:title=" ">
<path fill="none" stroke="#63b8ff" d="M399.83,-54.98C371.46,-45.93 326.48,-31.57 295.33,-21.62"/>
<polygon fill="#63b8ff" stroke="#63b8ff" points="296.34,-18.27 285.74,-18.56 294.21,-24.94 296.34,-18.27"/>
</a>
</g>
</g>
<!-- Node10&#45;&gt;Node4 -->
<g id="edge13_Node000010_Node000004" class="edge">
<title>Node10&#45;&gt;Node4</title>
<g id="a_edge13_Node000010_Node000004"><a xlink:title=" ">
<path fill="none" stroke="#63b8ff" d="M506.86,-55.68C449.6,-45.18 348.92,-26.72 295.73,-16.96"/>
<polygon fill="#63b8ff" stroke="#63b8ff" points="296.21,-13.49 285.75,-15.13 294.95,-20.38 296.21,-13.49"/>
</a>
</g>
</g>
</g>
</svg>
