<?xml version="1.0" encoding="UTF-8" standalone="no"?>
<!DOCTYPE svg PUBLIC "-//W3C//DTD SVG 1.1//EN"
 "http://www.w3.org/Graphics/SVG/1.1/DTD/svg11.dtd">
<!-- Generated by graphviz version 2.43.0 (0)
 -->
<!-- Title: inc/NtcConversion.h Pages: 1 -->
<svg width="296pt" height="214pt"
 viewBox="0.00 0.00 295.50 214.00" xmlns="http://www.w3.org/2000/svg" xmlns:xlink="http://www.w3.org/1999/xlink">
<g id="graph0" class="graph" transform="scale(1 1) rotate(0) translate(4 210)">
<title>inc/NtcConversion.h</title>
<!-- Node1 -->
<g id="Node000001" class="node">
<title>Node1</title>
<g id="a_Node000001"><a xlink:title="Mathematical conversion functions for NTC thermistor temperature calculation.">
<polygon fill="#999999" stroke="#666666" points="190.5,-206 76.5,-206 76.5,-187 190.5,-187 190.5,-206"/>
<text text-anchor="middle" x="133.5" y="-194" font-family="Helvetica,sans-Serif" font-size="10.00">inc/NtcConversion.h</text>
</a>
</g>
</g>
<!-- Node2 -->
<g id="Node000002" class="node">
<title>Node2</title>
<g id="a_Node000002"><a xlink:href="NtcConversion_8cpp.html" target="_top" xlink:title="Mathematical conversion functions for NTC thermistor temperature calculation.">
<polygon fill="white" stroke="#666666" points="125,-151 0,-151 0,-132 125,-132 125,-151"/>
<text text-anchor="middle" x="62.5" y="-139" font-family="Helvetica,sans-Serif" font-size="10.00">src/NtcConversion.cpp</text>
</a>
</g>
</g>
<!-- Node1&#45;&gt;Node2 -->
<g id="edge1_Node000001_Node000002" class="edge">
<title>Node1&#45;&gt;Node2</title>
<g id="a_edge1_Node000001_Node000002"><a xlink:title=" ">
<path fill="none" stroke="#63b8ff" d="M113.91,-180.88C101.13,-171.34 84.89,-159.21 74.11,-151.17"/>
<polygon fill="#63b8ff" stroke="#63b8ff" points="111.99,-183.81 122.09,-186.98 116.17,-178.2 111.99,-183.81"/>
</a>
</g>
</g>
<!-- Node3 -->
<g id="Node000003" class="node">
<title>Node3</title>
<g id="a_Node000003"><a xlink:href="NtcThermistor_8cpp.html" target="_top" xlink:title="Hardware&#45;agnostic NTC thermistor driver implementation.">
<polygon fill="white" stroke="#666666" points="266,-151 143,-151 143,-132 266,-132 266,-151"/>
<text text-anchor="middle" x="204.5" y="-139" font-family="Helvetica,sans-Serif" font-size="10.00">src/NtcThermistor.cpp</text>
</a>
</g>
</g>
<!-- Node1&#45;&gt;Node3 -->
<g id="edge2_Node000001_Node000003" class="edge">
<title>Node1&#45;&gt;Node3</title>
<g id="a_edge2_Node000001_Node000003"><a xlink:title=" ">
<path fill="none" stroke="#63b8ff" d="M153.09,-180.88C165.87,-171.34 182.11,-159.21 192.89,-151.17"/>
<polygon fill="#63b8ff" stroke="#63b8ff" points="150.83,-178.2 144.91,-186.98 155.01,-183.81 150.83,-178.2"/>
</a>
</g>
</g>
<!-- Node4 -->
<g id="Node000004" class="node">
<title>Node4</title>
<g id="a_Node000004"><a xlink:href="NtcThermistor_8h.html" target="_top" xlink:title="Hardware&#45;agnostic NTC thermistor driver for temperature measurement.">
<polygon fill="white" stroke="#666666" points="260.5,-96 148.5,-96 148.5,-77 260.5,-77 260.5,-96"/>
<text text-anchor="middle" x="204.5" y="-84" font-family="Helvetica,sans-Serif" font-size="10.00">inc/NtcThermistor.h</text>
</a>
</g>
</g>
<!-- Node3&#45;&gt;Node4 -->
<g id="edge3_Node000003_Node000004" class="edge">
<title>Node3&#45;&gt;Node4</title>
<g id="a_edge3_Node000003_Node000004"><a xlink:title=" ">
<path fill="none" stroke="#63b8ff" d="M198.01,-121.66C197.41,-112.93 197.86,-102.99 199.37,-96.09"/>
<polygon fill="#63b8ff" stroke="#63b8ff" points="194.56,-122.29 199.33,-131.75 201.5,-121.38 194.56,-122.29"/>
</a>
</g>
</g>
<!-- Node4&#45;&gt;Node3 -->
<g id="edge5_Node000004_Node000003" class="edge">
<title>Node4&#45;&gt;Node3</title>
<g id="a_edge5_Node000004_Node000003"><a xlink:title=" ">
<path fill="none" stroke="#63b8ff" d="M210.98,-106.13C211.6,-114.85 211.16,-124.8 209.67,-131.75"/>
<polygon fill="#63b8ff" stroke="#63b8ff" points="214.43,-105.53 209.63,-96.09 207.49,-106.47 214.43,-105.53"/>
</a>
</g>
</g>
<!-- Node5 -->
<g id="Node000005" class="node">
<title>Node5</title>
<g id="a_Node000005"><a xlink:href="NtcThermistorComprehensiveTest_8cpp.html" target="_top" xlink:title="Comprehensive test suite for NTC Thermistor driver on ESP32&#45;C6.">
<polygon fill="white" stroke="#666666" points="287.5,-41 121.5,-41 121.5,0 287.5,0 287.5,-41"/>
<text text-anchor="start" x="129.5" y="-29" font-family="Helvetica,sans-Serif" font-size="10.00">examples/esp32/main</text>
<text text-anchor="start" x="129.5" y="-18" font-family="Helvetica,sans-Serif" font-size="10.00">/NtcThermistorComprehensive</text>
<text text-anchor="middle" x="204.5" y="-7" font-family="Helvetica,sans-Serif" font-size="10.00">Test.cpp</text>
</a>
</g>
</g>
<!-- Node4&#45;&gt;Node5 -->
<g id="edge4_Node000004_Node000005" class="edge">
<title>Node4&#45;&gt;Node5</title>
<g id="a_edge4_Node000004_Node000005"><a xlink:title=" ">
<path fill="none" stroke="#63b8ff" d="M204.5,-66.63C204.5,-58.56 204.5,-49.15 204.5,-41.01"/>
<polygon fill="#63b8ff" stroke="#63b8ff" points="201,-66.87 204.5,-76.87 208,-66.87 201,-66.87"/>
</a>
</g>
</g>
</g>
</svg>
