<?xml version="1.0" encoding="UTF-8" standalone="no"?>
<!DOCTYPE svg PUBLIC "-//W3C//DTD SVG 1.1//EN"
 "http://www.w3.org/Graphics/SVG/1.1/DTD/svg11.dtd">
<!-- Generated by graphviz version 2.43.0 (0)
 -->
<!-- Title: inc/ntc_thermistor.hpp Pages: 1 -->
<svg width="566pt" height="192pt"
 viewBox="0.00 0.00 565.74 192.00" xmlns="http://www.w3.org/2000/svg" xmlns:xlink="http://www.w3.org/1999/xlink">
<g id="graph0" class="graph" transform="scale(1 1) rotate(0) translate(4 188)">
<title>inc/ntc_thermistor.hpp</title>
<!-- Node1 -->
<g id="Node000001" class="node">
<title>Node1</title>
<g id="a_Node000001"><a xlink:title="Hardware&#45;agnostic NTC thermistor driver for temperature measurement.">
<polygon fill="#999999" stroke="#666666" points="329.24,-184 204.24,-184 204.24,-165 329.24,-165 329.24,-184"/>
<text text-anchor="middle" x="266.74" y="-172" font-family="Helvetica,sans-Serif" font-size="10.00">inc/ntc_thermistor.hpp</text>
</a>
</g>
</g>
<!-- Node2 -->
<g id="Node000002" class="node">
<title>Node2</title>
<g id="a_Node000002"><a xlink:title=" ">
<polygon fill="#e0e0e0" stroke="#999999" points="116.74,-19 66.74,-19 66.74,0 116.74,0 116.74,-19"/>
<text text-anchor="middle" x="91.74" y="-7" font-family="Helvetica,sans-Serif" font-size="10.00">cstdint</text>
</a>
</g>
</g>
<!-- Node1&#45;&gt;Node2 -->
<g id="edge1_Node000001_Node000002" class="edge">
<title>Node1&#45;&gt;Node2</title>
<g id="a_edge1_Node000001_Node000002"><a xlink:title=" ">
<path fill="none" stroke="#63b8ff" d="M204.04,-171.65C135.84,-168.15 33.23,-158.07 8.74,-129 -21.12,-93.55 35.18,-47.64 68.95,-24.77"/>
<polygon fill="#63b8ff" stroke="#63b8ff" points="70.96,-27.64 77.39,-19.21 67.11,-21.79 70.96,-27.64"/>
</a>
</g>
</g>
<!-- Node3 -->
<g id="Node000003" class="node">
<title>Node3</title>
<g id="a_Node000003"><a xlink:title=" ">
<polygon fill="#e0e0e0" stroke="#999999" points="473.74,-129 415.74,-129 415.74,-110 473.74,-110 473.74,-129"/>
<text text-anchor="middle" x="444.74" y="-117" font-family="Helvetica,sans-Serif" font-size="10.00">memory</text>
</a>
</g>
</g>
<!-- Node1&#45;&gt;Node3 -->
<g id="edge2_Node000001_Node000003" class="edge">
<title>Node1&#45;&gt;Node3</title>
<g id="a_edge2_Node000001_Node000003"><a xlink:title=" ">
<path fill="none" stroke="#63b8ff" d="M295.34,-164.98C325.35,-156.05 372.72,-141.94 406.06,-132.02"/>
<polygon fill="#63b8ff" stroke="#63b8ff" points="407.33,-135.29 415.92,-129.08 405.33,-128.58 407.33,-135.29"/>
</a>
</g>
</g>
<!-- Node4 -->
<g id="Node000004" class="node">
<title>Node4</title>
<g id="a_Node000004"><a xlink:href="ntc__adc__interface_8hpp.html" target="_top" xlink:title="CRTP&#45;based template interface for ADC used by NTC thermistor driver.">
<polygon fill="white" stroke="#666666" points="141.74,-129 17.74,-129 17.74,-110 141.74,-110 141.74,-129"/>
<text text-anchor="middle" x="79.74" y="-117" font-family="Helvetica,sans-Serif" font-size="10.00">ntc_adc_interface.hpp</text>
</a>
</g>
</g>
<!-- Node1&#45;&gt;Node4 -->
<g id="edge3_Node000001_Node000004" class="edge">
<title>Node1&#45;&gt;Node4</title>
<g id="a_edge3_Node000001_Node000004"><a xlink:title=" ">
<path fill="none" stroke="#63b8ff" d="M236.69,-164.98C205.03,-156.01 154.97,-141.82 119.93,-131.89"/>
<polygon fill="#63b8ff" stroke="#63b8ff" points="120.6,-128.44 110.02,-129.08 118.69,-135.18 120.6,-128.44"/>
</a>
</g>
</g>
<!-- Node5 -->
<g id="Node000005" class="node">
<title>Node5</title>
<g id="a_Node000005"><a xlink:href="ntc__types_8hpp.html" target="_top" xlink:title="Type definitions for NTC thermistor driver.">
<polygon fill="white" stroke="#666666" points="245.24,-129 160.24,-129 160.24,-110 245.24,-110 245.24,-129"/>
<text text-anchor="middle" x="202.74" y="-117" font-family="Helvetica,sans-Serif" font-size="10.00">ntc_types.hpp</text>
</a>
</g>
</g>
<!-- Node1&#45;&gt;Node5 -->
<g id="edge5_Node000001_Node000005" class="edge">
<title>Node1&#45;&gt;Node5</title>
<g id="a_edge5_Node000001_Node000005"><a xlink:title=" ">
<path fill="none" stroke="#63b8ff" d="M256.46,-164.98C246.9,-157.07 232.46,-145.11 220.96,-135.58"/>
<polygon fill="#63b8ff" stroke="#63b8ff" points="223.14,-132.85 213.21,-129.17 218.68,-138.24 223.14,-132.85"/>
</a>
</g>
</g>
<!-- Node6 -->
<g id="Node000006" class="node">
<title>Node6</title>
<g id="a_Node000006"><a xlink:href="ntc__thermistor_8cpp.html" target="_top" xlink:title="Hardware&#45;agnostic NTC thermistor driver implementation.">
<polygon fill="white" stroke="#666666" points="397.74,-129 263.74,-129 263.74,-110 397.74,-110 397.74,-129"/>
<text text-anchor="middle" x="330.74" y="-117" font-family="Helvetica,sans-Serif" font-size="10.00">../src/ntc_thermistor.cpp</text>
</a>
</g>
</g>
<!-- Node1&#45;&gt;Node6 -->
<g id="edge7_Node000001_Node000006" class="edge">
<title>Node1&#45;&gt;Node6</title>
<g id="a_edge7_Node000001_Node000006"><a xlink:title=" ">
<path fill="none" stroke="#63b8ff" d="M272.14,-164.75C280.11,-156.72 294.34,-144.67 306.9,-135.18"/>
<polygon fill="#63b8ff" stroke="#63b8ff" points="309.23,-137.81 315.24,-129.09 305.1,-132.16 309.23,-137.81"/>
</a>
</g>
</g>
<!-- Node4&#45;&gt;Node2 -->
<g id="edge4_Node000004_Node000002" class="edge">
<title>Node4&#45;&gt;Node2</title>
<g id="a_edge4_Node000004_Node000002"><a xlink:title=" ">
<path fill="none" stroke="#63b8ff" d="M78.47,-109.81C76.89,-97.52 74.76,-74.41 77.74,-55 79.09,-46.19 81.87,-36.74 84.59,-28.82"/>
<polygon fill="#63b8ff" stroke="#63b8ff" points="87.97,-29.77 88.14,-19.18 81.4,-27.35 87.97,-29.77"/>
</a>
</g>
</g>
<!-- Node5&#45;&gt;Node2 -->
<g id="edge6_Node000005_Node000002" class="edge">
<title>Node5&#45;&gt;Node2</title>
<g id="a_edge6_Node000005_Node000002"><a xlink:title=" ">
<path fill="none" stroke="#63b8ff" d="M170.03,-109.99C150.28,-103.27 126.04,-91.96 110.74,-74 100.13,-61.54 95.45,-43.34 93.38,-29.61"/>
<polygon fill="#63b8ff" stroke="#63b8ff" points="96.82,-28.88 92.18,-19.35 89.86,-29.69 96.82,-28.88"/>
</a>
</g>
</g>
<!-- Node6&#45;&gt;Node1 -->
<g id="edge14_Node000006_Node000001" class="edge">
<title>Node6&#45;&gt;Node1</title>
<g id="a_edge14_Node000006_Node000001"><a xlink:title=" ">
<path fill="none" stroke="#63b8ff" d="M325.42,-129.17C317.45,-137.21 303.13,-149.34 290.51,-158.88"/>
<polygon fill="#63b8ff" stroke="#63b8ff" points="288.15,-156.26 282.14,-164.98 292.28,-161.92 288.15,-156.26"/>
</a>
</g>
</g>
<!-- Node7 -->
<g id="Node000007" class="node">
<title>Node7</title>
<g id="a_Node000007"><a xlink:href="ntc__conversion_8hpp.html" target="_top" xlink:title="Mathematical conversion functions for NTC thermistor temperature calculation.">
<polygon fill="white" stroke="#666666" points="437.24,-74 326.24,-74 326.24,-55 437.24,-55 437.24,-74"/>
<text text-anchor="middle" x="381.74" y="-62" font-family="Helvetica,sans-Serif" font-size="10.00">ntc_conversion.hpp</text>
</a>
</g>
</g>
<!-- Node6&#45;&gt;Node7 -->
<g id="edge8_Node000006_Node000007" class="edge">
<title>Node6&#45;&gt;Node7</title>
<g id="a_edge8_Node000006_Node000007"><a xlink:title=" ">
<path fill="none" stroke="#63b8ff" d="M339.16,-109.75C346.51,-102.11 357.37,-90.82 366.28,-81.56"/>
<polygon fill="#63b8ff" stroke="#63b8ff" points="369.06,-83.72 373.47,-74.09 364.02,-78.87 369.06,-83.72"/>
</a>
</g>
</g>
<!-- Node8 -->
<g id="Node000008" class="node">
<title>Node8</title>
<g id="a_Node000008"><a xlink:title=" ">
<polygon fill="#e0e0e0" stroke="#999999" points="447.24,-19 400.24,-19 400.24,0 447.24,0 447.24,-19"/>
<text text-anchor="middle" x="423.74" y="-7" font-family="Helvetica,sans-Serif" font-size="10.00">cmath</text>
</a>
</g>
</g>
<!-- Node6&#45;&gt;Node8 -->
<g id="edge16_Node000006_Node000008" class="edge">
<title>Node6&#45;&gt;Node8</title>
<g id="a_edge16_Node000006_Node000008"><a xlink:title=" ">
<path fill="none" stroke="#63b8ff" d="M390.21,-109.98C411.67,-103.71 433.79,-92.84 446.74,-74 456.55,-59.73 447.39,-40.8 437.88,-27.33"/>
<polygon fill="#63b8ff" stroke="#63b8ff" points="440.64,-25.17 431.78,-19.37 435.09,-29.43 440.64,-25.17"/>
</a>
</g>
</g>
<!-- Node9 -->
<g id="Node000009" class="node">
<title>Node9</title>
<g id="a_Node000009"><a xlink:href="ntc__lookup__table_8hpp.html" target="_top" xlink:title="Lookup table implementation for NTC thermistor temperature conversion.">
<polygon fill="white" stroke="#666666" points="307.74,-74 187.74,-74 187.74,-55 307.74,-55 307.74,-74"/>
<text text-anchor="middle" x="247.74" y="-62" font-family="Helvetica,sans-Serif" font-size="10.00">ntc_lookup_table.hpp</text>
</a>
</g>
</g>
<!-- Node6&#45;&gt;Node9 -->
<g id="edge11_Node000006_Node000009" class="edge">
<title>Node6&#45;&gt;Node9</title>
<g id="a_edge11_Node000006_Node000009"><a xlink:title=" ">
<path fill="none" stroke="#63b8ff" d="M317.4,-109.98C304.65,-101.84 285.19,-89.41 270.07,-79.76"/>
<polygon fill="#63b8ff" stroke="#63b8ff" points="271.63,-76.6 261.32,-74.17 267.86,-82.5 271.63,-76.6"/>
</a>
</g>
</g>
<!-- Node11 -->
<g id="Node000011" class="node">
<title>Node11</title>
<g id="a_Node000011"><a xlink:title=" ">
<polygon fill="#e0e0e0" stroke="#999999" points="557.74,-74 493.74,-74 493.74,-55 557.74,-55 557.74,-74"/>
<text text-anchor="middle" x="525.74" y="-62" font-family="Helvetica,sans-Serif" font-size="10.00">algorithm</text>
</a>
</g>
</g>
<!-- Node6&#45;&gt;Node11 -->
<g id="edge15_Node000006_Node000011" class="edge">
<title>Node6&#45;&gt;Node11</title>
<g id="a_edge15_Node000006_Node000011"><a xlink:title=" ">
<path fill="none" stroke="#63b8ff" d="M362.07,-109.98C395.23,-100.97 447.74,-86.7 484.3,-76.76"/>
<polygon fill="#63b8ff" stroke="#63b8ff" points="485.43,-80.08 494.16,-74.08 483.6,-73.33 485.43,-80.08"/>
</a>
</g>
</g>
<!-- Node12 -->
<g id="Node000012" class="node">
<title>Node12</title>
<g id="a_Node000012"><a xlink:title=" ">
<polygon fill="#e0e0e0" stroke="#999999" points="169.74,-74 119.74,-74 119.74,-55 169.74,-55 169.74,-74"/>
<text text-anchor="middle" x="144.74" y="-62" font-family="Helvetica,sans-Serif" font-size="10.00">cstring</text>
</a>
</g>
</g>
<!-- Node6&#45;&gt;Node12 -->
<g id="edge17_Node000006_Node000012" class="edge">
<title>Node6&#45;&gt;Node12</title>
<g id="a_edge17_Node000006_Node000012"><a xlink:title=" ">
<path fill="none" stroke="#63b8ff" d="M300.86,-109.98C267.77,-100.56 214.5,-85.38 179.56,-75.42"/>
<polygon fill="#63b8ff" stroke="#63b8ff" points="180.36,-72.01 169.78,-72.63 178.44,-78.74 180.36,-72.01"/>
</a>
</g>
</g>
<!-- Node7&#45;&gt;Node2 -->
<g id="edge10_Node000007_Node000002" class="edge">
<title>Node7&#45;&gt;Node2</title>
<g id="a_edge10_Node000007_Node000002"><a xlink:title=" ">
<path fill="none" stroke="#63b8ff" d="M335.15,-54.98C277.18,-44.39 179.48,-26.53 127.23,-16.99"/>
<polygon fill="#63b8ff" stroke="#63b8ff" points="127.57,-13.49 117.1,-15.13 126.31,-20.38 127.57,-13.49"/>
</a>
</g>
</g>
<!-- Node7&#45;&gt;Node8 -->
<g id="edge9_Node000007_Node000008" class="edge">
<title>Node7&#45;&gt;Node8</title>
<g id="a_edge9_Node000007_Node000008"><a xlink:title=" ">
<path fill="none" stroke="#63b8ff" d="M388.68,-54.75C394.61,-47.26 403.31,-36.28 410.56,-27.13"/>
<polygon fill="#63b8ff" stroke="#63b8ff" points="413.47,-29.1 416.93,-19.09 407.98,-24.75 413.47,-29.1"/>
</a>
</g>
</g>
<!-- Node9&#45;&gt;Node2 -->
<g id="edge13_Node000009_Node000002" class="edge">
<title>Node9&#45;&gt;Node2</title>
<g id="a_edge13_Node000009_Node000002"><a xlink:title=" ">
<path fill="none" stroke="#63b8ff" d="M222.68,-54.98C196.63,-46.14 155.69,-32.23 126.52,-22.32"/>
<polygon fill="#63b8ff" stroke="#63b8ff" points="127.34,-18.9 116.74,-18.99 125.08,-25.53 127.34,-18.9"/>
</a>
</g>
</g>
<!-- Node10 -->
<g id="Node000010" class="node">
<title>Node10</title>
<g id="a_Node000010"><a xlink:title=" ">
<polygon fill="#e0e0e0" stroke="#999999" points="274.24,-19 221.24,-19 221.24,0 274.24,0 274.24,-19"/>
<text text-anchor="middle" x="247.74" y="-7" font-family="Helvetica,sans-Serif" font-size="10.00">cstddef</text>
</a>
</g>
</g>
<!-- Node9&#45;&gt;Node10 -->
<g id="edge12_Node000009_Node000010" class="edge">
<title>Node9&#45;&gt;Node10</title>
<g id="a_edge12_Node000009_Node000010"><a xlink:title=" ">
<path fill="none" stroke="#63b8ff" d="M247.74,-54.75C247.74,-47.8 247.74,-37.85 247.74,-29.13"/>
<polygon fill="#63b8ff" stroke="#63b8ff" points="251.24,-29.09 247.74,-19.09 244.24,-29.09 251.24,-29.09"/>
</a>
</g>
</g>
</g>
</svg>
