<?xml version="1.0" encoding="UTF-8" standalone="no"?>
<!DOCTYPE svg PUBLIC "-//W3C//DTD SVG 1.1//EN"
 "http://www.w3.org/Graphics/SVG/1.1/DTD/svg11.dtd">
<!-- Generated by graphviz version 2.43.0 (0)
 -->
<!-- Title: inc/NtcAdcInterface.h Pages: 1 -->
<svg width="316pt" height="170pt"
 viewBox="0.00 0.00 315.50 170.00" xmlns="http://www.w3.org/2000/svg" xmlns:xlink="http://www.w3.org/1999/xlink">
<g id="graph0" class="graph" transform="scale(1 1) rotate(0) translate(4 166)">
<title>inc/NtcAdcInterface.h</title>
<!-- Node1 -->
<g id="Node000001" class="node">
<title>Node1</title>
<g id="a_Node000001"><a xlink:title="CRTP&#45;based template interface for ADC used by NTC thermistor driver.">
<polygon fill="#999999" stroke="#666666" points="224.5,-162 103.5,-162 103.5,-143 224.5,-143 224.5,-162"/>
<text text-anchor="middle" x="164" y="-150" font-family="Helvetica,sans-Serif" font-size="10.00">inc/NtcAdcInterface.h</text>
</a>
</g>
</g>
<!-- Node2 -->
<g id="Node000002" class="node">
<title>Node2</title>
<g id="a_Node000002"><a xlink:href="MockEsp32Adc_8h.html" target="_top" xlink:title="Mock ADC implementation for ESP32&#45;C6 testing.">
<polygon fill="white" stroke="#666666" points="158.5,-107 33.5,-107 33.5,-77 158.5,-77 158.5,-107"/>
<text text-anchor="start" x="41.5" y="-95" font-family="Helvetica,sans-Serif" font-size="10.00">examples/esp32/main</text>
<text text-anchor="middle" x="96" y="-84" font-family="Helvetica,sans-Serif" font-size="10.00">/MockEsp32Adc.h</text>
</a>
</g>
</g>
<!-- Node1&#45;&gt;Node2 -->
<g id="edge1_Node000001_Node000002" class="edge">
<title>Node1&#45;&gt;Node2</title>
<g id="a_edge1_Node000001_Node000002"><a xlink:title=" ">
<path fill="none" stroke="#63b8ff" d="M146.26,-136.23C135.79,-127.23 122.63,-115.91 112.41,-107.11"/>
<polygon fill="#63b8ff" stroke="#63b8ff" points="144.1,-139 153.97,-142.87 148.67,-133.69 144.1,-139"/>
</a>
</g>
</g>
<!-- Node4 -->
<g id="Node000004" class="node">
<title>Node4</title>
<g id="a_Node000004"><a xlink:href="NtcThermistor_8h.html" target="_top" xlink:title="Hardware&#45;agnostic NTC thermistor driver for temperature measurement.">
<polygon fill="white" stroke="#666666" points="295,-101.5 183,-101.5 183,-82.5 295,-82.5 295,-101.5"/>
<text text-anchor="middle" x="239" y="-89.5" font-family="Helvetica,sans-Serif" font-size="10.00">inc/NtcThermistor.h</text>
</a>
</g>
</g>
<!-- Node1&#45;&gt;Node4 -->
<g id="edge3_Node000001_Node000004" class="edge">
<title>Node1&#45;&gt;Node4</title>
<g id="a_edge3_Node000001_Node000004"><a xlink:title=" ">
<path fill="none" stroke="#63b8ff" d="M183.18,-136.54C197.35,-125.49 216.13,-110.84 227.89,-101.67"/>
<polygon fill="#63b8ff" stroke="#63b8ff" points="180.8,-133.96 175.07,-142.87 185.1,-139.48 180.8,-133.96"/>
</a>
</g>
</g>
<!-- Node3 -->
<g id="Node000003" class="node">
<title>Node3</title>
<g id="a_Node000003"><a xlink:href="NtcThermistorComprehensiveTest_8cpp.html" target="_top" xlink:title="Comprehensive test suite for NTC Thermistor driver on ESP32&#45;C6.">
<polygon fill="white" stroke="#666666" points="166,-41 0,-41 0,0 166,0 166,-41"/>
<text text-anchor="start" x="8" y="-29" font-family="Helvetica,sans-Serif" font-size="10.00">examples/esp32/main</text>
<text text-anchor="start" x="8" y="-18" font-family="Helvetica,sans-Serif" font-size="10.00">/NtcThermistorComprehensive</text>
<text text-anchor="middle" x="83" y="-7" font-family="Helvetica,sans-Serif" font-size="10.00">Test.cpp</text>
</a>
</g>
</g>
<!-- Node2&#45;&gt;Node3 -->
<g id="edge2_Node000002_Node000003" class="edge">
<title>Node2&#45;&gt;Node3</title>
<g id="a_edge2_Node000002_Node000003"><a xlink:title=" ">
<path fill="none" stroke="#63b8ff" d="M91.49,-66.91C89.92,-58.47 88.16,-49.1 86.66,-41.07"/>
<polygon fill="#63b8ff" stroke="#63b8ff" points="88.09,-67.75 93.37,-76.94 94.97,-66.46 88.09,-67.75"/>
</a>
</g>
</g>
<!-- Node4&#45;&gt;Node3 -->
<g id="edge4_Node000004_Node000003" class="edge">
<title>Node4&#45;&gt;Node3</title>
<g id="a_edge4_Node000004_Node000003"><a xlink:title=" ">
<path fill="none" stroke="#63b8ff" d="M210.52,-78.31C187.14,-67.89 153.63,-52.97 126.83,-41.03"/>
<polygon fill="#63b8ff" stroke="#63b8ff" points="209.31,-81.61 219.87,-82.48 212.16,-75.21 209.31,-81.61"/>
</a>
</g>
</g>
<!-- Node5 -->
<g id="Node000005" class="node">
<title>Node5</title>
<g id="a_Node000005"><a xlink:href="NtcThermistor_8cpp.html" target="_top" xlink:title="Hardware&#45;agnostic NTC thermistor driver implementation.">
<polygon fill="white" stroke="#666666" points="307.5,-30 184.5,-30 184.5,-11 307.5,-11 307.5,-30"/>
<text text-anchor="middle" x="246" y="-18" font-family="Helvetica,sans-Serif" font-size="10.00">src/NtcThermistor.cpp</text>
</a>
</g>
</g>
<!-- Node4&#45;&gt;Node5 -->
<g id="edge5_Node000004_Node000005" class="edge">
<title>Node4&#45;&gt;Node5</title>
<g id="a_edge5_Node000004_Node000005"><a xlink:title=" ">
<path fill="none" stroke="#63b8ff" d="M234.82,-72.21C234.95,-58.5 237.24,-40.55 240.51,-30.09"/>
<polygon fill="#63b8ff" stroke="#63b8ff" points="231.33,-72.63 235.24,-82.48 238.33,-72.34 231.33,-72.63"/>
</a>
</g>
</g>
<!-- Node5&#45;&gt;Node4 -->
<g id="edge6_Node000005_Node000004" class="edge">
<title>Node5&#45;&gt;Node4</title>
<g id="a_edge6_Node000005_Node000004"><a xlink:title=" ">
<path fill="none" stroke="#63b8ff" d="M250.18,-40.38C250.04,-54.11 247.74,-72.06 244.47,-82.48"/>
<polygon fill="#63b8ff" stroke="#63b8ff" points="253.66,-39.94 249.76,-30.09 246.67,-40.22 253.66,-39.94"/>
</a>
</g>
</g>
</g>
</svg>
