<?xml version="1.0" encoding="UTF-8" standalone="no"?>
<!DOCTYPE svg PUBLIC "-//W3C//DTD SVG 1.1//EN"
 "http://www.w3.org/Graphics/SVG/1.1/DTD/svg11.dtd">
<!-- Generated by graphviz version 2.43.0 (0)
 -->
<!-- Title: src/NtcLookupTable.cpp Pages: 1 -->
<svg width="380pt" height="192pt"
 viewBox="0.00 0.00 380.00 192.00" xmlns="http://www.w3.org/2000/svg" xmlns:xlink="http://www.w3.org/1999/xlink">
<g id="graph0" class="graph" transform="scale(1 1) rotate(0) translate(4 188)">
<title>src/NtcLookupTable.cpp</title>
<!-- Node1 -->
<g id="Node000001" class="node">
<title>Node1</title>
<g id="a_Node000001"><a xlink:title="Lookup table implementation for NTC thermistor temperature conversion.">
<polygon fill="#999999" stroke="#666666" points="291,-184 160,-184 160,-165 291,-165 291,-184"/>
<text text-anchor="middle" x="225.5" y="-172" font-family="Helvetica,sans-Serif" font-size="10.00">src/NtcLookupTable.cpp</text>
</a>
</g>
</g>
<!-- Node2 -->
<g id="Node000002" class="node">
<title>Node2</title>
<g id="a_Node000002"><a xlink:href="NtcLookupTable_8h.html" target="_top" xlink:title="Lookup table implementation for NTC thermistor temperature conversion.">
<polygon fill="white" stroke="#666666" points="110.5,-129 8.5,-129 8.5,-110 110.5,-110 110.5,-129"/>
<text text-anchor="middle" x="59.5" y="-117" font-family="Helvetica,sans-Serif" font-size="10.00">NtcLookupTable.h</text>
</a>
</g>
</g>
<!-- Node1&#45;&gt;Node2 -->
<g id="edge1_Node000001_Node000002" class="edge">
<title>Node1&#45;&gt;Node2</title>
<g id="a_edge1_Node000001_Node000002"><a xlink:title=" ">
<path fill="none" stroke="#63b8ff" d="M198.83,-164.98C170.96,-156.09 127.05,-142.07 95.98,-132.15"/>
<polygon fill="#63b8ff" stroke="#63b8ff" points="96.97,-128.79 86.38,-129.08 94.84,-135.46 96.97,-128.79"/>
</a>
</g>
</g>
<!-- Node5 -->
<g id="Node000005" class="node">
<title>Node5</title>
<g id="a_Node000005"><a xlink:href="NtcThermistor_8h.html" target="_top" xlink:title="Hardware&#45;agnostic NTC thermistor driver for temperature measurement.">
<polygon fill="white" stroke="#666666" points="224,-129 129,-129 129,-110 224,-110 224,-129"/>
<text text-anchor="middle" x="176.5" y="-117" font-family="Helvetica,sans-Serif" font-size="10.00">NtcThermistor.h</text>
</a>
</g>
</g>
<!-- Node1&#45;&gt;Node5 -->
<g id="edge4_Node000001_Node000005" class="edge">
<title>Node1&#45;&gt;Node5</title>
<g id="a_edge4_Node000001_Node000005"><a xlink:title=" ">
<path fill="none" stroke="#63b8ff" d="M217.41,-164.75C210.34,-157.11 199.91,-145.82 191.35,-136.56"/>
<polygon fill="#63b8ff" stroke="#63b8ff" points="193.8,-134.06 184.44,-129.09 188.66,-138.81 193.8,-134.06"/>
</a>
</g>
</g>
<!-- Node8 -->
<g id="Node000008" class="node">
<title>Node8</title>
<g id="a_Node000008"><a xlink:title=" ">
<polygon fill="#e0e0e0" stroke="#999999" points="306.5,-129 242.5,-129 242.5,-110 306.5,-110 306.5,-129"/>
<text text-anchor="middle" x="274.5" y="-117" font-family="Helvetica,sans-Serif" font-size="10.00">algorithm</text>
</a>
</g>
</g>
<!-- Node1&#45;&gt;Node8 -->
<g id="edge9_Node000001_Node000008" class="edge">
<title>Node1&#45;&gt;Node8</title>
<g id="a_edge9_Node000001_Node000008"><a xlink:title=" ">
<path fill="none" stroke="#63b8ff" d="M233.59,-164.75C240.66,-157.11 251.09,-145.82 259.65,-136.56"/>
<polygon fill="#63b8ff" stroke="#63b8ff" points="262.34,-138.81 266.56,-129.09 257.2,-134.06 262.34,-138.81"/>
</a>
</g>
</g>
<!-- Node9 -->
<g id="Node000009" class="node">
<title>Node9</title>
<g id="a_Node000009"><a xlink:title=" ">
<polygon fill="#e0e0e0" stroke="#999999" points="372,-129 325,-129 325,-110 372,-110 372,-129"/>
<text text-anchor="middle" x="348.5" y="-117" font-family="Helvetica,sans-Serif" font-size="10.00">cmath</text>
</a>
</g>
</g>
<!-- Node1&#45;&gt;Node9 -->
<g id="edge10_Node000001_Node000009" class="edge">
<title>Node1&#45;&gt;Node9</title>
<g id="a_edge10_Node000001_Node000009"><a xlink:title=" ">
<path fill="none" stroke="#63b8ff" d="M245.26,-164.98C265.23,-156.38 296.3,-142.99 319.15,-133.15"/>
<polygon fill="#63b8ff" stroke="#63b8ff" points="320.58,-136.34 328.38,-129.17 317.81,-129.91 320.58,-136.34"/>
</a>
</g>
</g>
<!-- Node3 -->
<g id="Node000003" class="node">
<title>Node3</title>
<g id="a_Node000003"><a xlink:title=" ">
<polygon fill="#e0e0e0" stroke="#999999" points="53,-74 0,-74 0,-55 53,-55 53,-74"/>
<text text-anchor="middle" x="26.5" y="-62" font-family="Helvetica,sans-Serif" font-size="10.00">cstddef</text>
</a>
</g>
</g>
<!-- Node2&#45;&gt;Node3 -->
<g id="edge2_Node000002_Node000003" class="edge">
<title>Node2&#45;&gt;Node3</title>
<g id="a_edge2_Node000002_Node000003"><a xlink:title=" ">
<path fill="none" stroke="#63b8ff" d="M54.05,-109.75C49.49,-102.42 42.83,-91.73 37.21,-82.7"/>
<polygon fill="#63b8ff" stroke="#63b8ff" points="40.1,-80.73 31.85,-74.09 34.16,-84.43 40.1,-80.73"/>
</a>
</g>
</g>
<!-- Node4 -->
<g id="Node000004" class="node">
<title>Node4</title>
<g id="a_Node000004"><a xlink:title=" ">
<polygon fill="#e0e0e0" stroke="#999999" points="144.5,-19 94.5,-19 94.5,0 144.5,0 144.5,-19"/>
<text text-anchor="middle" x="119.5" y="-7" font-family="Helvetica,sans-Serif" font-size="10.00">cstdint</text>
</a>
</g>
</g>
<!-- Node2&#45;&gt;Node4 -->
<g id="edge3_Node000002_Node000004" class="edge">
<title>Node2&#45;&gt;Node4</title>
<g id="a_edge3_Node000002_Node000004"><a xlink:title=" ">
<path fill="none" stroke="#63b8ff" d="M64.41,-109.66C74.3,-91.85 96.8,-51.37 109.77,-28.01"/>
<polygon fill="#63b8ff" stroke="#63b8ff" points="112.89,-29.6 114.69,-19.16 106.77,-26.2 112.89,-29.6"/>
</a>
</g>
</g>
<!-- Node5&#45;&gt;Node4 -->
<g id="edge5_Node000005_Node000004" class="edge">
<title>Node5&#45;&gt;Node4</title>
<g id="a_edge5_Node000005_Node000004"><a xlink:title=" ">
<path fill="none" stroke="#63b8ff" d="M167.11,-109.81C158.53,-101.4 146.08,-87.92 138.5,-74 130.84,-59.93 125.89,-42.38 122.97,-29.3"/>
<polygon fill="#63b8ff" stroke="#63b8ff" points="126.33,-28.26 120.91,-19.16 119.47,-29.65 126.33,-28.26"/>
</a>
</g>
</g>
<!-- Node6 -->
<g id="Node000006" class="node">
<title>Node6</title>
<g id="a_Node000006"><a xlink:title=" ">
<polygon fill="#e0e0e0" stroke="#999999" points="205.5,-74 147.5,-74 147.5,-55 205.5,-55 205.5,-74"/>
<text text-anchor="middle" x="176.5" y="-62" font-family="Helvetica,sans-Serif" font-size="10.00">memory</text>
</a>
</g>
</g>
<!-- Node5&#45;&gt;Node6 -->
<g id="edge6_Node000005_Node000006" class="edge">
<title>Node5&#45;&gt;Node6</title>
<g id="a_edge6_Node000005_Node000006"><a xlink:title=" ">
<path fill="none" stroke="#63b8ff" d="M176.5,-109.75C176.5,-102.8 176.5,-92.85 176.5,-84.13"/>
<polygon fill="#63b8ff" stroke="#63b8ff" points="180,-84.09 176.5,-74.09 173,-84.09 180,-84.09"/>
</a>
</g>
</g>
<!-- Node7 -->
<g id="Node000007" class="node">
<title>Node7</title>
<g id="a_Node000007"><a xlink:href="BaseAdc_8h.html" target="_top" xlink:title="Abstract base class for ADC interface used by NTC thermistor driver.">
<polygon fill="white" stroke="#666666" points="291.5,-74 223.5,-74 223.5,-55 291.5,-55 291.5,-74"/>
<text text-anchor="middle" x="257.5" y="-62" font-family="Helvetica,sans-Serif" font-size="10.00">BaseAdc.h</text>
</a>
</g>
</g>
<!-- Node5&#45;&gt;Node7 -->
<g id="edge7_Node000005_Node000007" class="edge">
<title>Node5&#45;&gt;Node7</title>
<g id="a_edge7_Node000005_Node000007"><a xlink:title=" ">
<path fill="none" stroke="#63b8ff" d="M189.51,-109.98C201.96,-101.84 220.96,-89.41 235.71,-79.76"/>
<polygon fill="#63b8ff" stroke="#63b8ff" points="237.8,-82.57 244.25,-74.17 233.96,-76.72 237.8,-82.57"/>
</a>
</g>
</g>
<!-- Node7&#45;&gt;Node4 -->
<g id="edge8_Node000007_Node000004" class="edge">
<title>Node7&#45;&gt;Node4</title>
<g id="a_edge8_Node000007_Node000004"><a xlink:title=" ">
<path fill="none" stroke="#63b8ff" d="M235.33,-54.98C212.73,-46.3 177.44,-32.75 151.75,-22.88"/>
<polygon fill="#63b8ff" stroke="#63b8ff" points="152.67,-19.49 142.08,-19.17 150.16,-26.02 152.67,-19.49"/>
</a>
</g>
</g>
</g>
</svg>
