<?xml version="1.0" encoding="UTF-8" standalone="no"?>
<!DOCTYPE svg PUBLIC "-//W3C//DTD SVG 1.1//EN"
 "http://www.w3.org/Graphics/SVG/1.1/DTD/svg11.dtd">
<!-- Generated by graphviz version 2.43.0 (0)
 -->
<!-- Title: examples/esp32/main/NtcThermistorComprehensiveTest.cpp Pages: 1 -->
<svg width="1386pt" height="269pt"
 viewBox="0.00 0.00 1386.00 269.00" xmlns="http://www.w3.org/2000/svg" xmlns:xlink="http://www.w3.org/1999/xlink">
<g id="graph0" class="graph" transform="scale(1 1) rotate(0) translate(4 265)">
<title>examples/esp32/main/NtcThermistorComprehensiveTest.cpp</title>
<!-- Node1 -->
<g id="Node000001" class="node">
<title>Node1</title>
<g id="a_Node000001"><a xlink:title="Comprehensive test suite for NTC Thermistor driver on ESP32&#45;C6.">
<polygon fill="#999999" stroke="#666666" points="776,-261 610,-261 610,-220 776,-220 776,-261"/>
<text text-anchor="start" x="618" y="-249" font-family="Helvetica,sans-Serif" font-size="10.00">examples/esp32/main</text>
<text text-anchor="start" x="618" y="-238" font-family="Helvetica,sans-Serif" font-size="10.00">/NtcThermistorComprehensive</text>
<text text-anchor="middle" x="693" y="-227" font-family="Helvetica,sans-Serif" font-size="10.00">Test.cpp</text>
</a>
</g>
</g>
<!-- Node2 -->
<g id="Node000002" class="node">
<title>Node2</title>
<g id="a_Node000002"><a xlink:href="MockEsp32Adc_8h.html" target="_top" xlink:title="Mock ADC implementation for ESP32&#45;C6 testing.">
<polygon fill="white" stroke="#666666" points="664.5,-184 565.5,-184 565.5,-165 664.5,-165 664.5,-184"/>
<text text-anchor="middle" x="615" y="-172" font-family="Helvetica,sans-Serif" font-size="10.00">MockEsp32Adc.h</text>
</a>
</g>
</g>
<!-- Node1&#45;&gt;Node2 -->
<g id="edge1_Node000001_Node000002" class="edge">
<title>Node1&#45;&gt;Node2</title>
<g id="a_edge1_Node000001_Node000002"><a xlink:title=" ">
<path fill="none" stroke="#63b8ff" d="M669.17,-219.95C657.72,-210.55 644.2,-199.46 633.53,-190.7"/>
<polygon fill="#63b8ff" stroke="#63b8ff" points="635.63,-187.9 625.68,-184.26 631.19,-193.31 635.63,-187.9"/>
</a>
</g>
</g>
<!-- Node6 -->
<g id="Node000006" class="node">
<title>Node6</title>
<g id="a_Node000006"><a xlink:href="NtcThermistor_8h.html" target="_top" xlink:title="Hardware&#45;agnostic NTC thermistor driver for temperature measurement.">
<polygon fill="white" stroke="#666666" points="261.5,-184 166.5,-184 166.5,-165 261.5,-165 261.5,-184"/>
<text text-anchor="middle" x="214" y="-172" font-family="Helvetica,sans-Serif" font-size="10.00">NtcThermistor.h</text>
</a>
</g>
</g>
<!-- Node1&#45;&gt;Node6 -->
<g id="edge5_Node000001_Node000006" class="edge">
<title>Node1&#45;&gt;Node6</title>
<g id="a_edge5_Node000001_Node000006"><a xlink:title=" ">
<path fill="none" stroke="#63b8ff" d="M609.84,-228.39C513.14,-215.47 356.06,-194.48 271.78,-183.22"/>
<polygon fill="#63b8ff" stroke="#63b8ff" points="272,-179.72 261.63,-181.86 271.08,-186.66 272,-179.72"/>
</a>
</g>
</g>
<!-- Node7 -->
<g id="Node000007" class="node">
<title>Node7</title>
<g id="a_Node000007"><a xlink:title=" ">
<polygon fill="#e0e0e0" stroke="#999999" points="58,-129 0,-129 0,-110 58,-110 58,-129"/>
<text text-anchor="middle" x="29" y="-117" font-family="Helvetica,sans-Serif" font-size="10.00">memory</text>
</a>
</g>
</g>
<!-- Node1&#45;&gt;Node7 -->
<g id="edge32_Node000001_Node000007" class="edge">
<title>Node1&#45;&gt;Node7</title>
<g id="a_edge32_Node000001_Node000007"><a xlink:title=" ">
<path fill="none" stroke="#63b8ff" d="M609.99,-239.98C503.14,-238.56 312.69,-229.08 157,-184 117.49,-172.56 75.46,-149.3 50.75,-134.33"/>
<polygon fill="#63b8ff" stroke="#63b8ff" points="52.52,-131.31 42.17,-129.04 48.85,-137.27 52.52,-131.31"/>
</a>
</g>
</g>
<!-- Node15 -->
<g id="Node000015" class="node">
<title>Node15</title>
<g id="a_Node000015"><a xlink:href="TestFramework_8h.html" target="_top" xlink:title="Shared testing framework for ESP32&#45;C6 comprehensive test suites.">
<polygon fill="white" stroke="#666666" points="1000,-184 900,-184 900,-165 1000,-165 1000,-184"/>
<text text-anchor="middle" x="950" y="-172" font-family="Helvetica,sans-Serif" font-size="10.00">TestFramework.h</text>
</a>
</g>
</g>
<!-- Node1&#45;&gt;Node15 -->
<g id="edge22_Node000001_Node000015" class="edge">
<title>Node1&#45;&gt;Node15</title>
<g id="a_edge22_Node000001_Node000015"><a xlink:title=" ">
<path fill="none" stroke="#63b8ff" d="M771.5,-219.95C815.63,-208.96 869.07,-195.65 905.91,-186.48"/>
<polygon fill="#63b8ff" stroke="#63b8ff" points="906.98,-189.82 915.84,-184.01 905.29,-183.03 906.98,-189.82"/>
</a>
</g>
</g>
<!-- Node17 -->
<g id="Node000017" class="node">
<title>Node17</title>
<g id="a_Node000017"><a xlink:title=" ">
<polygon fill="#e0e0e0" stroke="#999999" points="715.5,-129 652.5,-129 652.5,-110 715.5,-110 715.5,-129"/>
<text text-anchor="middle" x="684" y="-117" font-family="Helvetica,sans-Serif" font-size="10.00">esp_log.h</text>
</a>
</g>
</g>
<!-- Node1&#45;&gt;Node17 -->
<g id="edge33_Node000001_Node000017" class="edge">
<title>Node1&#45;&gt;Node17</title>
<g id="a_edge33_Node000001_Node000017"><a xlink:title=" ">
<path fill="none" stroke="#63b8ff" d="M691.51,-219.85C689.82,-197.48 687.08,-161.19 685.42,-139.21"/>
<polygon fill="#63b8ff" stroke="#63b8ff" points="688.9,-138.88 684.66,-129.18 681.92,-139.41 688.9,-138.88"/>
</a>
</g>
</g>
<!-- Node19 -->
<g id="Node000019" class="node">
<title>Node19</title>
<g id="a_Node000019"><a xlink:title=" ">
<polygon fill="#e0e0e0" stroke="#999999" points="1271.5,-129 1158.5,-129 1158.5,-110 1271.5,-110 1271.5,-129"/>
<text text-anchor="middle" x="1215" y="-117" font-family="Helvetica,sans-Serif" font-size="10.00">freertos/FreeRTOS.h</text>
</a>
</g>
</g>
<!-- Node1&#45;&gt;Node19 -->
<g id="edge30_Node000001_Node000019" class="edge">
<title>Node1&#45;&gt;Node19</title>
<g id="a_edge30_Node000001_Node000019"><a xlink:title=" ">
<path fill="none" stroke="#63b8ff" d="M776.09,-227.82C840.16,-218.11 930.75,-202.85 1009,-184 1070.55,-169.17 1140.7,-146.21 1181.22,-132.34"/>
<polygon fill="#63b8ff" stroke="#63b8ff" points="1182.54,-135.59 1190.86,-129.02 1180.26,-128.97 1182.54,-135.59"/>
</a>
</g>
</g>
<!-- Node22 -->
<g id="Node000022" class="node">
<title>Node22</title>
<g id="a_Node000022"><a xlink:title=" ">
<polygon fill="#e0e0e0" stroke="#999999" points="1378,-129 1290,-129 1290,-110 1378,-110 1378,-129"/>
<text text-anchor="middle" x="1334" y="-117" font-family="Helvetica,sans-Serif" font-size="10.00">freertos/task.h</text>
</a>
</g>
</g>
<!-- Node1&#45;&gt;Node22 -->
<g id="edge31_Node000001_Node000022" class="edge">
<title>Node1&#45;&gt;Node22</title>
<g id="a_edge31_Node000001_Node000022"><a xlink:title=" ">
<path fill="none" stroke="#63b8ff" d="M776.3,-228.65C850.47,-218.56 961.83,-202.35 1058,-184 1140.81,-168.2 1236.49,-145.08 1290.67,-131.53"/>
<polygon fill="#63b8ff" stroke="#63b8ff" points="1291.76,-134.87 1300.61,-129.04 1290.06,-128.08 1291.76,-134.87"/>
</a>
</g>
</g>
<!-- Node3 -->
<g id="Node000003" class="node">
<title>Node3</title>
<g id="a_Node000003"><a xlink:href="NtcAdcInterface_8h.html" target="_top" xlink:title="CRTP&#45;based template interface for ADC used by NTC thermistor driver.">
<polygon fill="white" stroke="#666666" points="266,-129 162,-129 162,-110 266,-110 266,-129"/>
<text text-anchor="middle" x="214" y="-117" font-family="Helvetica,sans-Serif" font-size="10.00">NtcAdcInterface.h</text>
</a>
</g>
</g>
<!-- Node2&#45;&gt;Node3 -->
<g id="edge2_Node000002_Node000003" class="edge">
<title>Node2&#45;&gt;Node3</title>
<g id="a_edge2_Node000002_Node000003"><a xlink:title=" ">
<path fill="none" stroke="#63b8ff" d="M565.43,-166.95C492.53,-157.31 356.45,-139.33 276.71,-128.79"/>
<polygon fill="#63b8ff" stroke="#63b8ff" points="276.69,-125.26 266.32,-127.41 275.77,-132.19 276.69,-125.26"/>
</a>
</g>
</g>
<!-- Node5 -->
<g id="Node000005" class="node">
<title>Node5</title>
<g id="a_Node000005"><a xlink:title=" ">
<polygon fill="#e0e0e0" stroke="#999999" points="609.5,-19 562.5,-19 562.5,0 609.5,0 609.5,-19"/>
<text text-anchor="middle" x="586" y="-7" font-family="Helvetica,sans-Serif" font-size="10.00">cmath</text>
</a>
</g>
</g>
<!-- Node2&#45;&gt;Node5 -->
<g id="edge4_Node000002_Node000005" class="edge">
<title>Node2&#45;&gt;Node5</title>
<g id="a_edge4_Node000002_Node000005"><a xlink:title=" ">
<path fill="none" stroke="#63b8ff" d="M613.44,-164.74C608.9,-139.2 595.6,-64.43 589.33,-29.23"/>
<polygon fill="#63b8ff" stroke="#63b8ff" points="592.76,-28.54 587.57,-19.31 585.87,-29.77 592.76,-28.54"/>
</a>
</g>
</g>
<!-- Node4 -->
<g id="Node000004" class="node">
<title>Node4</title>
<g id="a_Node000004"><a xlink:title=" ">
<polygon fill="#e0e0e0" stroke="#999999" points="187,-19 137,-19 137,0 187,0 187,-19"/>
<text text-anchor="middle" x="162" y="-7" font-family="Helvetica,sans-Serif" font-size="10.00">cstdint</text>
</a>
</g>
</g>
<!-- Node3&#45;&gt;Node4 -->
<g id="edge3_Node000003_Node000004" class="edge">
<title>Node3&#45;&gt;Node4</title>
<g id="a_edge3_Node000003_Node000004"><a xlink:title=" ">
<path fill="none" stroke="#63b8ff" d="M206.19,-109.9C198.78,-101.35 187.81,-87.59 181,-74 173.82,-59.68 168.83,-42.15 165.77,-29.14"/>
<polygon fill="#63b8ff" stroke="#63b8ff" points="169.13,-28.09 163.58,-19.07 162.29,-29.59 169.13,-28.09"/>
</a>
</g>
</g>
<!-- Node6&#45;&gt;Node3 -->
<g id="edge8_Node000006_Node000003" class="edge">
<title>Node6&#45;&gt;Node3</title>
<g id="a_edge8_Node000006_Node000003"><a xlink:title=" ">
<path fill="none" stroke="#63b8ff" d="M214,-164.75C214,-157.8 214,-147.85 214,-139.13"/>
<polygon fill="#63b8ff" stroke="#63b8ff" points="217.5,-139.09 214,-129.09 210.5,-139.09 217.5,-139.09"/>
</a>
</g>
</g>
<!-- Node6&#45;&gt;Node4 -->
<g id="edge6_Node000006_Node000004" class="edge">
<title>Node6&#45;&gt;Node4</title>
<g id="a_edge6_Node000006_Node000004"><a xlink:title=" ">
<path fill="none" stroke="#63b8ff" d="M193.8,-164.91C179.53,-157.64 161.49,-145.71 153,-129 136.62,-96.78 146.87,-53.17 154.98,-28.84"/>
<polygon fill="#63b8ff" stroke="#63b8ff" points="158.38,-29.73 158.45,-19.13 151.79,-27.37 158.38,-29.73"/>
</a>
</g>
</g>
<!-- Node6&#45;&gt;Node7 -->
<g id="edge7_Node000006_Node000007" class="edge">
<title>Node6&#45;&gt;Node7</title>
<g id="a_edge7_Node000006_Node000007"><a xlink:title=" ">
<path fill="none" stroke="#63b8ff" d="M184.28,-164.98C152.67,-155.93 102.55,-141.57 67.84,-131.63"/>
<polygon fill="#63b8ff" stroke="#63b8ff" points="68.62,-128.21 58.04,-128.82 66.69,-134.94 68.62,-128.21"/>
</a>
</g>
</g>
<!-- Node8 -->
<g id="Node000008" class="node">
<title>Node8</title>
<g id="a_Node000008"><a xlink:href="NtcTypes_8h.html" target="_top" xlink:title="Type definitions for NTC thermistor driver.">
<polygon fill="white" stroke="#666666" points="96,-74 26,-74 26,-55 96,-55 96,-74"/>
<text text-anchor="middle" x="61" y="-62" font-family="Helvetica,sans-Serif" font-size="10.00">NtcTypes.h</text>
</a>
</g>
</g>
<!-- Node6&#45;&gt;Node8 -->
<g id="edge9_Node000006_Node000008" class="edge">
<title>Node6&#45;&gt;Node8</title>
<g id="a_edge9_Node000006_Node000008"><a xlink:title=" ">
<path fill="none" stroke="#63b8ff" d="M183.15,-164.89C161.22,-157.73 131.89,-145.95 110,-129 93.54,-116.25 79.59,-96.74 70.84,-82.71"/>
<polygon fill="#63b8ff" stroke="#63b8ff" points="73.78,-80.8 65.64,-74.02 67.77,-84.4 73.78,-80.8"/>
</a>
</g>
</g>
<!-- Node9 -->
<g id="Node000009" class="node">
<title>Node9</title>
<g id="a_Node000009"><a xlink:href="NtcThermistor_8cpp.html" target="_top" xlink:title="Hardware&#45;agnostic NTC thermistor driver implementation.">
<polygon fill="white" stroke="#666666" points="425,-129 293,-129 293,-110 425,-110 425,-129"/>
<text text-anchor="middle" x="359" y="-117" font-family="Helvetica,sans-Serif" font-size="10.00">../src/NtcThermistor.cpp</text>
</a>
</g>
</g>
<!-- Node6&#45;&gt;Node9 -->
<g id="edge11_Node000006_Node000009" class="edge">
<title>Node6&#45;&gt;Node9</title>
<g id="a_edge11_Node000006_Node000009"><a xlink:title=" ">
<path fill="none" stroke="#63b8ff" d="M232.18,-164.98C254.37,-156.16 292.07,-142.31 320.69,-132.41"/>
<polygon fill="#63b8ff" stroke="#63b8ff" points="322.06,-135.63 330.39,-129.08 319.8,-129.01 322.06,-135.63"/>
</a>
</g>
</g>
<!-- Node8&#45;&gt;Node4 -->
<g id="edge10_Node000008_Node000004" class="edge">
<title>Node8&#45;&gt;Node4</title>
<g id="a_edge10_Node000008_Node000004"><a xlink:title=" ">
<path fill="none" stroke="#63b8ff" d="M77.23,-54.98C93.18,-46.61 117.78,-33.7 136.38,-23.95"/>
<polygon fill="#63b8ff" stroke="#63b8ff" points="138.25,-26.92 145.48,-19.17 135,-20.72 138.25,-26.92"/>
</a>
</g>
</g>
<!-- Node9&#45;&gt;Node5 -->
<g id="edge20_Node000009_Node000005" class="edge">
<title>Node9&#45;&gt;Node5</title>
<g id="a_edge20_Node000009_Node000005"><a xlink:title=" ">
<path fill="none" stroke="#63b8ff" d="M425.19,-111.69C478.06,-104.96 546.55,-92.88 567,-74 579.28,-62.67 583.74,-43.77 585.3,-29.52"/>
<polygon fill="#63b8ff" stroke="#63b8ff" points="588.81,-29.56 586.03,-19.34 581.83,-29.06 588.81,-29.56"/>
</a>
</g>
</g>
<!-- Node9&#45;&gt;Node6 -->
<g id="edge18_Node000009_Node000006" class="edge">
<title>Node9&#45;&gt;Node6</title>
<g id="a_edge18_Node000009_Node000006"><a xlink:title=" ">
<path fill="none" stroke="#63b8ff" d="M340.43,-129.17C318.13,-138.02 280.55,-151.83 252.07,-161.68"/>
<polygon fill="#63b8ff" stroke="#63b8ff" points="250.74,-158.43 242.41,-164.98 253.01,-165.06 250.74,-158.43"/>
</a>
</g>
</g>
<!-- Node10 -->
<g id="Node000010" class="node">
<title>Node10</title>
<g id="a_Node000010"><a xlink:href="NtcConversion_8h.html" target="_top" xlink:title="Mathematical conversion functions for NTC thermistor temperature calculation.">
<polygon fill="white" stroke="#666666" points="407.5,-74 310.5,-74 310.5,-55 407.5,-55 407.5,-74"/>
<text text-anchor="middle" x="359" y="-62" font-family="Helvetica,sans-Serif" font-size="10.00">NtcConversion.h</text>
</a>
</g>
</g>
<!-- Node9&#45;&gt;Node10 -->
<g id="edge12_Node000009_Node000010" class="edge">
<title>Node9&#45;&gt;Node10</title>
<g id="a_edge12_Node000009_Node000010"><a xlink:title=" ">
<path fill="none" stroke="#63b8ff" d="M359,-109.75C359,-102.8 359,-92.85 359,-84.13"/>
<polygon fill="#63b8ff" stroke="#63b8ff" points="362.5,-84.09 359,-74.09 355.5,-84.09 362.5,-84.09"/>
</a>
</g>
</g>
<!-- Node11 -->
<g id="Node000011" class="node">
<title>Node11</title>
<g id="a_Node000011"><a xlink:href="NtcLookupTable_8h.html" target="_top" xlink:title="Lookup table implementation for NTC thermistor temperature conversion.">
<polygon fill="white" stroke="#666666" points="292,-74 190,-74 190,-55 292,-55 292,-74"/>
<text text-anchor="middle" x="241" y="-62" font-family="Helvetica,sans-Serif" font-size="10.00">NtcLookupTable.h</text>
</a>
</g>
</g>
<!-- Node9&#45;&gt;Node11 -->
<g id="edge15_Node000009_Node000011" class="edge">
<title>Node9&#45;&gt;Node11</title>
<g id="a_edge15_Node000009_Node000011"><a xlink:title=" ">
<path fill="none" stroke="#63b8ff" d="M340.04,-109.98C320.97,-101.42 291.34,-88.11 269.45,-78.28"/>
<polygon fill="#63b8ff" stroke="#63b8ff" points="270.86,-75.07 260.3,-74.17 267.99,-81.46 270.86,-75.07"/>
</a>
</g>
</g>
<!-- Node13 -->
<g id="Node000013" class="node">
<title>Node13</title>
<g id="a_Node000013"><a xlink:title=" ">
<polygon fill="#e0e0e0" stroke="#999999" points="490,-74 426,-74 426,-55 490,-55 490,-74"/>
<text text-anchor="middle" x="458" y="-62" font-family="Helvetica,sans-Serif" font-size="10.00">algorithm</text>
</a>
</g>
</g>
<!-- Node9&#45;&gt;Node13 -->
<g id="edge19_Node000009_Node000013" class="edge">
<title>Node9&#45;&gt;Node13</title>
<g id="a_edge19_Node000009_Node000013"><a xlink:title=" ">
<path fill="none" stroke="#63b8ff" d="M374.91,-109.98C390.55,-101.61 414.66,-88.7 432.88,-78.95"/>
<polygon fill="#63b8ff" stroke="#63b8ff" points="434.64,-81.98 441.8,-74.17 431.34,-75.8 434.64,-81.98"/>
</a>
</g>
</g>
<!-- Node14 -->
<g id="Node000014" class="node">
<title>Node14</title>
<g id="a_Node000014"><a xlink:title=" ">
<polygon fill="#e0e0e0" stroke="#999999" points="558,-74 508,-74 508,-55 558,-55 558,-74"/>
<text text-anchor="middle" x="533" y="-62" font-family="Helvetica,sans-Serif" font-size="10.00">cstring</text>
</a>
</g>
</g>
<!-- Node9&#45;&gt;Node14 -->
<g id="edge21_Node000009_Node000014" class="edge">
<title>Node9&#45;&gt;Node14</title>
<g id="a_edge21_Node000009_Node000014"><a xlink:title=" ">
<path fill="none" stroke="#63b8ff" d="M386.96,-109.98C417.25,-100.76 465.64,-86.02 498.33,-76.06"/>
<polygon fill="#63b8ff" stroke="#63b8ff" points="499.39,-79.4 507.94,-73.13 497.35,-72.7 499.39,-79.4"/>
</a>
</g>
</g>
<!-- Node10&#45;&gt;Node4 -->
<g id="edge14_Node000010_Node000004" class="edge">
<title>Node10&#45;&gt;Node4</title>
<g id="a_edge14_Node000010_Node000004"><a xlink:title=" ">
<path fill="none" stroke="#63b8ff" d="M327.35,-54.98C291.66,-45.38 233.8,-29.82 196.84,-19.87"/>
<polygon fill="#63b8ff" stroke="#63b8ff" points="197.58,-16.45 187.01,-17.23 195.76,-23.21 197.58,-16.45"/>
</a>
</g>
</g>
<!-- Node10&#45;&gt;Node5 -->
<g id="edge13_Node000010_Node000005" class="edge">
<title>Node10&#45;&gt;Node5</title>
<g id="a_edge13_Node000010_Node000005"><a xlink:title=" ">
<path fill="none" stroke="#63b8ff" d="M395.47,-54.98C438.8,-44.87 510.48,-28.13 552.47,-18.33"/>
<polygon fill="#63b8ff" stroke="#63b8ff" points="553.53,-21.68 562.47,-15.99 551.94,-14.86 553.53,-21.68"/>
</a>
</g>
</g>
<!-- Node11&#45;&gt;Node4 -->
<g id="edge17_Node000011_Node000004" class="edge">
<title>Node11&#45;&gt;Node4</title>
<g id="a_edge17_Node000011_Node000004"><a xlink:title=" ">
<path fill="none" stroke="#63b8ff" d="M228.31,-54.98C216.17,-46.84 197.64,-34.41 183.25,-24.76"/>
<polygon fill="#63b8ff" stroke="#63b8ff" points="185.18,-21.84 174.92,-19.17 181.28,-27.65 185.18,-21.84"/>
</a>
</g>
</g>
<!-- Node12 -->
<g id="Node000012" class="node">
<title>Node12</title>
<g id="a_Node000012"><a xlink:title=" ">
<polygon fill="#e0e0e0" stroke="#999999" points="267.5,-19 214.5,-19 214.5,0 267.5,0 267.5,-19"/>
<text text-anchor="middle" x="241" y="-7" font-family="Helvetica,sans-Serif" font-size="10.00">cstddef</text>
</a>
</g>
</g>
<!-- Node11&#45;&gt;Node12 -->
<g id="edge16_Node000011_Node000012" class="edge">
<title>Node11&#45;&gt;Node12</title>
<g id="a_edge16_Node000011_Node000012"><a xlink:title=" ">
<path fill="none" stroke="#63b8ff" d="M241,-54.75C241,-47.8 241,-37.85 241,-29.13"/>
<polygon fill="#63b8ff" stroke="#63b8ff" points="244.5,-29.09 241,-19.09 237.5,-29.09 244.5,-29.09"/>
</a>
</g>
</g>
<!-- Node16 -->
<g id="Node000016" class="node">
<title>Node16</title>
<g id="a_Node000016"><a xlink:title=" ">
<polygon fill="#e0e0e0" stroke="#999999" points="1048,-129 970,-129 970,-110 1048,-110 1048,-129"/>
<text text-anchor="middle" x="1009" y="-117" font-family="Helvetica,sans-Serif" font-size="10.00">driver/gpio.h</text>
</a>
</g>
</g>
<!-- Node15&#45;&gt;Node16 -->
<g id="edge23_Node000015_Node000016" class="edge">
<title>Node15&#45;&gt;Node16</title>
<g id="a_edge23_Node000015_Node000016"><a xlink:title=" ">
<path fill="none" stroke="#63b8ff" d="M959.48,-164.98C968.2,-157.15 981.34,-145.34 991.9,-135.86"/>
<polygon fill="#63b8ff" stroke="#63b8ff" points="994.25,-138.46 999.35,-129.17 989.57,-133.25 994.25,-138.46"/>
</a>
</g>
</g>
<!-- Node15&#45;&gt;Node17 -->
<g id="edge24_Node000015_Node000017" class="edge">
<title>Node15&#45;&gt;Node17</title>
<g id="a_edge24_Node000015_Node000017"><a xlink:title=" ">
<path fill="none" stroke="#63b8ff" d="M905.79,-165C862.34,-156.6 793.87,-143.24 725.89,-129.37"/>
<polygon fill="#63b8ff" stroke="#63b8ff" points="726.37,-125.89 715.87,-127.32 724.96,-132.75 726.37,-125.89"/>
</a>
</g>
</g>
<!-- Node18 -->
<g id="Node000018" class="node">
<title>Node18</title>
<g id="a_Node000018"><a xlink:title=" ">
<polygon fill="#e0e0e0" stroke="#999999" points="1140,-129 1066,-129 1066,-110 1140,-110 1140,-129"/>
<text text-anchor="middle" x="1103" y="-117" font-family="Helvetica,sans-Serif" font-size="10.00">esp_timer.h</text>
</a>
</g>
</g>
<!-- Node15&#45;&gt;Node18 -->
<g id="edge25_Node000015_Node000018" class="edge">
<title>Node15&#45;&gt;Node18</title>
<g id="a_edge25_Node000015_Node000018"><a xlink:title=" ">
<path fill="none" stroke="#63b8ff" d="M974.58,-164.98C1000.05,-156.16 1040.04,-142.31 1068.63,-132.41"/>
<polygon fill="#63b8ff" stroke="#63b8ff" points="1069.92,-135.66 1078.23,-129.08 1067.63,-129.05 1069.92,-135.66"/>
</a>
</g>
</g>
<!-- Node15&#45;&gt;Node19 -->
<g id="edge26_Node000015_Node000019" class="edge">
<title>Node15&#45;&gt;Node19</title>
<g id="a_edge26_Node000015_Node000019"><a xlink:title=" ">
<path fill="none" stroke="#63b8ff" d="M992.58,-164.98C1038.7,-155.76 1112.36,-141.03 1162.16,-131.07"/>
<polygon fill="#63b8ff" stroke="#63b8ff" points="1162.97,-134.48 1172.09,-129.08 1161.6,-127.61 1162.97,-134.48"/>
</a>
</g>
</g>
<!-- Node20 -->
<g id="Node000020" class="node">
<title>Node20</title>
<g id="a_Node000020"><a xlink:title=" ">
<polygon fill="#e0e0e0" stroke="#999999" points="830.5,-129 733.5,-129 733.5,-110 830.5,-110 830.5,-129"/>
<text text-anchor="middle" x="782" y="-117" font-family="Helvetica,sans-Serif" font-size="10.00">freertos/queue.h</text>
</a>
</g>
</g>
<!-- Node15&#45;&gt;Node20 -->
<g id="edge27_Node000015_Node000020" class="edge">
<title>Node15&#45;&gt;Node20</title>
<g id="a_edge27_Node000015_Node000020"><a xlink:title=" ">
<path fill="none" stroke="#63b8ff" d="M923.01,-164.98C894.8,-156.09 850.36,-142.07 818.92,-132.15"/>
<polygon fill="#63b8ff" stroke="#63b8ff" points="819.79,-128.75 809.2,-129.08 817.69,-135.43 819.79,-128.75"/>
</a>
</g>
</g>
<!-- Node21 -->
<g id="Node000021" class="node">
<title>Node21</title>
<g id="a_Node000021"><a xlink:title=" ">
<polygon fill="#e0e0e0" stroke="#999999" points="951.5,-129 848.5,-129 848.5,-110 951.5,-110 951.5,-129"/>
<text text-anchor="middle" x="900" y="-117" font-family="Helvetica,sans-Serif" font-size="10.00">freertos/semphr.h</text>
</a>
</g>
</g>
<!-- Node15&#45;&gt;Node21 -->
<g id="edge28_Node000015_Node000021" class="edge">
<title>Node15&#45;&gt;Node21</title>
<g id="a_edge28_Node000015_Node000021"><a xlink:title=" ">
<path fill="none" stroke="#63b8ff" d="M941.74,-164.75C934.54,-157.11 923.89,-145.82 915.15,-136.56"/>
<polygon fill="#63b8ff" stroke="#63b8ff" points="917.51,-133.96 908.1,-129.09 912.42,-138.76 917.51,-133.96"/>
</a>
</g>
</g>
<!-- Node15&#45;&gt;Node22 -->
<g id="edge29_Node000015_Node000022" class="edge">
<title>Node15&#45;&gt;Node22</title>
<g id="a_edge29_Node000015_Node000022"><a xlink:title=" ">
<path fill="none" stroke="#63b8ff" d="M1000.24,-167.15C1063.13,-159.11 1174.39,-144.59 1279.61,-129.17"/>
<polygon fill="#63b8ff" stroke="#63b8ff" points="1280.38,-132.6 1289.77,-127.68 1279.36,-125.67 1280.38,-132.6"/>
</a>
</g>
</g>
</g>
</svg>
